<?xml version="1.0" encoding="utf-8"?>
<!-- Generator: Adobe Illustrator 23.0.1, SVG Export Plug-In . SVG Version: 6.00 Build 0)  -->
<svg version="1.1" id="svg3829" xmlns:xml="http://www.w3.org/XML/1998/namespace"
	 xmlns="http://www.w3.org/2000/svg" xmlns:xlink="http://www.w3.org/1999/xlink" x="0px" y="0px" viewBox="0 0 105.2 68.9"
	 style="enable-background:new 0 0 105.2 68.9;" xml:space="preserve">
<style type="text/css">
	.st0{font-family:'OCRA';}
	.st1{font-size:5.6693px;}
	.st2{fill:none;stroke:#000000;stroke-width:0.2835;stroke-linejoin:round;stroke-miterlimit:1.4142;}
	.st3{fill:none;stroke:#FFBF00;stroke-width:1.1339;stroke-miterlimit:10;}
</style>
<desc  id="desc3">
	<referenceFile>IRM-03-5_pcb.svg</referenceFile>
</desc>
<g transform="translate(0,-0.42519582)">
	<g>
		<g id="g7">
			<g id="g9">
				<g id="g11">
					<g id="silkscreen">
						<g id="text3355">
							<g transform="matrix(1 0 0 1 19.726 57.0211)">
								<g>
									<text id="tspan3357" transform="matrix(1 0 0 1 0 0.4252)" class="st0 st1">AC</text>
								</g>
							</g>
						</g>
						<g id="text10752">
							<g transform="matrix(1 0 0 1 74.6214 17.9749)">
								<g>
									<text id="tspan10754" transform="matrix(1 0 0 1 0 0.4252)" class="st0 st1">+Vo</text>
								</g>
							</g>
						</g>
						<g id="text10748">
							<g transform="matrix(1 0 0 1 88.5849 17.9747)">
								<g>
									<text id="tspan10750" transform="matrix(1 0 0 1 0 0.4252)" class="st0 st1">-Vo</text>
								</g>
							</g>
						</g>
						<g id="text10744">
							<g transform="matrix(1 0 0 1 5.1865 57.0209)">
								<g>
									<text id="tspan10746" transform="matrix(1 0 0 1 0 0.4252)" class="st0 st1">AC</text>
								</g>
							</g>
						</g>
						<g id="text10739">
							<g transform="matrix(1 0 0 1 91.6865 56.7132)">
								<g>
									<text id="tspan10743" transform="matrix(1 0 0 1 0 0.4252)" class="st0 st1">NC</text>
								</g>
							</g>
						</g>
						<rect id="rect3832" y="0.4" class="st2" width="105.2" height="68.9"/>
					</g>
				</g>
			</g>
		</g>
	</g>
</g>
<g id="copper1">
	<g id="copper0">
		<circle id="connector1acn" class="st3" cx="23" cy="59.8" r="1.6"/>
		<circle id="connector2acl" class="st3" cx="8.8" cy="59.8" r="1.6"/>
		<circle id="connector3nc" class="st3" cx="95.6" cy="59.8" r="1.6"/>
		<circle id="connector4vominus" class="st3" cx="95.6" cy="8.8" r="1.6"/>
		<circle id="connector5voplus" class="st3" cx="81.1" cy="8.8" r="1.6"/>
	</g>
</g>
</svg>
