<?xml version="1.0" encoding="utf-8"?>
<!-- Generator: Adobe Illustrator 23.0.1, SVG Export Plug-In . SVG Version: 6.00 Build 0)  -->
<svg version="1.2" baseProfile="tiny" id="svg3681" xmlns:xml="http://www.w3.org/XML/1998/namespace"
	 xmlns="http://www.w3.org/2000/svg" xmlns:xlink="http://www.w3.org/1999/xlink" x="0px" y="0px" viewBox="0 0 110.9 72"
	 xml:space="preserve">
<desc>
	<referenceFile>Irm-03-5-Schematic.svg</referenceFile>
</desc>
<g transform="matrix(1.227863,0,0,1.2108579,-37.077745,-1.3941377)">
	<g>
		<g>
			<g>
				<g>
					<g id="g3683">
						<g id="g3685">

								<rect id="connector4vominus" x="114.4" y="13.5" fill-rule="evenodd" fill="#FFFFFF" stroke="#16FF00" stroke-linejoin="round" stroke-miterlimit="1.4142" width="5.8" height="0"/>
							<rect id="connector4terminal" x="120.5" y="13.6" fill="none" width="0" height="0"/>

								<rect id="connector5voplus" x="114.4" y="48.5" fill-rule="evenodd" fill="#FFFFFF" stroke="#16FF00" stroke-linejoin="round" stroke-miterlimit="1.4142" width="5.8" height="0"/>
							<rect id="connector5terminal" x="120.5" y="48.5" fill="none" width="0" height="0"/>
						</g>

							<rect id="connector3nc" x="76.7" y="1.5" fill-rule="evenodd" fill="#0600FF" stroke="#0013FF" stroke-linejoin="round" stroke-miterlimit="1.4142" width="0" height="5.8"/>
						<rect id="connector3terminal" x="76.7" y="1.2" fill="none" width="0" height="0"/>

							<rect id="connector2acl" x="30.6" y="25.3" fill-rule="evenodd" fill="#0600FF" stroke="#0013FF" stroke-linejoin="round" stroke-miterlimit="1.4142" width="5.8" height="0"/>
						<rect id="connector2terminal" x="30.2" y="25.3" fill="none" width="0" height="0"/>

							<rect id="connector1acn" x="30.6" y="36.7" fill-rule="evenodd" fill="#0600FF" stroke="#0013FF" stroke-linejoin="round" stroke-miterlimit="1.4142" width="5.8" height="0"/>
						<rect id="connector1terminal" x="30.2" y="36.7" fill="none" width="0" height="0"/>

							<rect id="rect3695" x="36.9" y="8.1" fill-rule="evenodd" fill="#FFFFFF" stroke="#000000" stroke-linecap="round" stroke-linejoin="round" stroke-miterlimit="1.4142" width="77.1" height="45.8"/>
						<g id="text3697">
							<text transform="matrix(0.8259 0 0 0.8259 105.0229 15.2202)" font-family="'DroidSans'" font-size="5.7582px">-V</text>

								<text id="tspan3699" transform="matrix(0.8259 0 0 0.8259 109.1117 15.2202)" font-family="'DroidSans'" font-size="5.7582px">o</text>
						</g>
						<g id="text3701">
							<text transform="matrix(0.8259 0 0 0.8259 103.9333 49.6894)" font-family="'DroidSans'" font-size="5.7582px">+V</text>

								<text id="tspan3703" transform="matrix(0.8259 0 0 0.8259 109.1117 49.6894)" font-family="'DroidSans'" font-size="5.7582px">o</text>
						</g>
						<text id="text3705" transform="matrix(0.8259 0 0 0.8259 59.1702 31.8705)" font-family="'DroidSans'" font-size="8.7868px">IRM-03-5</text>
						<text transform="matrix(0.8259 0 0 0.8259 38.5285 26.8016)" font-family="'DroidSans'" font-size="5.2804px">A</text>
						<text transform="matrix(0.8259 0 0 0.8259 41.1368 26.8016)" font-family="'DroidSans'" font-size="5.2804px">C</text>
						<text transform="matrix(0.8259 0 0 0.8259 38.5285 37.733)" font-family="'DroidSans'" font-size="5.2804px">A</text>
						<text transform="matrix(0.8259 0 0 0.8259 41.1368 37.733)" font-family="'DroidSans'" font-size="5.2804px">C</text>

							<text id="text3717" transform="matrix(0.8259 0 0 0.8259 116.2793 46.3658)" fill="#555555" font-family="'DroidSans'" font-size="2.9061px">5</text>

							<text id="text3715" transform="matrix(0.8259 0 0 0.8259 116.148 11.8216)" fill="#555555" font-family="'DroidSans'" font-size="2.9061px">4</text>

							<text id="text3715_1_" transform="matrix(0.8259 0 0 0.8259 78.3087 5.1194)" fill="#555555" font-family="'DroidSans'" font-size="2.9061px">3</text>

							<text id="text3711" transform="matrix(0.8259 0 0 0.8259 32.6227 23.6268)" fill="#555555" font-family="'DroidSans'" font-size="2.9061px">2</text>

							<text id="text3713" transform="matrix(0.8259 0 0 0.8259 32.437 34.7328)" fill="#555555" font-family="'DroidSans'" font-size="2.9061px">1</text>
					</g>
				</g>
			</g>
		</g>
	</g>
</g>
<text id="text3709_1_" transform="matrix(1.014 0 0 1 52.7684 16.5644)" font-family="'DroidSans'" font-size="5.2804px">NC</text>
</svg>
