<?xml version="1.0" encoding="utf-8"?>
<!-- Generator: Adobe Illustrator 23.0.1, SVG Export Plug-In . SVG Version: 6.00 Build 0)  -->
<svg version="1.2" baseProfile="tiny" id="Layer_1" xmlns="http://www.w3.org/2000/svg" xmlns:xlink="http://www.w3.org/1999/xlink"
	 x="0px" y="0px" viewBox="0 0 104.88 68.03" xml:space="preserve">
<rect x="-0.5" y="-0.5" width="105" height="69"/>
<g>
	<g>
		
			<circle id="vo_x2B_" fill="#FFFFFF" stroke="#9A916C" stroke-width="0.9921" stroke-miterlimit="10" cx="80.79" cy="9.92" r="2.27"/>
		<path display="none" fill="#FF0000" d="M80.79,11.69c-0.98,0-1.77-0.79-1.77-1.77s0.79-1.77,1.77-1.77s1.77,0.79,1.77,1.77
			S81.76,11.69,80.79,11.69z"/>
	</g>
	<g>
		<circle id="vo-" fill="#FFFFFF" stroke="#9A916C" stroke-width="0.9921" stroke-miterlimit="10" cx="93.54" cy="9.92" r="2.27"/>
		<path display="none" fill="#FF0000" d="M93.54,11.69c-0.98,0-1.77-0.79-1.77-1.77s0.79-1.77,1.77-1.77s1.77,0.79,1.77,1.77
			S94.52,11.69,93.54,11.69z"/>
	</g>
	<g>
		<circle id="nc" fill="#FFFFFF" stroke="#9A916C" stroke-width="0.9921" stroke-miterlimit="10" cx="93.54" cy="60.94" r="2.27"/>
		<path display="none" fill="#FF0000" d="M93.54,62.72c-0.98,0-1.77-0.79-1.77-1.77c0-0.98,0.79-1.77,1.77-1.77s1.77,0.79,1.77,1.77
			C95.31,61.92,94.52,62.72,93.54,62.72z"/>
	</g>
	<g>
		<path display="none" fill="#FF0000" d="M11.34,62.72c-0.98,0-1.77-0.79-1.77-1.77c0-0.98,0.79-1.77,1.77-1.77s1.77,0.79,1.77,1.77
			C13.11,61.92,12.32,62.72,11.34,62.72z"/>
		
			<circle id="ac_x2F_l" fill="#FFFFFF" stroke="#9A916C" stroke-width="0.9921" stroke-miterlimit="10" cx="11.34" cy="60.94" r="2.27"/>
	</g>
	<g>
		<path display="none" fill="#FF0000" d="M24.1,62.32c-0.69,0-1.39-0.42-1.39-1.37c0-0.95,0.7-1.37,1.39-1.37
			c0.69,0,1.38,0.42,1.38,1.37C25.48,61.89,24.78,62.32,24.1,62.32z"/>
		<path id="ac_x2F_n_1_" fill="#FFFFFF" stroke="#9A916C" stroke-width="0.9921" stroke-miterlimit="10" d="M26.36,60.94
			c0,2.93-4.54,2.92-4.54,0C21.83,58.03,26.36,58.01,26.36,60.94z"/>
	</g>
</g>
<g id="silkscreen">
	<g>
		<text transform="matrix(1 0 0 1 76.4063 5.3604)" fill="#FFFFFF" font-family="'MyriadPro-Regular'" font-size="4.8189px">+</text>
		<text transform="matrix(1 0 0 1 79.2783 5.3604)" fill="#FFFFFF" font-family="'MyriadPro-Regular'" font-size="4.8189px">V</text>
		<text transform="matrix(1 0 0 1 81.8086 5.3604)" fill="#FFFFFF" font-family="'MyriadPro-Regular'" font-size="4.8189px">o</text>
		<text transform="matrix(1 0 0 1 90.4063 5.3604)" fill="#FFFFFF" font-family="'MyriadPro-Regular'" font-size="4.8189px">-</text>
		<text transform="matrix(1 0 0 1 91.833 5.3604)" fill="#FFFFFF" font-family="'MyriadPro-Regular'" font-size="4.8189px">V</text>
		<text transform="matrix(1 0 0 1 94.3623 5.3604)" fill="#FFFFFF" font-family="'MyriadPro-Regular'" font-size="4.8189px">o</text>
		<text transform="matrix(1 0 0 1 5.0063 57.9834)" fill="#FFFFFF" font-family="'MyriadPro-Regular'" font-size="5.6693px">A</text>
		<text transform="matrix(1 0 0 1 8.3911 57.9834)" fill="#FFFFFF" font-family="'MyriadPro-Regular'" font-size="5.6693px">C</text>
		<text transform="matrix(1 0 0 1 11.6792 57.9834)" fill="#FFFFFF" font-family="'MyriadPro-Regular'" font-size="5.6693px">/</text>
		<text transform="matrix(1 0 0 1 13.6235 57.9834)" fill="#FFFFFF" font-family="'MyriadPro-Regular'" font-size="5.6693px">L</text>
		<text transform="matrix(1 0 0 1 19.0063 57.9834)" fill="#FFFFFF" font-family="'MyriadPro-Regular'" font-size="5.6693px">A</text>
		<text transform="matrix(1 0 0 1 22.3911 57.9834)" fill="#FFFFFF" font-family="'MyriadPro-Regular'" font-size="5.6693px">C</text>
		<text transform="matrix(1 0 0 1 25.6792 57.9834)" fill="#FFFFFF" font-family="'MyriadPro-Regular'" font-size="5.6693px">/</text>
		<text transform="matrix(1 0 0 1 27.6235 57.9834)" fill="#FFFFFF" font-family="'MyriadPro-Regular'" font-size="5.6693px">N</text>
		<text transform="matrix(1 0 0 1 84.1914 63.1064)" fill="#FFFFFF" font-family="'MyriadPro-Regular'" font-size="4.8189px">NC</text>
	</g>
	<g>
		<text transform="matrix(1 0 0 1 4.2549 21.0298)" fill="#C7B299" font-family="'MyriadPro-Regular'" font-size="5.6693px">I</text>
		<text transform="matrix(1 0 0 1 5.6099 21.0298)" fill="#C7B299" font-family="'MyriadPro-Regular'" font-size="5.6693px">N</text>
		<text transform="matrix(1 0 0 1 9.3403 21.0298)" fill="#C7B299" font-family="'MyriadPro-Regular'" font-size="5.6693px">P</text>
		<text transform="matrix(1 0 0 1 12.3564 21.0298)" fill="#C7B299" font-family="'MyriadPro-Regular'" font-size="5.6693px">U</text>
		<text transform="matrix(1 0 0 1 16.0244 21.0298)" fill="#C7B299" font-family="'MyriadPro-Regular'" font-size="5.6693px">T</text>
		<text transform="matrix(1 0 0 1 18.6943 21.0298)" fill="#C7B299" font-family="'MyriadPro-Regular'" font-size="5.6693px">:</text>
		<text transform="matrix(1 0 0 1 19.8682 21.0298)" fill="#C7B299" font-family="'MyriadPro-Regular'" font-size="5.6693px"> </text>
		<text transform="matrix(1 0 0 1 21.0698 21.0298)" fill="#C7B299" font-family="'MyriadPro-Regular'" font-size="5.6693px">1</text>
		<text transform="matrix(1 0 0 1 23.978 21.0298)" fill="#C7B299" font-family="'MyriadPro-Regular'" font-size="5.6693px">0</text>
		<text transform="matrix(1 0 0 1 26.8862 21.0298)" fill="#C7B299" font-family="'MyriadPro-Regular'" font-size="5.6693px">0</text>
		<text transform="matrix(1 0 0 1 29.7944 21.0298)" fill="#C7B299" font-family="'MyriadPro-Regular'" font-size="5.6693px">-</text>
		<text transform="matrix(1 0 0 1 31.5352 21.0298)" fill="#C7B299" font-family="'MyriadPro-Regular'" font-size="5.6693px">2</text>
		<text transform="matrix(1 0 0 1 34.4434 21.0298)" fill="#C7B299" font-family="'MyriadPro-Regular'" font-size="5.6693px">4</text>
		<text transform="matrix(1 0 0 1 37.3516 21.0298)" fill="#C7B299" font-family="'MyriadPro-Regular'" font-size="5.6693px">0</text>
		<text transform="matrix(1 0 0 1 40.2598 21.0298)" fill="#C7B299" font-family="'MyriadPro-Regular'" font-size="5.6693px">V</text>
		<text transform="matrix(1 0 0 1 43.1001 21.0298)" fill="#C7B299" font-family="'MyriadPro-Regular'" font-size="5.6693px">A</text>
		<text transform="matrix(1 0 0 1 46.4849 21.0298)" fill="#C7B299" font-family="'MyriadPro-Regular'" font-size="5.6693px">C</text>
		<text transform="matrix(1 0 0 1 32.6982 11.9033)" fill="#C7B299" font-family="'MyriadPro-Regular'" font-size="8.5039px">I</text>
		<text transform="matrix(1 0 0 1 34.7305 11.9033)" fill="#C7B299" font-family="'MyriadPro-Regular'" font-size="8.5039px">R</text>
		<text transform="matrix(1 0 0 1 39.3057 11.9033)" fill="#C7B299" font-family="'MyriadPro-Regular'" font-size="8.5039px">M</text>
		<text transform="matrix(1 0 0 1 46.1938 11.9033)" fill="#C7B299" font-family="'MyriadPro-Regular'" font-size="8.5039px">-</text>
		<text transform="matrix(1 0 0 1 48.8042 11.9033)" fill="#C7B299" font-family="'MyriadPro-Regular'" font-size="8.5039px">0</text>
		<text transform="matrix(1 0 0 1 53.167 11.9033)" fill="#C7B299" font-family="'MyriadPro-Regular'" font-size="8.5039px">3</text>
		<text transform="matrix(1 0 0 1 57.5293 11.9033)" fill="#C7B299" font-family="'MyriadPro-Regular'" font-size="8.5039px">-</text>
		<text transform="matrix(1 0 0 1 60.1396 11.9033)" fill="#C7B299" font-family="'MyriadPro-Regular'" font-size="8.5039px">5</text>
		<rect x="28" y="13" fill="#C7B299" width="44" height="1"/>
		<g>
			<rect x="5" y="5" fill="#C7B299" width="18" height="11"/>
			<text transform="matrix(1 0 0 1 7.3076 11.7544)" font-family="'InformalRoman-Regular'" font-size="8.5039px">MW</text>
			<rect x="6" y="13" width="16" height="3"/>
			<text transform="matrix(1 0 0 1 6.8286 15.7856)" fill="#C7B299" font-family="'MyriadPro-Regular'" font-size="2.8346px">M</text>
			<text transform="matrix(1 0 0 1 9.1074 15.7856)" fill="#C7B299" font-family="'MyriadPro-Regular'" font-size="2.8346px">E</text>
			<text transform="matrix(1 0 0 1 10.5024 15.7856)" fill="#C7B299" font-family="'MyriadPro-Regular'" font-size="2.8346px">A</text>
			<text transform="matrix(1 0 0 1 12.2368 15.7856)" fill="#C7B299" font-family="'MyriadPro-Regular'" font-size="2.8346px">N</text>
			<text transform="matrix(1 0 0 1 14.1021 15.7856)" fill="#C7B299" font-family="'MyriadPro-Regular'" font-size="2.8346px"> </text>
			<text transform="matrix(1 0 0 1 14.6011 15.7856)" fill="#C7B299" font-family="'MyriadPro-Regular'" font-size="2.8346px">W</text>
			<text transform="matrix(1 0 0 1 16.999 15.7856)" fill="#C7B299" font-family="'MyriadPro-Regular'" font-size="2.8346px">E</text>
			<text transform="matrix(1 0 0 1 18.3936 15.7856)" fill="#C7B299" font-family="'MyriadPro-Regular'" font-size="2.8346px">L</text>
			<text transform="matrix(1 0 0 1 19.7314 15.7856)" fill="#C7B299" font-family="'MyriadPro-Regular'" font-size="2.8346px">L</text>
		</g>
		<text transform="matrix(1 0 0 1 58.3975 20.8066)" fill="#C7B299" font-family="'MyriadPro-Regular'" font-size="5.6693px">70mA   50/60HZ</text>
		<text transform="matrix(1 0 0 1 58.3975 25.8066)" fill="#C7B299" font-family="'MyriadPro-Regular'" font-size="5.6693px">35mA   50/60HZ</text>
		<text transform="matrix(1 0 0 1 20.4126 25.8379)" fill="#C7B299" font-family="'MyriadPro-Regular'" font-size="5.6693px">2</text>
		<text transform="matrix(1 0 0 1 23.3208 25.8379)" fill="#C7B299" font-family="'MyriadPro-Regular'" font-size="5.6693px">7</text>
		<text transform="matrix(1 0 0 1 26.229 25.8379)" fill="#C7B299" font-family="'MyriadPro-Regular'" font-size="5.6693px">7</text>
		<text transform="matrix(1 0 0 1 29.1372 25.8379)" fill="#C7B299" font-family="'MyriadPro-Regular'" font-size="5.6693px">V</text>
		<text transform="matrix(1 0 0 1 31.9775 25.8379)" fill="#C7B299" font-family="'MyriadPro-Regular'" font-size="5.6693px">A</text>
		<text transform="matrix(1 0 0 1 35.3623 25.8379)" fill="#C7B299" font-family="'MyriadPro-Regular'" font-size="5.6693px">C</text>
		<text transform="matrix(1 0 0 1 4.2866 30.8691)" fill="#C7B299" font-family="'MyriadPro-Regular'" font-size="5.1024px">(</text>
		<text transform="matrix(1 0 0 1 5.7358 30.8691)" fill="#C7B299" font-family="'MyriadPro-Regular'" font-size="5.1024px">2</text>
		<text transform="matrix(1 0 0 1 8.353 30.8691)" fill="#C7B299" font-family="'MyriadPro-Regular'" font-size="5.1024px">7</text>
		<text transform="matrix(1 0 0 1 10.9707 30.8691)" fill="#C7B299" font-family="'MyriadPro-Regular'" font-size="5.1024px">7</text>
		<text transform="matrix(1 0 0 1 13.5879 30.8691)" fill="#C7B299" font-family="'MyriadPro-Regular'" font-size="5.1024px">V</text>
		<text transform="matrix(1 0 0 1 16.1445 30.8691)" fill="#C7B299" font-family="'MyriadPro-Regular'" font-size="5.1024px">A</text>
		<text transform="matrix(1 0 0 1 19.1904 30.8691)" fill="#C7B299" font-family="'MyriadPro-Regular'" font-size="5.1024px">C</text>
		<text transform="matrix(1 0 0 1 22.1499 30.8691)" fill="#C7B299" font-family="'MyriadPro-Regular'" font-size="5.1024px"> </text>
		<text transform="matrix(1 0 0 1 23.2314 30.8691)" fill="#C7B299" font-family="'MyriadPro-Regular'" font-size="5.1024px">f</text>
		<text transform="matrix(1 0 0 1 24.6548 30.8691)" fill="#C7B299" font-family="'MyriadPro-Regular'" font-size="5.1024px">o</text>
		<text transform="matrix(1 0 0 1 27.4561 30.8691)" fill="#C7B299" font-family="'MyriadPro-Regular'" font-size="5.1024px">r</text>
		<text transform="matrix(1 0 0 1 29.1245 30.8691)" fill="#C7B299" font-family="'MyriadPro-Regular'" font-size="5.1024px"> </text>
		<text transform="matrix(1 0 0 1 30.2061 30.8691)" fill="#C7B299" font-family="'MyriadPro-Regular'" font-size="5.1024px">N</text>
		<text transform="matrix(1 0 0 1 33.5635 30.8691)" fill="#C7B299" font-family="'MyriadPro-Regular'" font-size="5.1024px">o</text>
		<text transform="matrix(1 0 0 1 36.3647 30.8691)" fill="#C7B299" font-family="'MyriadPro-Regular'" font-size="5.1024px">r</text>
		<text transform="matrix(1 0 0 1 38.1553 30.8691)" fill="#C7B299" font-family="'MyriadPro-Regular'" font-size="5.1024px">t</text>
		<text transform="matrix(1 0 0 1 39.8442 30.8691)" fill="#C7B299" font-family="'MyriadPro-Regular'" font-size="5.1024px">h</text>
		<text transform="matrix(1 0 0 1 42.6763 30.8691)" fill="#C7B299" font-family="'MyriadPro-Regular'" font-size="5.1024px"> </text>
		<text transform="matrix(1 0 0 1 43.7578 30.8691)" fill="#C7B299" font-family="'MyriadPro-Regular'" font-size="5.1024px">A</text>
		<text transform="matrix(1 0 0 1 46.8652 30.8691)" fill="#C7B299" font-family="'MyriadPro-Regular'" font-size="5.1024px">m</text>
		<text transform="matrix(1 0 0 1 51.1206 30.8691)" fill="#C7B299" font-family="'MyriadPro-Regular'" font-size="5.1024px">e</text>
		<text transform="matrix(1 0 0 1 53.6768 30.8691)" fill="#C7B299" font-family="'MyriadPro-Regular'" font-size="5.1024px">r</text>
		<text transform="matrix(1 0 0 1 55.3652 30.8691)" fill="#C7B299" font-family="'MyriadPro-Regular'" font-size="5.1024px">i</text>
		<text transform="matrix(1 0 0 1 56.5596 30.8691)" fill="#C7B299" font-family="'MyriadPro-Regular'" font-size="5.1024px">c</text>
		<text transform="matrix(1 0 0 1 58.8457 30.8691)" fill="#C7B299" font-family="'MyriadPro-Regular'" font-size="5.1024px">a</text>
		<text transform="matrix(1 0 0 1 61.3047 30.8691)" fill="#C7B299" font-family="'MyriadPro-Regular'" font-size="5.1024px"> </text>
		<text transform="matrix(1 0 0 1 62.3857 30.8691)" fill="#C7B299" font-family="'MyriadPro-Regular'" font-size="5.1024px">o</text>
		<text transform="matrix(1 0 0 1 65.1875 30.8691)" fill="#C7B299" font-family="'MyriadPro-Regular'" font-size="5.1024px">n</text>
		<text transform="matrix(1 0 0 1 68.0195 30.8691)" fill="#C7B299" font-family="'MyriadPro-Regular'" font-size="5.1024px">l</text>
		<text transform="matrix(1 0 0 1 69.2236 30.8691)" fill="#C7B299" font-family="'MyriadPro-Regular'" font-size="5.1024px">y</text>
		<text transform="matrix(1 0 0 1 71.626 30.8691)" fill="#C7B299" font-family="'MyriadPro-Regular'" font-size="5.1024px">)</text>
		<text transform="matrix(1 0 0 1 3.7759 37.4219)" fill="#C7B299" font-family="'MyriadPro-Regular'" font-size="5.6693px">O</text>
		<text transform="matrix(1 0 0 1 7.6821 37.4219)" fill="#C7B299" font-family="'MyriadPro-Regular'" font-size="5.6693px">U</text>
		<text transform="matrix(1 0 0 1 11.3501 37.4219)" fill="#C7B299" font-family="'MyriadPro-Regular'" font-size="5.6693px">T</text>
		<text transform="matrix(1 0 0 1 14.1675 37.4219)" fill="#C7B299" font-family="'MyriadPro-Regular'" font-size="5.6693px">P</text>
		<text transform="matrix(1 0 0 1 17.1836 37.4219)" fill="#C7B299" font-family="'MyriadPro-Regular'" font-size="5.6693px">U</text>
		<text transform="matrix(1 0 0 1 20.8516 37.4219)" fill="#C7B299" font-family="'MyriadPro-Regular'" font-size="5.6693px">T</text>
		<text transform="matrix(1 0 0 1 23.522 37.4219)" fill="#C7B299" font-family="'MyriadPro-Regular'" font-size="5.6693px">:</text>
		<text transform="matrix(1 0 0 1 24.6953 37.4219)" fill="#C7B299" font-family="'MyriadPro-Regular'" font-size="5.6693px"> </text>
		<text transform="matrix(1 0 0 1 25.897 37.4219)" fill="#C7B299" font-family="'MyriadPro-Regular'" font-size="5.6693px"> </text>
		<text transform="matrix(1 0 0 1 27.0991 37.4219)" fill="#C7B299" font-family="'MyriadPro-Regular'" font-size="5.6693px"> </text>
		<text transform="matrix(1 0 0 1 28.3008 37.4219)" fill="#C7B299" font-family="'MyriadPro-Regular'" font-size="5.6693px"> </text>
		<text transform="matrix(1 0 0 1 29.5024 37.4219)" fill="#C7B299" font-family="'MyriadPro-Regular'" font-size="5.6693px"> </text>
		<text transform="matrix(1 0 0 1 30.7046 37.4219)" fill="#C7B299" font-family="'MyriadPro-Regular'" font-size="5.6693px"> </text>
		<text transform="matrix(1 0 0 1 31.9063 37.4219)" fill="#C7B299" font-family="'MyriadPro-Regular'" font-size="5.6693px"> </text>
		<text transform="matrix(1 0 0 1 33.1079 37.4219)" fill="#C7B299" font-family="'MyriadPro-Regular'" font-size="5.6693px">5</text>
		<text transform="matrix(1 0 0 1 36.0166 37.4219)" fill="#C7B299" font-family="'MyriadPro-Regular'" font-size="5.6693px">V</text>
		<path fill="#C7B299" d="M83.13,40.74c0.04-0.87-0.01-1.75-0.13-2.61c-1.46-0.33-3.07,0.11-4.3,0.96c-1.73,1.2-2.97,3.06-3.46,5.1
			c-0.14,0.6-0.22,1.21-0.24,1.82c-0.03,1,0.11,2.01,0.43,2.96c0.08,0.24,0.17,0.47,0.26,0.7c0.43,1.1,0.87,2.23,1.6,3.17
			c0.22,0.28,0.46,0.55,0.72,0.79c0.32,0.29,0.67,0.54,1.03,0.77c1.47,0.92,3.19,1.44,4.93,1.48c0.13-0.93,0.1-1.89-0.08-2.81
			c-1.56,0.1-3.14-0.41-4.34-1.39c-1.2-0.98-1.98-2.43-2.15-3.96c-0.2-0.08-0.24-0.34-0.25-0.55c-0.04-0.75-0.07-1.52,0.12-2.25
			c0.34-1.31,1.39-2.36,2.57-3.05c0.27-0.16,0.55-0.3,0.82-0.44C81.41,41.04,82.37,41.09,83.13,40.74z"/>
		<path fill="#C7B299" d="M93.02,38.46c-2.16,0.92-3.85,2.87-4.47,5.14c-0.38,1.4-0.36,2.89-0.12,4.33c0.18,1.06,0.5,2.12,1.06,3.04
			c0.27,0.44,0.59,0.85,0.92,1.24c0.55,0.66,1.14,1.29,1.75,1.9c1.46,1.09,3.31,1.66,5.13,1.58c-0.35-0.85-0.46-1.79-0.32-2.7
			c-2.91,0.28-5.84-2.01-6.26-4.9c1.51-0.19,3.04-0.17,4.54,0.07c-0.17-0.41-0.08-0.87-0.06-1.32c0.02-0.44-0.09-0.96-0.49-1.16
			c-0.18-0.09-0.4-0.1-0.61-0.1c-1.05-0.02-2.11-0.04-3.16-0.07c-0.08,0-0.16-0.01-0.23-0.05c-0.08-0.06-0.1-0.16-0.12-0.25
			c-0.18-1.18,0.76-2.21,1.62-3.03c0.05-0.04,0.09-0.09,0.14-0.13c0.82-0.78,1.89-1.62,2.95-1.23c0.23,0.08,0.5,0.21,0.69,0.06
			c0.14-0.11,0.15-0.32,0.14-0.5c-0.02-0.7,0.23-1.93-0.41-2.32C95.07,37.65,93.62,38.2,93.02,38.46z"/>
		<text transform="matrix(1 0 0 1 35.4536 62.7539)" fill="#C7B299" font-family="'MyriadPro-Regular'" font-size="4.8189px">M</text>
		<text transform="matrix(1 0 0 1 39.3281 62.7539)" fill="#C7B299" font-family="'MyriadPro-Regular'" font-size="4.8189px">W</text>
		<text transform="matrix(1 0 0 1 43.4048 62.7539)" fill="#C7B299" font-family="'MyriadPro-Regular'" font-size="4.8189px">0</text>
		<text transform="matrix(1 0 0 1 45.8765 62.7539)" fill="#C7B299" font-family="'MyriadPro-Regular'" font-size="4.8189px">2</text>
		<text transform="matrix(1 0 0 1 48.3486 62.7539)" fill="#C7B299" font-family="'MyriadPro-Regular'" font-size="4.8189px"> </text>
		<text transform="matrix(1 0 0 1 49.3701 62.7539)" fill="#C7B299" font-family="'MyriadPro-Regular'" font-size="4.8189px">M</text>
		<text transform="matrix(1 0 0 1 53.1963 62.7539)" fill="#C7B299" font-family="'MyriadPro-Regular'" font-size="4.8189px">A</text>
		<text transform="matrix(1 0 0 1 56.1455 62.7539)" fill="#C7B299" font-family="'MyriadPro-Regular'" font-size="4.8189px">D</text>
		<text transform="matrix(1 0 0 1 59.3545 62.7539)" fill="#C7B299" font-family="'MyriadPro-Regular'" font-size="4.8189px">E</text>
		<text transform="matrix(1 0 0 1 61.7256 62.7539)" fill="#C7B299" font-family="'MyriadPro-Regular'" font-size="4.8189px"> </text>
		<text transform="matrix(1 0 0 1 62.7471 62.7539)" fill="#C7B299" font-family="'MyriadPro-Regular'" font-size="4.8189px">I</text>
		<text transform="matrix(1 0 0 1 63.8994 62.7539)" fill="#C7B299" font-family="'MyriadPro-Regular'" font-size="4.8189px">N</text>
		<text transform="matrix(1 0 0 1 67.0693 62.7539)" fill="#C7B299" font-family="'MyriadPro-Regular'" font-size="4.8189px"> </text>
		<text transform="matrix(1 0 0 1 68.0908 62.7539)" fill="#C7B299" font-family="'MyriadPro-Regular'" font-size="4.8189px">C</text>
		<text transform="matrix(1 0 0 1 70.8857 62.7539)" fill="#C7B299" font-family="'MyriadPro-Regular'" font-size="4.8189px">H</text>
		<text transform="matrix(1 0 0 1 74.0283 62.7539)" fill="#C7B299" font-family="'MyriadPro-Regular'" font-size="4.8189px">I</text>
		<text transform="matrix(1 0 0 1 75.1797 62.7539)" fill="#C7B299" font-family="'MyriadPro-Regular'" font-size="4.8189px">N</text>
		<text transform="matrix(1 0 0 1 78.3506 62.7539)" fill="#C7B299" font-family="'MyriadPro-Regular'" font-size="4.8189px">A</text>
		<text transform="matrix(1 0 0 1 20.3364 53.0527)" fill="#C7B299" font-family="'MyriadPro-Regular'" font-size="5.6693px">17W42</text>
		<text transform="matrix(1 0 0 1 63.4619 36.6729)" fill="#C7B299" font-family="'MyriadPro-Regular'" font-size="5.6693px">0.6A</text>
		<rect x="47" y="34" fill="#C7B299" width="7" height="1"/>
		<rect x="48" y="36" fill="#C7B299" width="1" height="1"/>
		<rect x="50" y="36" fill="#C7B299" width="1" height="1"/>
		<rect x="52" y="36" fill="#C7B299" width="1" height="1"/>
		<text transform="matrix(1 0 0 1 20.1152 46.6348)" fill="#C7B299" font-family="'MyriadPro-Regular'" font-size="11.3386px">LPS</text>
	</g>
</g>
</svg>
