<?xml version="1.0" encoding="utf-8"?>
<!-- Generator: Adobe Illustrator 23.0.1, SVG Export Plug-In . SVG Version: 6.00 Build 0)  -->
<svg version="1.2" baseProfile="tiny" id="Layer_1" xmlns:xml="http://www.w3.org/XML/1998/namespace"
	 xmlns="http://www.w3.org/2000/svg" xmlns:xlink="http://www.w3.org/1999/xlink" x="0px" y="0px" viewBox="0 0 131.5 86.125" width="131.5" height="86.125"
	 xml:space="preserve">
<desc>
	<referenceFile>irm035v1_66ed6ec53d5c7215af82d18b384717ad_breadboard.svg</referenceFile>
</desc>
<rect width="131.5" height="86.125"/>
<g>
	<g>
		<circle id="connector5voplus" fill="#FFFFFF" cx="102.866" cy="12.866" r="1.35"/>
		<path display="none" fill="#FF0000" d="M101.875,13.75c-1.25,0-2.25-1-2.25-2.25s1-2.25,2.25-2.25s2.25,1,2.25,2.25
			S103.125,13.75,101.875,13.75z"/>
	</g>
	<g>
		<circle id="connector4vominus" fill="#FFFFFF" cx="120.866" cy="12.866" r="1.35"/>
		<path display="none" fill="#FF0000" d="M120,13.75c-1.25,0-2.25-1-2.25-2.25s1-2.25,2.25-2.25s2.25,1,2.25,2.25
			S121.25,13.75,120,13.75z"/>
	</g>
	<g>
		<circle id="connector3nc" fill="#FFFFFF" cx="120.866" cy="75.866" r="1.35"/>
		<path display="none" fill="#FF0000" d="M120,77c-1,0-1.75-0.75-1.75-1.75S119,73.5,120,73.5s1.75,0.75,1.75,1.75
			C121.75,76.25,121,77,120,77z"/>
	</g>
	<g>
		<circle id="connector2acl" fill="#FFFFFF" cx="12.866" cy="75.866" r="1.35"/>
		<path display="none" fill="#FF0000" d="M11.5,77c-1,0-1.75-0.75-1.75-1.75s0.75-1.75,1.75-1.75s1.75,0.75,1.75,1.75
			C13.25,76.25,12.5,77,11.5,77z"/>
	</g>
	<g>
		<circle id="connector1acn" fill="#FFFFFF" cx="30.866" cy="75.866" r="1.35"/>
		<path display="none" fill="#FF0000" d="M29.25,77c-0.875,0-1.75-0.5-1.75-1.75s0.875-1.75,1.75-1.75S31,74,31,75.25
			S30.125,77,29.25,77z"/>
	</g>
</g>
<g id="silkscreen">
	<g id="Pin_Labels">
		<g transform="matrix(1 0 0 1 76.4063 5.3604)">
			<text transform="matrix(1 0 0 1 20.3511 2.5902)" fill="#FFFFFF" font-family="'DroidSans'" font-size="6.0236px">+</text>
		</g>
		<g transform="matrix(1 0 0 1 79.2783 5.3604)">
			<text transform="matrix(1 0 0 1 21.0699 2.5902)" fill="#FFFFFF" font-family="'DroidSans'" font-size="6.0236px">V</text>
		</g>
		<g transform="matrix(1 0 0 1 81.8086 5.3604)">
			<text transform="matrix(1 0 0 1 21.7017 2.5902)" fill="#FFFFFF" font-family="'DroidSans'" font-size="6.0236px">o</text>
		</g>
		<g transform="matrix(1 0 0 1 90.4063 5.3604)">
			<text transform="matrix(1 0 0 1 26.3511 2.5902)" fill="#FFFFFF" font-family="'DroidSans'" font-size="6.0236px">-</text>
		</g>
		<g transform="matrix(1 0 0 1 91.833 5.3604)">
			<text transform="matrix(1 0 0 1 26.7086 2.5902)" fill="#FFFFFF" font-family="'DroidSans'" font-size="6.0236px">V</text>
		</g>
		<g transform="matrix(1 0 0 1 94.3623 5.3604)">
			<text transform="matrix(1 0 0 1 27.3404 2.5902)" fill="#FFFFFF" font-family="'DroidSans'" font-size="6.0236px">o</text>
		</g>
		<g transform="matrix(1 0 0 1 5.0063 57.9834)">
			<text transform="matrix(1 0 0 1 1.2516 14.4956)" fill="#FFFFFF" font-family="'DroidSans'" font-size="7.0866px">A</text>
		</g>
		<g transform="matrix(1 0 0 1 8.3911 57.9834)">
			<text transform="matrix(1 0 0 1 2.0978 14.4956)" fill="#FFFFFF" font-family="'DroidSans'" font-size="7.0866px">C</text>
		</g>
		<g transform="matrix(1 0 0 1 11.6792 57.9834)">
			<text transform="matrix(1 0 0 1 2.92 14.4956)" fill="#FFFFFF" font-family="'DroidSans'" font-size="7.0866px">/</text>
		</g>
		<g transform="matrix(1 0 0 1 13.6235 57.9834)">
			<text transform="matrix(1 0 0 1 3.4059 14.4956)" fill="#FFFFFF" font-family="'DroidSans'" font-size="7.0866px">L</text>
		</g>
		<g transform="matrix(1 0 0 1 19.0063 57.9834)">
			<text transform="matrix(1 0 0 1 4.7516 14.4956)" fill="#FFFFFF" font-family="'DroidSans'" font-size="7.0866px">A</text>
		</g>
		<g transform="matrix(1 0 0 1 22.3911 57.9834)">
			<text transform="matrix(1 0 0 1 5.5978 14.4956)" fill="#FFFFFF" font-family="'DroidSans'" font-size="7.0866px">C</text>
		</g>
		<g transform="matrix(1 0 0 1 25.6792 57.9834)">
			<text transform="matrix(1 0 0 1 6.42 14.4956)" fill="#FFFFFF" font-family="'DroidSans'" font-size="7.0866px">/</text>
		</g>
		<g transform="matrix(1 0 0 1 27.6235 57.9834)">
			<text transform="matrix(1 0 0 1 6.9059 14.4956)" fill="#FFFFFF" font-family="'DroidSans'" font-size="7.0866px">N</text>
		</g>
		<g transform="matrix(1 0 0 1 84.1914 63.1064)">
			<text transform="matrix(1 0 0 1 23.5475 14.5269)" fill="#FFFFFF" font-family="'DroidSans'" font-size="6.0236px">NC</text>
		</g>
	</g>
	<g>
		<g transform="matrix(1 0 0 1 4.2549 21.0298)">
			<text transform="matrix(1 0 0 1 1.0636 5.2577)" fill="#C7B299" font-family="'DroidSans'" font-size="7.0866px">I</text>
		</g>
		<g transform="matrix(1 0 0 1 5.6099 21.0298)">
			<text transform="matrix(1 0 0 1 1.4024 5.2577)" fill="#C7B299" font-family="'DroidSans'" font-size="7.0866px">N</text>
		</g>
		<g transform="matrix(1 0 0 1 9.3403 21.0298)">
			<text transform="matrix(1 0 0 1 2.3351 5.2577)" fill="#C7B299" font-family="'DroidSans'" font-size="7.0866px">P</text>
		</g>
		<g transform="matrix(1 0 0 1 12.3564 21.0298)">
			<text transform="matrix(1 0 0 1 3.089 5.2577)" fill="#C7B299" font-family="'DroidSans'" font-size="7.0866px">U</text>
		</g>
		<g transform="matrix(1 0 0 1 16.0244 21.0298)">
			<text transform="matrix(1 0 0 1 4.006 5.2577)" fill="#C7B299" font-family="'DroidSans'" font-size="7.0866px">T</text>
		</g>
		<g transform="matrix(1 0 0 1 18.6943 21.0298)">
			<text transform="matrix(1 0 0 1 4.6735 5.2577)" fill="#C7B299" font-family="'DroidSans'" font-size="7.0866px">:</text>
		</g>
		<g transform="matrix(1 0 0 1 19.8682 21.0298)">
		</g>
		<g transform="matrix(1 0 0 1 21.0698 21.0298)">
			<text transform="matrix(1 0 0 1 5.2677 5.2577)" fill="#C7B299" font-family="'DroidSans'" font-size="7.0866px">1</text>
		</g>
		<g transform="matrix(1 0 0 1 23.978 21.0298)">
			<text transform="matrix(1 0 0 1 5.9943 5.2577)" fill="#C7B299" font-family="'DroidSans'" font-size="7.0866px">0</text>
		</g>
		<g transform="matrix(1 0 0 1 26.8862 21.0298)">
			<text transform="matrix(1 0 0 1 6.7218 5.2577)" fill="#C7B299" font-family="'DroidSans'" font-size="7.0866px">0</text>
		</g>
		<g transform="matrix(1 0 0 1 29.7944 21.0298)">
			<text transform="matrix(1 0 0 1 7.4484 5.2577)" fill="#C7B299" font-family="'DroidSans'" font-size="7.0866px">-</text>
		</g>
		<g transform="matrix(1 0 0 1 31.5352 21.0298)">
			<text transform="matrix(1 0 0 1 7.8838 5.2577)" fill="#C7B299" font-family="'DroidSans'" font-size="7.0866px">2</text>
		</g>
		<g transform="matrix(1 0 0 1 34.4434 21.0298)">
			<text transform="matrix(1 0 0 1 8.6109 5.2577)" fill="#C7B299" font-family="'DroidSans'" font-size="7.0866px">4</text>
		</g>
		<g transform="matrix(1 0 0 1 37.3516 21.0298)">
			<text transform="matrix(1 0 0 1 9.3379 5.2577)" fill="#C7B299" font-family="'DroidSans'" font-size="7.0866px">0</text>
		</g>
		<g transform="matrix(1 0 0 1 40.2598 21.0298)">
			<text transform="matrix(1 0 0 1 10.065 5.2577)" fill="#C7B299" font-family="'DroidSans'" font-size="7.0866px">V</text>
		</g>
		<g transform="matrix(1 0 0 1 43.1001 21.0298)">
			<text transform="matrix(1 0 0 1 10.775 5.2577)" fill="#C7B299" font-family="'DroidSans'" font-size="7.0866px">A</text>
		</g>
		<g transform="matrix(1 0 0 1 46.4849 21.0298)">
			<text transform="matrix(1 0 0 1 11.6212 5.2577)" fill="#C7B299" font-family="'DroidSans'" font-size="7.0866px">C</text>
		</g>
		<g transform="matrix(1 0 0 1 32.6982 11.9033)">
			<text transform="matrix(1 0 0 1 8.1745 2.976)" fill="#C7B299" font-family="'DroidSans'" font-size="10.6299px">I</text>
		</g>
		<g transform="matrix(1 0 0 1 34.7305 11.9033)">
			<text transform="matrix(1 0 0 1 8.6827 2.976)" fill="#C7B299" font-family="'DroidSans'" font-size="10.6299px">R</text>
		</g>
		<g transform="matrix(1 0 0 1 39.3057 11.9033)">
			<text transform="matrix(1 0 0 1 9.8267 2.976)" fill="#C7B299" font-family="'DroidSans'" font-size="10.6299px">M</text>
		</g>
		<g transform="matrix(1 0 0 1 46.1938 11.9033)">
			<text transform="matrix(1 0 0 1 11.5485 2.976)" fill="#C7B299" font-family="'DroidSans'" font-size="10.6299px">-</text>
		</g>
		<g transform="matrix(1 0 0 1 48.8042 11.9033)">
			<text transform="matrix(1 0 0 1 12.2013 2.976)" fill="#C7B299" font-family="'DroidSans'" font-size="10.6299px">0</text>
		</g>
		<g transform="matrix(1 0 0 1 53.167 11.9033)">
			<text transform="matrix(1 0 0 1 13.2916 2.976)" fill="#C7B299" font-family="'DroidSans'" font-size="10.6299px">3</text>
		</g>
		<g transform="matrix(1 0 0 1 57.5293 11.9033)">
			<text transform="matrix(1 0 0 1 14.3824 2.976)" fill="#C7B299" font-family="'DroidSans'" font-size="10.6299px">-</text>
		</g>
		<g transform="matrix(1 0 0 1 60.1396 11.9033)">
			<text transform="matrix(1 0 0 1 15.0348 2.976)" fill="#C7B299" font-family="'DroidSans'" font-size="10.6299px">5</text>
		</g>
		<rect x="35" y="16.25" fill="#C7B299" width="55" height="1.25"/>
		<g>
			<rect x="6.25" y="6.25" fill="#D41D00" width="22.5" height="13.75"/>
			<g transform="matrix(1 0 0 1 7.3076 11.7544)">
				<text transform="matrix(1 0 0 1 1.8268 2.9384)" fill="#FFFFFF" font-family="'DroidSans'" font-size="10.6299px">MW</text>
			</g>
			<rect x="7.5" y="16.25" fill="#FFFFFF" width="20" height="3.75"/>
			<g transform="matrix(1 0 0 1 6.8286 15.7856)">
				<text transform="matrix(1 0 0 1 1.7071 3.9463)" fill="#F41B00" font-family="'DroidSans'" font-size="3.5433px">M</text>
			</g>
			<g transform="matrix(1 0 0 1 9.1074 15.7856)">
				<text transform="matrix(1 0 0 1 2.277 3.9463)" fill="#F41B00" font-family="'DroidSans'" font-size="3.5433px">E</text>
			</g>
			<g transform="matrix(1 0 0 1 10.5024 15.7856)">
				<text transform="matrix(1 0 0 1 2.6256 3.9463)" fill="#F41B00" font-family="'DroidSans'" font-size="3.5433px">A</text>
			</g>
			<g transform="matrix(1 0 0 1 12.2368 15.7856)">
				<text transform="matrix(1 0 0 1 3.0592 3.9463)" fill="#F41B00" font-family="'DroidSans'" font-size="3.5433px">N</text>
			</g>
			<g transform="matrix(1 0 0 1 14.1021 15.7856)">
			</g>
			<g transform="matrix(1 0 0 1 14.6011 15.7856)">
				<text transform="matrix(1 0 0 1 3.6505 3.9463)" fill="#F41B00" font-family="'DroidSans'" font-size="3.5433px">W</text>
			</g>
			<g transform="matrix(1 0 0 1 16.999 15.7856)">
				<text transform="matrix(1 0 0 1 4.2496 3.9463)" fill="#F41B00" font-family="'DroidSans'" font-size="3.5433px">E</text>
			</g>
			<g transform="matrix(1 0 0 1 18.3936 15.7856)">
				<text transform="matrix(1 0 0 1 4.5982 3.9463)" fill="#F41B00" font-family="'DroidSans'" font-size="3.5433px">L</text>
			</g>
			<g transform="matrix(1 0 0 1 19.7314 15.7856)">
				<text transform="matrix(1 0 0 1 4.9328 3.9463)" fill="#F41B00" font-family="'DroidSans'" font-size="3.5433px">L</text>
			</g>
		</g>
		<g transform="matrix(1 0 0 1 58.3975 20.8066)">
			<text transform="matrix(1 0 0 1 14.5992 5.2017)" fill="#C7B299" font-family="'DroidSans'" font-size="7.0866px">7</text>
		</g>
		<g transform="matrix(1 0 0 1 61.5503 20.8066)">
			<text transform="matrix(1 0 0 1 15.3878 5.2017)" fill="#C7B299" font-family="'DroidSans'" font-size="7.0866px">0</text>
		</g>
		<g transform="matrix(1 0 0 1 64.7037 20.8066)">
			<text transform="matrix(1 0 0 1 16.1758 5.2017)" fill="#C7B299" font-family="'DroidSans'" font-size="7.0866px">m</text>
		</g>
		<g transform="matrix(1 0 0 1 69.4258 20.8066)">
			<text transform="matrix(1 0 0 1 17.356 5.2017)" fill="#C7B299" font-family="'DroidSans'" font-size="7.0866px">A</text>
		</g>
		<g transform="matrix(1 0 0 1 72.8946 20.8066)">
		</g>
		<g transform="matrix(1 0 0 1 74.4698 20.8066)">
		</g>
		<g transform="matrix(1 0 0 1 76.045 20.8066)">
		</g>
		<g transform="matrix(1 0 0 1 77.6202 20.8066)">
			<text transform="matrix(1 0 0 1 19.4048 5.2017)" fill="#C7B299" font-family="'DroidSans'" font-size="7.0866px">5</text>
		</g>
		<g transform="matrix(1 0 0 1 80.773 20.8066)">
			<text transform="matrix(1 0 0 1 20.1934 5.2017)" fill="#C7B299" font-family="'DroidSans'" font-size="7.0866px">0</text>
		</g>
		<g transform="matrix(1 0 0 1 83.9258 20.8066)">
			<text transform="matrix(1 0 0 1 20.981 5.2017)" fill="#C7B299" font-family="'DroidSans'" font-size="7.0866px">/</text>
		</g>
		<g transform="matrix(1 0 0 1 85.501 20.8066)">
			<text transform="matrix(1 0 0 1 21.3756 5.2017)" fill="#C7B299" font-family="'DroidSans'" font-size="7.0866px">6</text>
		</g>
		<g transform="matrix(1 0 0 1 88.6538 20.8066)">
			<text transform="matrix(1 0 0 1 22.1632 5.2017)" fill="#C7B299" font-family="'DroidSans'" font-size="7.0866px">0</text>
		</g>
		<g transform="matrix(1 0 0 1 91.8072 20.8066)">
			<text transform="matrix(1 0 0 1 22.9522 5.2017)" fill="#C7B299" font-family="'DroidSans'" font-size="7.0866px">H</text>
		</g>
		<g transform="matrix(1 0 0 1 95.9009 20.8066)">
			<text transform="matrix(1 0 0 1 23.9757 5.2017)" fill="#C7B299" font-family="'DroidSans'" font-size="7.0866px">Z</text>
		</g>
		<g transform="matrix(1 0 0 1 58.3975 25.8066)">
			<text transform="matrix(1 0 0 1 14.5992 6.4517)" fill="#C7B299" font-family="'DroidSans'" font-size="7.0866px">3</text>
		</g>
		<g transform="matrix(1 0 0 1 61.5503 25.8066)">
			<text transform="matrix(1 0 0 1 15.3878 6.4517)" fill="#C7B299" font-family="'DroidSans'" font-size="7.0866px">5</text>
		</g>
		<g transform="matrix(1 0 0 1 64.7037 25.8066)">
			<text transform="matrix(1 0 0 1 16.1758 6.4517)" fill="#C7B299" font-family="'DroidSans'" font-size="7.0866px">m</text>
		</g>
		<g transform="matrix(1 0 0 1 69.4258 25.8066)">
			<text transform="matrix(1 0 0 1 17.356 6.4517)" fill="#C7B299" font-family="'DroidSans'" font-size="7.0866px">A</text>
		</g>
		<g transform="matrix(1 0 0 1 72.8946 25.8066)">
		</g>
		<g transform="matrix(1 0 0 1 74.4698 25.8066)">
		</g>
		<g transform="matrix(1 0 0 1 76.045 25.8066)">
		</g>
		<g transform="matrix(1 0 0 1 77.6202 25.8066)">
			<text transform="matrix(1 0 0 1 19.4048 6.4517)" fill="#C7B299" font-family="'DroidSans'" font-size="7.0866px">5</text>
		</g>
		<g transform="matrix(1 0 0 1 80.773 25.8066)">
			<text transform="matrix(1 0 0 1 20.1934 6.4517)" fill="#C7B299" font-family="'DroidSans'" font-size="7.0866px">0</text>
		</g>
		<g transform="matrix(1 0 0 1 83.9258 25.8066)">
			<text transform="matrix(1 0 0 1 20.981 6.4517)" fill="#C7B299" font-family="'DroidSans'" font-size="7.0866px">/</text>
		</g>
		<g transform="matrix(1 0 0 1 85.501 25.8066)">
			<text transform="matrix(1 0 0 1 21.3756 6.4517)" fill="#C7B299" font-family="'DroidSans'" font-size="7.0866px">6</text>
		</g>
		<g transform="matrix(1 0 0 1 88.6538 25.8066)">
			<text transform="matrix(1 0 0 1 22.1632 6.4517)" fill="#C7B299" font-family="'DroidSans'" font-size="7.0866px">0</text>
		</g>
		<g transform="matrix(1 0 0 1 91.8072 25.8066)">
			<text transform="matrix(1 0 0 1 22.9522 6.4517)" fill="#C7B299" font-family="'DroidSans'" font-size="7.0866px">H</text>
		</g>
		<g transform="matrix(1 0 0 1 95.9009 25.8066)">
			<text transform="matrix(1 0 0 1 23.9757 6.4517)" fill="#C7B299" font-family="'DroidSans'" font-size="7.0866px">Z</text>
		</g>
		<g transform="matrix(1 0 0 1 20.4126 25.8379)">
			<text transform="matrix(1 0 0 1 5.1031 6.4594)" fill="#C7B299" font-family="'DroidSans'" font-size="7.0866px">2</text>
		</g>
		<g transform="matrix(1 0 0 1 23.3208 25.8379)">
			<text transform="matrix(1 0 0 1 5.8302 6.4594)" fill="#C7B299" font-family="'DroidSans'" font-size="7.0866px">7</text>
		</g>
		<g transform="matrix(1 0 0 1 26.229 25.8379)">
			<text transform="matrix(1 0 0 1 6.5572 6.4594)" fill="#C7B299" font-family="'DroidSans'" font-size="7.0866px">7</text>
		</g>
		<g transform="matrix(1 0 0 1 29.1372 25.8379)">
			<text transform="matrix(1 0 0 1 7.2843 6.4594)" fill="#C7B299" font-family="'DroidSans'" font-size="7.0866px">V</text>
		</g>
		<g transform="matrix(1 0 0 1 31.9775 25.8379)">
			<text transform="matrix(1 0 0 1 7.9943 6.4594)" fill="#C7B299" font-family="'DroidSans'" font-size="7.0866px">A</text>
		</g>
		<g transform="matrix(1 0 0 1 35.3623 25.8379)">
			<text transform="matrix(1 0 0 1 8.8404 6.4594)" fill="#C7B299" font-family="'DroidSans'" font-size="7.0866px">C</text>
		</g>
		<g transform="matrix(1 0 0 1 4.2866 30.8691)">
			<text transform="matrix(1 0 0 1 1.0714 7.7173)" fill="#C7B299" font-family="'DroidSans'" font-size="6.378px">(</text>
		</g>
		<g transform="matrix(1 0 0 1 5.7358 30.8691)">
			<text transform="matrix(1 0 0 1 1.4337 7.7173)" fill="#C7B299" font-family="'DroidSans'" font-size="6.378px">2</text>
		</g>
		<g transform="matrix(1 0 0 1 8.353 30.8691)">
			<text transform="matrix(1 0 0 1 2.088 7.7173)" fill="#C7B299" font-family="'DroidSans'" font-size="6.378px">7</text>
		</g>
		<g transform="matrix(1 0 0 1 10.9707 30.8691)">
			<text transform="matrix(1 0 0 1 2.7428 7.7173)" fill="#C7B299" font-family="'DroidSans'" font-size="6.378px">7</text>
		</g>
		<g transform="matrix(1 0 0 1 13.5879 30.8691)">
			<text transform="matrix(1 0 0 1 3.3971 7.7173)" fill="#C7B299" font-family="'DroidSans'" font-size="6.378px">V</text>
		</g>
		<g transform="matrix(1 0 0 1 16.1445 30.8691)">
			<text transform="matrix(1 0 0 1 4.0363 7.7173)" fill="#C7B299" font-family="'DroidSans'" font-size="6.378px">A</text>
		</g>
		<g transform="matrix(1 0 0 1 19.1904 30.8691)">
			<text transform="matrix(1 0 0 1 4.7975 7.7173)" fill="#C7B299" font-family="'DroidSans'" font-size="6.378px">C</text>
		</g>
		<g transform="matrix(1 0 0 1 22.1499 30.8691)">
		</g>
		<g transform="matrix(1 0 0 1 23.2314 30.8691)">
			<text transform="matrix(1 0 0 1 5.8078 7.7173)" fill="#C7B299" font-family="'DroidSans'" font-size="6.378px">f</text>
		</g>
		<g transform="matrix(1 0 0 1 24.6548 30.8691)">
			<text transform="matrix(1 0 0 1 6.1637 7.7173)" fill="#C7B299" font-family="'DroidSans'" font-size="6.378px">o</text>
		</g>
		<g transform="matrix(1 0 0 1 27.4561 30.8691)">
			<text transform="matrix(1 0 0 1 6.8638 7.7173)" fill="#C7B299" font-family="'DroidSans'" font-size="6.378px">r</text>
		</g>
		<g transform="matrix(1 0 0 1 29.1245 30.8691)">
		</g>
		<g transform="matrix(1 0 0 1 30.2061 30.8691)">
			<text transform="matrix(1 0 0 1 7.5513 7.7173)" fill="#C7B299" font-family="'DroidSans'" font-size="6.378px">N</text>
		</g>
		<g transform="matrix(1 0 0 1 33.5635 30.8691)">
			<text transform="matrix(1 0 0 1 8.3907 7.7173)" fill="#C7B299" font-family="'DroidSans'" font-size="6.378px">o</text>
		</g>
		<g transform="matrix(1 0 0 1 36.3647 30.8691)">
			<text transform="matrix(1 0 0 1 9.091 7.7173)" fill="#C7B299" font-family="'DroidSans'" font-size="6.378px">r</text>
		</g>
		<g transform="matrix(1 0 0 1 38.1553 30.8691)">
			<text transform="matrix(1 0 0 1 9.5386 7.7173)" fill="#C7B299" font-family="'DroidSans'" font-size="6.378px">t</text>
		</g>
		<g transform="matrix(1 0 0 1 39.8442 30.8691)">
			<text transform="matrix(1 0 0 1 9.9611 7.7173)" fill="#C7B299" font-family="'DroidSans'" font-size="6.378px">h</text>
		</g>
		<g transform="matrix(1 0 0 1 42.6763 30.8691)">
		</g>
		<g transform="matrix(1 0 0 1 43.7578 30.8691)">
			<text transform="matrix(1 0 0 1 10.9396 7.7173)" fill="#C7B299" font-family="'DroidSans'" font-size="6.378px">A</text>
		</g>
		<g transform="matrix(1 0 0 1 46.8652 30.8691)">
			<text transform="matrix(1 0 0 1 11.7164 7.7173)" fill="#C7B299" font-family="'DroidSans'" font-size="6.378px">m</text>
		</g>
		<g transform="matrix(1 0 0 1 51.1206 30.8691)">
			<text transform="matrix(1 0 0 1 12.7804 7.7173)" fill="#C7B299" font-family="'DroidSans'" font-size="6.378px">e</text>
		</g>
		<g transform="matrix(1 0 0 1 53.6768 30.8691)">
			<text transform="matrix(1 0 0 1 13.4195 7.7173)" fill="#C7B299" font-family="'DroidSans'" font-size="6.378px">r</text>
		</g>
		<g transform="matrix(1 0 0 1 55.3652 30.8691)">
			<text transform="matrix(1 0 0 1 13.8414 7.7173)" fill="#C7B299" font-family="'DroidSans'" font-size="6.378px">i</text>
		</g>
		<g transform="matrix(1 0 0 1 56.5596 30.8691)">
			<text transform="matrix(1 0 0 1 14.1402 7.7173)" fill="#C7B299" font-family="'DroidSans'" font-size="6.378px">c</text>
		</g>
		<g transform="matrix(1 0 0 1 58.8457 30.8691)">
			<text transform="matrix(1 0 0 1 14.7115 7.7173)" fill="#C7B299" font-family="'DroidSans'" font-size="6.378px">a</text>
		</g>
		<g transform="matrix(1 0 0 1 61.3047 30.8691)">
		</g>
		<g transform="matrix(1 0 0 1 62.3857 30.8691)">
			<text transform="matrix(1 0 0 1 15.5963 7.7173)" fill="#C7B299" font-family="'DroidSans'" font-size="6.378px">o</text>
		</g>
		<g transform="matrix(1 0 0 1 65.1875 30.8691)">
			<text transform="matrix(1 0 0 1 16.2965 7.7173)" fill="#C7B299" font-family="'DroidSans'" font-size="6.378px">n</text>
		</g>
		<g transform="matrix(1 0 0 1 68.0195 30.8691)">
			<text transform="matrix(1 0 0 1 17.0045 7.7173)" fill="#C7B299" font-family="'DroidSans'" font-size="6.378px">l</text>
		</g>
		<g transform="matrix(1 0 0 1 69.2236 30.8691)">
			<text transform="matrix(1 0 0 1 17.3063 7.7173)" fill="#C7B299" font-family="'DroidSans'" font-size="6.378px">y</text>
		</g>
		<g transform="matrix(1 0 0 1 71.626 30.8691)">
			<text transform="matrix(1 0 0 1 17.9068 7.7173)" fill="#C7B299" font-family="'DroidSans'" font-size="6.378px">)</text>
		</g>
		<g transform="matrix(1 0 0 1 3.7759 37.4219)">
			<text transform="matrix(1 0 0 1 0.9439 9.3549)" fill="#C7B299" font-family="'DroidSans'" font-size="7.0866px">O</text>
		</g>
		<g transform="matrix(1 0 0 1 7.6821 37.4219)">
			<text transform="matrix(1 0 0 1 1.9205 9.3549)" fill="#C7B299" font-family="'DroidSans'" font-size="7.0866px">U</text>
		</g>
		<g transform="matrix(1 0 0 1 11.3501 37.4219)">
			<text transform="matrix(1 0 0 1 2.8375 9.3549)" fill="#C7B299" font-family="'DroidSans'" font-size="7.0866px">T</text>
		</g>
		<g transform="matrix(1 0 0 1 14.1675 37.4219)">
			<text transform="matrix(1 0 0 1 3.5421 9.3549)" fill="#C7B299" font-family="'DroidSans'" font-size="7.0866px">P</text>
		</g>
		<g transform="matrix(1 0 0 1 17.1836 37.4219)">
			<text transform="matrix(1 0 0 1 4.296 9.3549)" fill="#C7B299" font-family="'DroidSans'" font-size="7.0866px">U</text>
		</g>
		<g transform="matrix(1 0 0 1 20.8516 37.4219)">
			<text transform="matrix(1 0 0 1 5.2129 9.3549)" fill="#C7B299" font-family="'DroidSans'" font-size="7.0866px">T</text>
		</g>
		<g transform="matrix(1 0 0 1 23.522 37.4219)">
			<text transform="matrix(1 0 0 1 5.8804 9.3549)" fill="#C7B299" font-family="'DroidSans'" font-size="7.0866px">:</text>
		</g>
		<g transform="matrix(1 0 0 1 24.6953 37.4219)">
		</g>
		<g transform="matrix(1 0 0 1 25.897 37.4219)">
		</g>
		<g transform="matrix(1 0 0 1 27.0991 37.4219)">
		</g>
		<g transform="matrix(1 0 0 1 28.3008 37.4219)">
		</g>
		<g transform="matrix(1 0 0 1 29.5024 37.4219)">
		</g>
		<g transform="matrix(1 0 0 1 30.7046 37.4219)">
		</g>
		<g transform="matrix(1 0 0 1 31.9063 37.4219)">
		</g>
		<g transform="matrix(1 0 0 1 33.1079 37.4219)">
			<text transform="matrix(1 0 0 1 8.277 9.3549)" fill="#C7B299" font-family="'DroidSans'" font-size="7.0866px">5</text>
		</g>
		<g transform="matrix(1 0 0 1 36.0166 37.4219)">
			<text transform="matrix(1 0 0 1 9.004 9.3549)" fill="#C7B299" font-family="'DroidSans'" font-size="7.0866px">V</text>
		</g>
		<path fill="#C7B299" d="M103.875,50.875c0-1.125,0-2.25-0.125-3.25c-1.875-0.375-3.875,0.125-5.375,1.25
			c-2.125,1.5-3.75,3.875-4.375,6.375c-0.125,0.75-0.25,1.5-0.25,2.25c0,1.25,0.125,2.5,0.5,3.75c0.125,0.25,0.25,0.625,0.375,0.875
			c0.5,1.375,1.125,2.75,2,4c0.25,0.375,0.625,0.625,0.875,1c0.375,0.375,0.875,0.625,1.25,1c1.875,1.125,4,1.75,6.125,1.875
			c0.125-1.125,0.125-2.375-0.125-3.5c-2,0.125-3.875-0.5-5.375-1.75s-2.5-3-2.75-5c-0.25-0.125-0.25-0.375-0.375-0.625
			c0-1-0.125-1.875,0.125-2.875c0.375-1.625,1.75-3,3.25-3.75c0.375-0.25,0.75-0.375,1-0.5C101.75,51.25,103,51.375,103.875,50.875z
			"/>
		<path fill="#C7B299" d="M116.25,48.125c-2.75,1.125-4.75,3.625-5.625,6.375c-0.5,1.75-0.5,3.625-0.125,5.375
			c0.25,1.375,0.625,2.625,1.375,3.75c0.375,0.5,0.75,1,1.125,1.5c0.75,0.875,1.375,1.625,2.25,2.375
			c1.875,1.375,4.125,2.125,6.375,2c-0.375-1-0.625-2.25-0.375-3.375c-3.625,0.375-7.25-2.5-7.875-6.125
			c1.875-0.25,3.75-0.25,5.625,0.125c-0.25-0.5-0.125-1.125-0.125-1.625s-0.125-1.25-0.625-1.5c-0.25-0.125-0.5-0.125-0.75-0.125
			c-1.375,0-2.625,0-4-0.125c-0.125,0-0.25,0-0.25,0c-0.125-0.125-0.125-0.25-0.125-0.375c-0.25-1.5,1-2.75,2-3.75
			c0.125,0,0.125-0.125,0.125-0.125c1-1,2.375-2,3.625-1.5c0.25,0.125,0.625,0.25,0.875,0.125C119.875,51,120,50.75,119.875,50.5
			c0-0.875,0.25-2.375-0.5-2.875C118.875,47.125,117,47.75,116.25,48.125z"/>
		<g transform="matrix(1 0 0 1 35.4536 62.7539)">
			<text transform="matrix(1 0 0 1 8.8634 15.6889)" fill="#C7B299" font-family="'DroidSans'" font-size="6.0236px">M</text>
		</g>
		<g transform="matrix(1 0 0 1 39.3281 62.7539)">
			<text transform="matrix(1 0 0 1 9.8322 15.6889)" fill="#C7B299" font-family="'DroidSans'" font-size="6.0236px">W</text>
		</g>
		<g transform="matrix(1 0 0 1 43.4048 62.7539)">
			<text transform="matrix(1 0 0 1 10.8512 15.6889)" fill="#C7B299" font-family="'DroidSans'" font-size="6.0236px">0</text>
		</g>
		<g transform="matrix(1 0 0 1 45.8765 62.7539)">
			<text transform="matrix(1 0 0 1 11.4693 15.6889)" fill="#C7B299" font-family="'DroidSans'" font-size="6.0236px">2</text>
		</g>
		<g transform="matrix(1 0 0 1 48.3486 62.7539)">
		</g>
		<g transform="matrix(1 0 0 1 49.3701 62.7539)">
			<text transform="matrix(1 0 0 1 12.3424 15.6889)" fill="#C7B299" font-family="'DroidSans'" font-size="6.0236px">M</text>
		</g>
		<g transform="matrix(1 0 0 1 53.1963 62.7539)">
			<text transform="matrix(1 0 0 1 13.2994 15.6889)" fill="#C7B299" font-family="'DroidSans'" font-size="6.0236px">A</text>
		</g>
		<g transform="matrix(1 0 0 1 56.1455 62.7539)">
			<text transform="matrix(1 0 0 1 14.0367 15.6889)" fill="#C7B299" font-family="'DroidSans'" font-size="6.0236px">D</text>
		</g>
		<g transform="matrix(1 0 0 1 59.3545 62.7539)">
			<text transform="matrix(1 0 0 1 14.8385 15.6889)" fill="#C7B299" font-family="'DroidSans'" font-size="6.0236px">E</text>
		</g>
		<g transform="matrix(1 0 0 1 61.7256 62.7539)">
		</g>
		<g transform="matrix(1 0 0 1 62.7471 62.7539)">
			<text transform="matrix(1 0 0 1 15.6871 15.6889)" fill="#C7B299" font-family="'DroidSans'" font-size="6.0236px">I</text>
		</g>
		<g transform="matrix(1 0 0 1 63.8994 62.7539)">
			<text transform="matrix(1 0 0 1 15.9752 15.6889)" fill="#C7B299" font-family="'DroidSans'" font-size="6.0236px">N</text>
		</g>
		<g transform="matrix(1 0 0 1 67.0693 62.7539)">
		</g>
		<g transform="matrix(1 0 0 1 68.0908 62.7539)">
			<text transform="matrix(1 0 0 1 17.0231 15.6889)" fill="#C7B299" font-family="'DroidSans'" font-size="6.0236px">C</text>
		</g>
		<g transform="matrix(1 0 0 1 70.8857 62.7539)">
			<text transform="matrix(1 0 0 1 17.7213 15.6889)" fill="#C7B299" font-family="'DroidSans'" font-size="6.0236px">H</text>
		</g>
		<g transform="matrix(1 0 0 1 74.0283 62.7539)">
			<text transform="matrix(1 0 0 1 18.5074 15.6889)" fill="#C7B299" font-family="'DroidSans'" font-size="6.0236px">I</text>
		</g>
		<g transform="matrix(1 0 0 1 75.1797 62.7539)">
			<text transform="matrix(1 0 0 1 18.7945 15.6889)" fill="#C7B299" font-family="'DroidSans'" font-size="6.0236px">N</text>
		</g>
		<g transform="matrix(1 0 0 1 78.3506 62.7539)">
			<text transform="matrix(1 0 0 1 19.5875 15.6889)" fill="#C7B299" font-family="'DroidSans'" font-size="6.0236px">A</text>
		</g>
		<g transform="matrix(1 0 0 1 20.3364 53.0527)">
			<text transform="matrix(1 0 0 1 5.0841 13.2632)" fill="#C7B299" font-family="'DroidSans'" font-size="7.0866px">17W42</text>
		</g>
		<g transform="matrix(1 0 0 1 63.4619 36.6729)">
			<text transform="matrix(1 0 0 1 15.8658 9.1684)" fill="#C7B299" font-family="'DroidSans'" font-size="7.0866px">0</text>
		</g>
		<g transform="matrix(1 0 0 1 66.6147 36.6729)">
			<text transform="matrix(1 0 0 1 16.6535 9.1684)" fill="#C7B299" font-family="'DroidSans'" font-size="7.0866px">.</text>
		</g>
		<g transform="matrix(1 0 0 1 68.1899 36.6729)">
			<text transform="matrix(1 0 0 1 17.048 9.1684)" fill="#C7B299" font-family="'DroidSans'" font-size="7.0866px">6</text>
		</g>
		<g transform="matrix(1 0 0 1 71.3428 36.6729)">
			<text transform="matrix(1 0 0 1 17.8355 9.1684)" fill="#C7B299" font-family="'DroidSans'" font-size="7.0866px">A</text>
		</g>
		<rect x="58.75" y="42.5" fill="#C7B299" width="8.75" height="1.25"/>
		<rect x="60" y="45" fill="#C7B299" width="1.25" height="1.25"/>
		<rect x="62.5" y="45" fill="#C7B299" width="1.25" height="1.25"/>
		<rect x="65" y="45" fill="#C7B299" width="1.25" height="1.25"/>
		<g transform="matrix(1 0 0 1 20.1152 46.6348)">
			<text transform="matrix(1 0 0 1 5.0289 11.6586)" fill="#C7B299" font-family="'DroidSans'" font-size="14.1733px">LPS</text>
		</g>
	</g>
</g>
</svg>
