<?xml version="1.0" encoding="utf-8"?>
<!-- Generator: Adobe Illustrator 23.0.1, SVG Export Plug-In . SVG Version: 6.00 Build 0)  -->
<svg version="1.2" baseProfile="tiny" id="svg3829" xmlns:xml="http://www.w3.org/XML/1998/namespace"
	 xmlns="http://www.w3.org/2000/svg" xmlns:xlink="http://www.w3.org/1999/xlink" x="0px" y="0px" viewBox="0 0 131.5 86.125" width="131.5" height="86.125"
	 xml:space="preserve">
<desc  id="desc3">
	<referenceFile>IRM-03-5_pcb.svg</referenceFile>
</desc>
<g transform="translate(0,-0.42519582)">
	<g>
		<g id="g7">
			<g id="g9">
				<g id="g11">
					<g id="silkscreen">
						<g id="text3355">
							<g transform="matrix(1 0 0 1 19.726 57.0211)">
								<g>
									<text id="tspan3357" transform="matrix(1 0 0 1 4.7813 15.1058)" font-family="'OCRA'" font-size="7.0866px">AC</text>
								</g>
							</g>
						</g>
						<g id="text10752">
							<g transform="matrix(1 0 0 1 74.6214 17.9749)">
								<g>
									<text id="tspan10754" transform="matrix(1 0 0 1 18.5056 5.3443)" font-family="'OCRA'" font-size="7.0866px">+Vo</text>
								</g>
							</g>
						</g>
						<g id="text10748">
							<g transform="matrix(1 0 0 1 88.5849 17.9747)">
								<g>
									<text id="tspan10750" transform="matrix(1 0 0 1 21.9962 5.3441)" font-family="'OCRA'" font-size="7.0866px">-Vo</text>
								</g>
							</g>
						</g>
						<g id="text10744">
							<g transform="matrix(1 0 0 1 5.1865 57.0209)">
								<g>
									<text id="tspan10746" transform="matrix(1 0 0 1 1.1465 15.106)" font-family="'OCRA'" font-size="7.0866px">AC</text>
								</g>
							</g>
						</g>
						<g id="text10739">
							<g transform="matrix(1 0 0 1 91.6865 56.7132)">
								<g>
									<text id="tspan10743" transform="matrix(1 0 0 1 22.7715 15.0289)" font-family="'OCRA'" font-size="7.0866px">NC</text>
								</g>
							</g>
						</g>

							<rect id="rect3832" x="-0.15" y="0.819" fill="none" stroke="#000000" stroke-width="0.3544" stroke-linejoin="round" stroke-miterlimit="1.4142" width="131.5" height="86.125"/>
					</g>
				</g>
			</g>
		</g>
	</g>
</g>
<g id="copper1">
	<g id="copper0">

			<circle id="connector1acn" fill="none" stroke="#FFBF00" stroke-width="1.79770732" stroke-miterlimit="10" cx="28.6" cy="75.175" r="2.4761465"/>

			<circle id="connector2acl" fill="none" stroke="#FFBF00" stroke-width="1.79770732" stroke-miterlimit="10" cx="10.85" cy="75.175" r="2.4761465"/>

			<circle id="connector3nc" fill="none" stroke="#FFBF00" stroke-width="1.79770732" stroke-miterlimit="10" cx="119.35" cy="75.175" r="2.4761465"/>

			<circle id="connector4vominus" fill="none" stroke="#FFBF00" stroke-width="1.79770732" stroke-miterlimit="10" cx="119.35" cy="11.425" r="2.4761465"/>

			<circle id="connector5voplus" fill="none" stroke="#FFBF00" stroke-width="1.79770732" stroke-miterlimit="10" cx="101.225" cy="11.425" r="2.4761465"/>
	</g>
</g>
</svg>
