<?xml version="1.0" encoding="utf-8"?>
<!-- Generator: Adobe Illustrator 23.0.1, SVG Export Plug-In . SVG Version: 6.00 Build 0)  -->
<svg version="1.1" id="Layer_1" xmlns:xml="http://www.w3.org/XML/1998/namespace"
	 xmlns="http://www.w3.org/2000/svg" xmlns:xlink="http://www.w3.org/1999/xlink" x="0px" y="0px" viewBox="0 0 141.7 213.2"
	 style="enable-background:new 0 0 141.7 213.2;" xml:space="preserve">
<style type="text/css">
	.st0{fill:none;stroke:#CBCBAE;stroke-width:0.7604;stroke-miterlimit:10;}
	.st1{fill:#0B5686;}
	.st2{fill:#0B1019;}
	.st3{display:none;}
	.st4{display:inline;}
	.st5{fill:#005899;}
	.st6{fill:#C9A75B;}
	.st7{fill:#A87B65;}
	.st8{fill:none;stroke:#020202;stroke-width:0.8037;stroke-miterlimit:10;}
	.st9{fill:#788984;}
	.st10{fill:#CD5F28;}
	.st11{fill:#39291B;}
	.st12{fill:#131B1F;}
	.st13{fill:#F6EAAE;}
	.st14{fill:none;stroke:#EAE8BE;stroke-width:0.4;stroke-miterlimit:10;}
	.st15{fill:#F9EFC4;}
	.st16{fill:#685F52;}
	.st17{fill:#82AB71;}
	.st18{fill:#020202;}
	.st19{fill:#C1C0BF;}
	.st20{fill:#303030;}
	.st21{fill:#232323;}
	.st22{fill:#3D3D3D;}
	.st23{fill:#191919;}
	.st24{fill:#999999;}
	.st25{fill:#6D6D6D;}
	.st26{fill:#666766;}
	.st27{fill:#2D2D2D;}
	.st28{fill:none;stroke:#EAE8BE;stroke-width:0.3898;stroke-miterlimit:10;}
	.st29{fill:#9A916C;}
	.st30{fill:none;stroke:#FFFFFF;stroke-width:0.6;stroke-miterlimit:10;}
	.st31{fill:none;stroke:#FFFFFF;stroke-width:0.5988;stroke-miterlimit:10;}
	.st32{fill:none;stroke:#FFFFFF;stroke-width:0.4466;stroke-miterlimit:10;}
	.st33{fill:none;stroke:#FFFFFF;stroke-width:0.5052;stroke-miterlimit:10;}
	.st34{fill:none;stroke:#FFFFFF;stroke-width:0.5075;stroke-miterlimit:10;}
	.st35{fill:none;stroke:#FFFFFF;stroke-width:0.5003;stroke-miterlimit:10;}
	.st36{fill:none;stroke:#FFFFFF;stroke-width:0.5273;stroke-miterlimit:10;}
	.st37{fill:none;stroke:#FFFFFF;stroke-width:0.4987;stroke-miterlimit:10;}
	.st38{display:none;fill:#FFFFFF;}
	.st39{fill:#FFFFFF;}
	.st40{fill:none;stroke:#FFFFFF;stroke-width:0.84;stroke-miterlimit:10;}
	.st41{font-family:'OCRA';}
	.st42{font-size:5.6693px;}
	.st43{fill:none;stroke:#FFFFFF;stroke-width:1.0879;stroke-miterlimit:10;}
	.st44{fill:none;stroke:#FFFFFF;stroke-width:1.0899;stroke-miterlimit:10;}
	.st45{fill:none;stroke:#FFFFFF;stroke-width:0.2835;stroke-miterlimit:10;}
	.st46{font-size:3.685px;}
	.st47{font-size:3.1181px;}
	.st48{fill:none;stroke:#FFFFFF;stroke-width:1.7008;stroke-miterlimit:10;}
	.st49{font-family:'OCRAExtended';}
	.st50{fill:#063B59;stroke:#232323;stroke-width:0.25;stroke-miterlimit:10;}
	.st51{font-size:4.8189px;}
	.st52{font-size:2.8346px;}
</style>
<desc>
	<referenceFile>Sunfounder_4_Channel_Relay_breadboard.svg</referenceFile>
</desc>
<g>
	<path class="st0" d="M141.7,205.3c0,4.3-3.2,7.9-7.1,7.9H7.1c-3.9,0-7.1-3.5-7.1-7.9V8.9C0,4.6,3.2,1,7.1,1h127.6
		c3.9,0,7.1,3.5,7.1,7.9v196.4L141.7,205.3L141.7,205.3z"/>
</g>
<path id="Breadboard" class="st1" d="M6.9,0C3,0-0.2,3.6-0.2,7.9v197.3c0,4.4,3.2,7.9,7.1,7.9h127.6c3.9,0,7.1-3.6,7.1-7.9V7.9
	c0-4.4-3.2-7.9-7.1-7.9C134.4,0,6.9,0,6.9,0z M8,209.2c-2.4,0-4.4-2-4.4-4.4s2-4.4,4.4-4.4s4.4,2,4.4,4.4S10.4,209.2,8,209.2z
	 M8.6,12.2c-2.4,0-4.4-2-4.4-4.4s2-4.4,4.4-4.4s4.4,2,4.4,4.4S11,12.2,8.6,12.2z M11,166.5c-0.9,0-1.5-0.7-1.5-1.5s0.6-1.5,1.5-1.5
	s1.5,0.7,1.5,1.5C12.4,165.8,11.8,166.5,11,166.5z M11,159.4c-0.9,0-1.5-0.7-1.5-1.5s0.6-1.5,1.5-1.5s1.5,0.7,1.5,1.5
	S11.9,159.4,11,159.4z M11,152.2c-0.9,0-1.5-0.7-1.5-1.5s0.6-1.5,1.5-1.5s1.5,0.7,1.5,1.5C12.4,151.5,11.8,152.2,11,152.2z M11,145
	c-0.9,0-1.5-0.7-1.5-1.5s0.6-1.5,1.5-1.5s1.5,0.7,1.5,1.5S11.9,145,11,145z M11,137.7c-0.9,0-1.5-0.7-1.5-1.5s0.6-1.5,1.5-1.5
	s1.5,0.7,1.5,1.5S11.9,137.7,11,137.7z M11,130.5c-0.9,0-1.5-0.7-1.5-1.5s0.6-1.5,1.5-1.5s1.5,0.7,1.5,1.5S11.9,130.5,11,130.5z
	 M30.3,200.1c-0.9,0-1.5-0.7-1.5-1.5s0.6-1.5,1.5-1.5s1.5,0.7,1.5,1.5C31.8,199.4,31.2,200.1,30.3,200.1z M37.6,200.2
	c-0.9,0-1.5-0.7-1.5-1.5s0.6-1.5,1.5-1.5s1.5,0.7,1.5,1.5C39,199.5,38.3,200.2,37.6,200.2z M132.4,210.1c-2.4,0-4.4-2-4.4-4.4
	s2-4.4,4.4-4.4s4.4,2,4.4,4.4S134.8,210.1,132.4,210.1z M132.4,12.2c-2.4,0-4.4-2-4.4-4.4s2-4.4,4.4-4.4s4.4,2,4.4,4.4
	S134.8,12.2,132.4,12.2z"/>
<g id="RelayConnectors">
	<g id="Relay1Connectors">
		<g>
			<g transform="matrix(0.24 0 0 0.24 112.6685 6.7148)">
			</g>
			<g>
				<rect x="111.9" y="18.3" class="st2" width="22.7" height="42.5"/>
			</g>
		</g>
		<g class="st3">
			<g transform="matrix(0.24 0 0 0.24 89.0024 -7.6636)" class="st4">
			</g>
		</g>
		<g class="st3">
			<g transform="matrix(0.24 0 0 0.24 89.0327 5.8647)" class="st4">
			</g>
		</g>
		<g class="st3">
			<g transform="matrix(0.24 0 0 0.24 88.9751 -20.8003)" class="st4">
			</g>
		</g>
		<path class="st5" d="M116.5,18.3v42.5h18.2V18.3H116.5z M125.3,20.7c2.4,0,4.3,1.9,4.3,4.3c0,2.3-1.9,4.3-4.3,4.3S121,27.4,121,25
			S122.9,20.7,125.3,20.7z M125.3,57.9c-2.4,0-4.3-1.9-4.3-4.3c0-2.3,1.9-4.3,4.3-4.3s4.3,1.9,4.3,4.3S127.7,57.9,125.3,57.9z
			 M131,46.8h-10.9c-0.4,0-0.7-0.2-0.7-0.5s0.3-0.5,0.7-0.5H131c0.4,0,0.7,0.2,0.7,0.5S131.4,46.8,131,46.8z M121.1,39
			c0-2.3,1.9-4.3,4.3-4.3s4.3,1.9,4.3,4.3c0,2.3-1.9,4.3-4.3,4.3C123,43.3,121.1,41.4,121.1,39z M131,32.3h-10.9
			c-0.4,0-0.7-0.2-0.7-0.5c0-0.3,0.3-0.5,0.7-0.5H131c0.4,0,0.7,0.2,0.7,0.5C131.7,32.1,131.4,32.3,131,32.3z"/>
		<g>
			<g transform="matrix(0.9705 0.241 -0.241 0.9705 8.4417 -30.5286)">
				<g>
					
						<ellipse transform="matrix(-0.9705 0.241 -0.241 -0.9705 256.1413 19.8002)" class="st6" cx="126.9" cy="25.6" rx="3.9" ry="3.9"/>
				</g>
			</g>
			<g class="st3">
				<g transform="matrix(0.24 0 0 0.24 89.063 -20.7358)" class="st4">
				</g>
			</g>
			<g class="st3">
				<g transform="matrix(0.24 0 0 0.24 92.52 -20.48)" class="st4">
				</g>
			</g>
			<g transform="matrix(0.9706 0.2406 -0.2406 0.9706 8.4212 -30.4788)">
				<g>
					<polygon class="st7" points="126.5,21.8 127.6,21.7 127.1,29.5 126,29.6 					"/>
				</g>
			</g>
			<ellipse id="connector16pin" class="st8" cx="125.3" cy="24.9" rx="3.9" ry="3.9"/>
		</g>
		<g>
			<g transform="matrix(0.9939 0.1099 -0.1099 0.9939 4.3429 -13.9956)">
				<g>
					
						<ellipse transform="matrix(-0.9939 0.1099 -0.1099 -0.9939 255.9848 64.8584)" class="st6" cx="126.2" cy="39.5" rx="3.9" ry="3.9"/>
				</g>
			</g>
			<g class="st3">
				<g transform="matrix(0.24 0 0 0.24 89.1216 -7.6001)" class="st4">
				</g>
			</g>
			<g class="st3">
				<g transform="matrix(0.24 0 0 0.24 93.1069 -7.4976)" class="st4">
				</g>
			</g>
			<g transform="matrix(0.9939 0.1101 -0.1101 0.9939 4.3505 -14.016)">
				<g>
					<polygon class="st7" points="125.7,35.6 126.8,35.5 126.6,43.3 125.5,43.3 					"/>
				</g>
			</g>
			<ellipse id="connector17pin" class="st8" cx="125.4" cy="39" rx="3.9" ry="3.9"/>
		</g>
		<g>
			<g transform="matrix(0.3601 0.9329 -0.9329 0.3601 125.3815 -90.9834)">
				<g>
					
						<ellipse transform="matrix(-0.3601 0.9329 -0.9329 -0.3601 232.0724 -54.9044)" class="st6" cx="134.9" cy="52.1" rx="3.8" ry="3.8"/>
				</g>
			</g>
			<g class="st3">
				<g transform="matrix(0.24 0 0 0.24 89.0386 5.9517)" class="st4">
				</g>
			</g>
			<g class="st3">
				<g transform="matrix(0.24 0 0 0.24 89.4966 8.9214)" class="st4">
				</g>
			</g>
			<g transform="matrix(0.3611 0.9325 -0.9325 0.3611 125.2378 -90.9798)">
				<g>
					<polygon class="st7" points="134.5,48.1 135.3,48.1 135.3,56.1 134.4,56.1 					"/>
				</g>
			</g>
			<ellipse id="connector18pin" class="st8" cx="125.4" cy="53.6" rx="3.9" ry="3.9"/>
		</g>
	</g>
	<g id="Relay2Connectors">
		<g>
			<g transform="matrix(0.24 0 0 0.24 112.6685 51.9297)">
			</g>
			<g>
				<rect x="111.9" y="60.8" class="st2" width="22.7" height="42.5"/>
			</g>
		</g>
		<g class="st3">
			<g transform="matrix(0.24 0 0 0.24 89.0024 37.5508)" class="st4">
			</g>
		</g>
		<g class="st3">
			<g transform="matrix(0.24 0 0 0.24 89.0327 51.0801)" class="st4">
			</g>
		</g>
		<g class="st3">
			<g transform="matrix(0.24 0 0 0.24 88.9751 24.4146)" class="st4">
			</g>
		</g>
		<path class="st5" d="M116.5,60.8v42.5h18.2V60.8H116.5z M125.3,63.2c2.4,0,4.3,1.9,4.3,4.3s-1.9,4.3-4.3,4.3s-4.3-1.9-4.3-4.3
			S122.9,63.2,125.3,63.2z M125.3,100.4c-2.4,0-4.3-1.9-4.3-4.3s1.9-4.3,4.3-4.3s4.3,1.9,4.3,4.3S127.7,100.4,125.3,100.4z
			 M131,89.3h-10.9c-0.4,0-0.7-0.2-0.7-0.5s0.3-0.5,0.7-0.5H131c0.4,0,0.7,0.2,0.7,0.5C131.7,89.1,131.4,89.3,131,89.3z M121.1,81.6
			c0-2.3,1.9-4.3,4.3-4.3s4.3,1.9,4.3,4.3c0,2.3-1.9,4.3-4.3,4.3C123,85.8,121.1,83.9,121.1,81.6z M131,74.8h-10.9
			c-0.4,0-0.7-0.2-0.7-0.5s0.3-0.5,0.7-0.5H131c0.4,0,0.7,0.2,0.7,0.5C131.7,74.6,131.4,74.8,131,74.8z"/>
		<g>
			<g transform="matrix(0.9705 0.241 -0.241 0.9705 19.333 -29.1884)">
				<g>
					
						<ellipse transform="matrix(-0.9705 0.241 -0.241 -0.9705 265.0363 104.0549)" class="st6" cx="126.2" cy="68.2" rx="3.9" ry="3.9"/>
				</g>
			</g>
			<g class="st3">
				<g transform="matrix(0.24 0 0 0.24 89.063 24.479)" class="st4">
				</g>
			</g>
			<g class="st3">
				<g transform="matrix(0.24 0 0 0.24 92.52 24.7349)" class="st4">
				</g>
			</g>
			<g transform="matrix(0.9705 0.2412 -0.2412 0.9705 19.3536 -29.2124)">
				<g>
					<polygon class="st7" points="125.8,64.4 126.9,64.3 126.5,72.1 125.4,72.2 					"/>
				</g>
			</g>
			<ellipse id="connector19pin" class="st8" cx="125.3" cy="67.4" rx="3.9" ry="3.9"/>
		</g>
		<g>
			<g transform="matrix(0.9939 0.1101 -0.1101 0.9939 9.3267 -13.7378)">
				<g>
					
						<ellipse transform="matrix(-0.9939 0.1101 -0.1101 -0.9939 259.9796 149.6088)" class="st6" cx="125.9" cy="82" rx="3.9" ry="3.9"/>
				</g>
			</g>
			<g class="st3">
				<g transform="matrix(0.24 0 0 0.24 89.1216 37.6152)" class="st4">
				</g>
			</g>
			<g class="st3">
				<g transform="matrix(0.24 0 0 0.24 93.1069 37.7168)" class="st4">
				</g>
			</g>
			<g transform="matrix(0.9939 0.1107 -0.1107 0.9939 9.3821 -13.8104)">
				<g>
					<polygon class="st7" points="125.4,78.1 126.5,78.1 126.3,85.8 125.2,85.8 					"/>
				</g>
			</g>
			<ellipse id="connector20pin" class="st8" cx="125.4" cy="81.6" rx="3.9" ry="3.9"/>
		</g>
		<g>
			<g transform="matrix(0.3601 0.9329 -0.9329 0.3601 167.5658 -62.0516)">
				<g>
					
						<ellipse transform="matrix(-0.3601 0.9329 -0.9329 -0.3601 269.8588 7.6768)" class="st6" cx="132.3" cy="96.4" rx="3.8" ry="3.8"/>
				</g>
			</g>
			<g class="st3">
				<g transform="matrix(0.24 0 0 0.24 89.0386 51.167)" class="st4">
				</g>
			</g>
			<g class="st3">
				<g transform="matrix(0.24 0 0 0.24 89.4966 54.1367)" class="st4">
				</g>
			</g>
			<g transform="matrix(0.3609 0.9326 -0.9326 0.3609 167.4337 -62.0851)">
				<g>
					<polygon class="st7" points="131.9,92.4 132.8,92.4 132.8,100.3 131.8,100.3 					"/>
				</g>
			</g>
			<ellipse id="connector21pin" class="st8" cx="125.4" cy="96.1" rx="3.9" ry="3.9"/>
		</g>
	</g>
	<g id="Relay3Connectors">
		<g>
			<g transform="matrix(0.24 0 0 0.24 112.6685 96.9951)">
			</g>
			<g>
				<rect x="112" y="112.7" class="st2" width="22.7" height="42.5"/>
			</g>
		</g>
		<g class="st3">
			<g transform="matrix(0.24 0 0 0.24 89.0024 82.6162)" class="st4">
			</g>
		</g>
		<g class="st3">
			<g transform="matrix(0.24 0 0 0.24 89.0327 96.1455)" class="st4">
			</g>
		</g>
		<g class="st3">
			<g transform="matrix(0.24 0 0 0.24 88.9751 69.48)" class="st4">
			</g>
		</g>
		<path class="st5" d="M116.5,112.7v42.5h18.2v-42.5C134.6,112.7,116.5,112.7,116.5,112.7z M125.4,115c2.4,0,4.3,1.9,4.3,4.3
			s-1.9,4.3-4.3,4.3s-4.3-1.9-4.3-4.3S123,115,125.4,115z M125.4,152.2c-2.4,0-4.3-1.9-4.3-4.3c0-2.4,1.9-4.3,4.3-4.3
			s4.3,1.9,4.3,4.3S127.8,152.2,125.4,152.2z M131,141.2h-10.9c-0.4,0-0.7-0.2-0.7-0.5s0.3-0.5,0.7-0.5H131c0.4,0,0.7,0.2,0.7,0.5
			C131.8,140.9,131.4,141.2,131,141.2z M121.1,133.4c0-2.3,1.9-4.3,4.3-4.3s4.3,1.9,4.3,4.3c0,2.3-1.9,4.3-4.3,4.3
			C123,137.6,121.1,135.7,121.1,133.4z M131,126.7h-10.9c-0.4,0-0.7-0.2-0.7-0.5s0.3-0.5,0.7-0.5H131c0.4,0,0.7,0.2,0.7,0.5
			C131.8,126.4,131.4,126.7,131,126.7z"/>
		<g>
			<g transform="matrix(0.9705 0.241 -0.241 0.9705 30.1916 -27.8606)">
				<g>
					
						<ellipse transform="matrix(-0.9705 0.241 -0.241 -0.9705 280.8926 205.4498)" class="st6" cx="127.9" cy="119.9" rx="3.9" ry="3.9"/>
				</g>
			</g>
			<g class="st3">
				<g transform="matrix(0.24 0 0 0.24 89.063 69.5444)" class="st4">
				</g>
			</g>
			<g class="st3">
				<g transform="matrix(0.24 0 0 0.24 92.52 69.8003)" class="st4">
				</g>
			</g>
			<g transform="matrix(0.9705 0.2412 -0.2412 0.9705 30.2218 -27.8822)">
				<g>
					<polygon class="st7" points="127.5,116 128.6,115.9 128.2,123.7 127,123.8 					"/>
				</g>
			</g>
			<ellipse id="connector22pin" class="st8" cx="125.4" cy="119.3" rx="3.9" ry="3.9"/>
		</g>
		<g>
			<g transform="matrix(0.9939 0.1101 -0.1101 0.9939 14.2878 -13.4639)">
				<g>
					
						<ellipse transform="matrix(-0.9939 0.1101 -0.1101 -0.9939 267.2481 252.7932)" class="st6" cx="126.6" cy="133.8" rx="3.9" ry="3.9"/>
				</g>
			</g>
			<g class="st3">
				<g transform="matrix(0.24 0 0 0.24 89.1216 82.6807)" class="st4">
				</g>
			</g>
			<g class="st3">
				<g transform="matrix(0.24 0 0 0.24 93.1069 82.7822)" class="st4">
				</g>
			</g>
			<g transform="matrix(0.9939 0.1107 -0.1107 0.9939 14.3703 -13.5335)">
				<g>
					<polygon class="st7" points="126.2,129.9 127.3,129.9 127.1,137.6 126,137.6 					"/>
				</g>
			</g>
			<ellipse id="connector23pin" class="st8" cx="125.4" cy="133.4" rx="3.9" ry="3.9"/>
		</g>
		<g>
			<g transform="matrix(0.3601 0.9329 -0.9329 0.3601 209.6076 -33.2151)">
				<g>
					
						<ellipse transform="matrix(-0.3601 0.9329 -0.9329 -0.3601 322.8836 66.3835)" class="st6" cx="138.7" cy="143.9" rx="3.8" ry="3.8"/>
				</g>
			</g>
			<g class="st3">
				<g transform="matrix(0.24 0 0 0.24 89.0386 96.2324)" class="st4">
				</g>
			</g>
			<g class="st3">
				<g transform="matrix(0.24 0 0 0.24 89.4966 99.2021)" class="st4">
				</g>
			</g>
			<g transform="matrix(0.3609 0.9326 -0.9326 0.3609 209.4614 -33.2851)">
				<g>
					<polygon class="st7" points="138.2,139.9 139.1,139.8 139.1,147.8 138.2,147.9 					"/>
				</g>
			</g>
			<ellipse id="connector24pin" class="st8" cx="125.4" cy="147.9" rx="3.9" ry="3.9"/>
		</g>
	</g>
	<g id="Relay4Connectors">
		<g>
			<g transform="matrix(0.24 0 0 0.24 112.6685 142.2051)">
			</g>
			<g>
				<rect x="112" y="155.2" class="st2" width="22.7" height="42.5"/>
			</g>
		</g>
		<g class="st3">
			<g transform="matrix(0.24 0 0 0.24 89.0024 127.8262)" class="st4">
			</g>
		</g>
		<g class="st3">
			<g transform="matrix(0.24 0 0 0.24 89.0327 141.3555)" class="st4">
			</g>
		</g>
		<g class="st3">
			<g transform="matrix(0.24 0 0 0.24 88.9751 114.6904)" class="st4">
			</g>
		</g>
		<path class="st5" d="M116.5,155.2v42.5h18.2v-42.5H116.5L116.5,155.2z M125.4,157.6c2.4,0,4.3,1.9,4.3,4.3c0,2.3-1.9,4.3-4.3,4.3
			s-4.3-1.9-4.3-4.3C121.1,159.5,123,157.6,125.4,157.6z M125.4,194.8c-2.4,0-4.3-1.9-4.3-4.3c0-2.4,1.9-4.3,4.3-4.3
			s4.3,1.9,4.3,4.3C129.7,192.9,127.8,194.8,125.4,194.8z M131,183.8h-10.9c-0.4,0-0.7-0.2-0.7-0.5s0.3-0.5,0.7-0.5H131
			c0.4,0,0.7,0.2,0.7,0.5C131.8,183.5,131.4,183.8,131,183.8z M121.1,176c0-2.3,1.9-4.3,4.3-4.3s4.3,1.9,4.3,4.3
			c0,2.3-1.9,4.3-4.3,4.3C123,180.2,121.1,178.3,121.1,176z M131,169.3h-10.9c-0.4,0-0.7-0.2-0.7-0.5s0.3-0.5,0.7-0.5H131
			c0.4,0,0.7,0.2,0.7,0.5C131.8,169,131.4,169.3,131,169.3z"/>
		<g>
			<g transform="matrix(0.9705 0.241 -0.241 0.9705 41.085 -26.5286)">
				<g>
					
						<ellipse transform="matrix(-0.9705 0.241 -0.241 -0.9705 289.6367 289.7006)" class="st6" cx="127.1" cy="162.6" rx="3.9" ry="3.9"/>
				</g>
			</g>
			<g class="st3">
				<g transform="matrix(0.24 0 0 0.24 89.063 114.7549)" class="st4">
				</g>
			</g>
			<g class="st3">
				<g transform="matrix(0.24 0 0 0.24 92.52 115.0107)" class="st4">
				</g>
			</g>
			<g transform="matrix(0.9705 0.2412 -0.2412 0.9705 41.1248 -26.5478)">
				<g>
					<polygon class="st7" points="126.9,158.6 128,158.6 127.5,166.4 126.4,166.5 					"/>
				</g>
			</g>
			<ellipse id="connector25pin" class="st8" cx="125.4" cy="161.9" rx="3.9" ry="3.9"/>
		</g>
		<g>
			<g transform="matrix(0.9939 0.1101 -0.1101 0.9939 19.2647 -13.1892)">
				<g>
					
						<ellipse transform="matrix(-0.9939 0.1101 -0.1101 -0.9939 271.1125 337.7254)" class="st6" cx="126.2" cy="176.3" rx="3.9" ry="3.9"/>
				</g>
			</g>
			<g class="st3">
				<g transform="matrix(0.24 0 0 0.24 89.1216 127.8906)" class="st4">
				</g>
			</g>
			<g class="st3">
				<g transform="matrix(0.24 0 0 0.24 93.1069 127.9922)" class="st4">
				</g>
			</g>
			<g transform="matrix(0.9939 0.1107 -0.1107 0.9939 19.3744 -13.2557)">
				<g>
					<polygon class="st7" points="125.9,172.5 127,172.5 126.8,180.2 125.7,180.2 					"/>
				</g>
			</g>
			<ellipse id="connector26pin" class="st8" cx="125.4" cy="176" rx="3.9" ry="3.9"/>
		</g>
		<g>
			<g transform="matrix(0.3601 0.9329 -0.9329 0.3601 251.7843 -4.2861)">
				<g>
					
						<ellipse transform="matrix(-0.3601 0.9329 -0.9329 -0.3601 360.5889 128.8295)" class="st6" cx="136.1" cy="188.1" rx="3.8" ry="3.8"/>
				</g>
			</g>
			<g class="st3">
				<g transform="matrix(0.24 0 0 0.24 89.0386 141.4424)" class="st4">
				</g>
			</g>
			<g class="st3">
				<g transform="matrix(0.24 0 0 0.24 89.4966 144.4121)" class="st4">
				</g>
			</g>
			<g transform="matrix(0.3609 0.9326 -0.9326 0.3609 251.6239 -4.3927)">
				<g>
					<polygon class="st7" points="135.8,184.2 136.7,184.1 136.7,192.1 135.7,192.1 					"/>
				</g>
			</g>
			<ellipse id="connector27pin" class="st8" cx="125.4" cy="190.5" rx="3.9" ry="3.9"/>
		</g>
	</g>
</g>
<g id="Comps">
	<g id="Relay1Comps">
		<g>
			<rect x="46.6" y="41.3" class="st9" width="2.6" height="0.4"/>
			<rect x="46.6" y="34.5" class="st9" width="2.6" height="0.4"/>
			<rect x="46.7" y="34.9" class="st10" width="2.3" height="4"/>
			<rect x="46.7" y="40.2" class="st11" width="2.3" height="1.1"/>
			<rect x="46.7" y="38.9" class="st12" width="2.3" height="1.3"/>
		</g>
		<g>
			<rect x="8.9" y="51.4" class="st13" width="2.9" height="5.2"/>
			<polyline class="st14" points="11.5,53 10.7,53 10.4,52.6 			"/>
			<polyline class="st14" points="11.5,54.5 10.3,54.5 10,54.1 9.5,53.3 			"/>
			<line class="st14" x1="9.7" y1="55.1" x2="10" y2="54.1"/>
			<rect x="8.9" y="56.2" class="st15" width="2.9" height="0.5"/>
			<rect x="8.9" y="51.4" class="st15" width="2.9" height="0.5"/>
			<polyline class="st16" points="10.9,56.7 10,56.7 10.5,56.3 			"/>
			<polyline class="st16" points="10,51.4 10.9,51.4 10.5,51.8 			"/>
			<g>
				<rect x="11.5" y="55.1" class="st17" width="0.3" height="0.6"/>
				<rect x="8.9" y="55.1" class="st17" width="0.3" height="0.6"/>
			</g>
		</g>
		<g>
			<rect x="37.3" y="36.4" class="st18" width="2.1" height="4.6"/>
			<rect x="37.3" y="36.4" class="st19" width="2.1" height="0.7"/>
			<rect x="37.3" y="40.3" class="st19" width="2.1" height="0.7"/>
		</g>
		<g>
			<rect x="45.5" y="19" class="st20" width="2.4" height="5.5"/>
			<polyline class="st21" points="45.5,19 45.4,18.7 48.1,18.7 47.9,19 			"/>
			<polygon class="st22" points="45.4,24.8 48.1,24.8 47.9,24.5 45.5,24.5 			"/>
			<polygon class="st23" points="48.1,24.8 47.9,24.5 47.9,19 48.1,18.7 48.1,24.7 			"/>
			<polygon class="st23" points="45.4,24.8 45.5,24.5 45.5,19 45.4,18.7 45.4,24.7 			"/>
			<rect x="48.1" y="21.3" class="st24" width="1.2" height="1.1"/>
			<rect x="44.3" y="19.2" class="st24" width="1" height="1"/>
			<rect x="44.3" y="23.4" class="st24" width="1" height="0.9"/>
			<rect x="48.4" y="21.3" class="st25" width="0.4" height="1.1"/>
			<rect x="44.8" y="19.2" class="st25" width="0.3" height="1"/>
			<rect x="44.8" y="23.4" class="st25" width="0.3" height="0.9"/>
		</g>
		<g>
			<rect x="37.2" y="19.8" class="st18" width="2.1" height="4.6"/>
			<rect x="37.2" y="19.8" class="st19" width="2.1" height="0.7"/>
			<rect x="37.2" y="23.7" class="st19" width="2.1" height="0.7"/>
		</g>
		<g>
			<g>
				<g>
					<rect x="22.9" y="38.7" class="st24" width="1.4" height="3.3"/>
					<rect x="22.9" y="40" class="st26" width="1.4" height="0.8"/>
				</g>
				<g>
					<rect x="27.3" y="38.7" class="st24" width="1.4" height="3.3"/>
					<rect x="27.3" y="40" class="st26" width="1.4" height="0.8"/>
				</g>
			</g>
			<g>
				<g>
					<rect x="27.4" y="23.4" class="st24" width="1.4" height="3.2"/>
					<rect x="27.4" y="24.5" class="st26" width="1.4" height="0.8"/>
				</g>
				<g>
					<rect x="22.9" y="23.4" class="st24" width="1.4" height="3.2"/>
					<rect x="22.9" y="24.5" class="st26" width="1.4" height="0.8"/>
				</g>
			</g>
			<g>
				<g transform="matrix(0.24 0 0 0.24 17.3657 34.353)">
				</g>
				<g>
					<rect x="21.8" y="26.6" class="st18" width="7.9" height="12.1"/>
				</g>
			</g>
			<g>
				<rect x="21.8" y="26.6" class="st27" width="7.9" height="12.1"/>
				<circle class="st21" cx="23.5" cy="36.5" r="0.7"/>
				<polygon class="st23" points="29.5,38.2 22,38.2 21.8,38.7 29.7,38.7 				"/>
				<polygon class="st22" points="29.5,38.2 29.7,38.7 29.7,26.6 29.5,27 				"/>
				<polygon class="st21" points="21.8,38.7 22,38.2 22,27 21.8,26.6 				"/>
				<polygon class="st23" points="29.5,27 22,27 21.8,26.6 29.7,26.6 				"/>
			</g>
		</g>
	</g>
	<g id="Relay2Comps">
		<g>
			<rect x="46.2" y="93.5" class="st9" width="2.6" height="0.4"/>
			<rect x="46.2" y="86.7" class="st9" width="2.6" height="0.4"/>
			<rect x="46.4" y="87.1" class="st10" width="2.3" height="4"/>
			<rect x="46.4" y="92.4" class="st11" width="2.3" height="1.1"/>
			<rect x="46.4" y="91.1" class="st12" width="2.3" height="1.3"/>
		</g>
		<g>
			<rect x="8.9" y="70.3" class="st13" width="2.9" height="5.2"/>
			<polyline class="st14" points="11.5,71.9 10.7,71.9 10.4,71.5 			"/>
			<polyline class="st14" points="11.5,73.4 10.3,73.4 10,72.9 9.5,72.2 			"/>
			<line class="st14" x1="9.7" y1="74" x2="10" y2="72.9"/>
			<rect x="8.9" y="75.1" class="st15" width="2.9" height="0.5"/>
			<rect x="8.9" y="70.3" class="st15" width="2.9" height="0.5"/>
			<polyline class="st16" points="10.9,75.6 10,75.6 10.5,75.2 			"/>
			<polyline class="st16" points="10,70.3 10.9,70.3 10.5,70.7 			"/>
			<g>
				<rect x="11.5" y="74" class="st17" width="0.3" height="0.6"/>
				<rect x="8.9" y="74" class="st17" width="0.3" height="0.6"/>
			</g>
		</g>
		<g>
			<rect x="37.2" y="70.4" class="st18" width="2.1" height="4.6"/>
			<rect x="37.2" y="70.4" class="st19" width="2.1" height="0.7"/>
			<rect x="37.2" y="74.3" class="st19" width="2.1" height="0.7"/>
		</g>
		<g>
			<rect x="37.2" y="88.7" class="st18" width="2.1" height="4.6"/>
			<rect x="37.2" y="88.7" class="st19" width="2.1" height="0.7"/>
			<rect x="37.2" y="92.6" class="st19" width="2.1" height="0.7"/>
		</g>
		<g>
			<rect x="45.5" y="70.1" class="st20" width="2.4" height="5.5"/>
			<polyline class="st21" points="45.5,70.1 45.4,69.8 48.1,69.8 47.9,70.1 			"/>
			<polygon class="st22" points="45.4,76 48.1,76 47.9,75.6 45.5,75.6 			"/>
			<polygon class="st23" points="48.1,76 47.9,75.6 47.9,70.1 48.1,69.8 48.1,75.9 			"/>
			<polygon class="st23" points="45.4,76 45.5,75.6 45.5,70.1 45.4,69.8 45.4,75.9 			"/>
			<rect x="48.1" y="72.4" class="st24" width="1.2" height="1.1"/>
			<rect x="44.3" y="70.4" class="st24" width="1" height="1"/>
			<rect x="44.3" y="74.6" class="st24" width="1" height="0.9"/>
			<rect x="48.4" y="72.4" class="st25" width="0.4" height="1.1"/>
			<rect x="44.8" y="70.4" class="st25" width="0.3" height="1"/>
			<rect x="44.8" y="74.6" class="st25" width="0.3" height="0.9"/>
		</g>
		<g>
			<g>
				<g>
					<rect x="22.9" y="88.4" class="st24" width="1.4" height="3.3"/>
					<rect x="22.9" y="89.7" class="st26" width="1.4" height="0.8"/>
				</g>
				<g>
					<rect x="27.3" y="88.4" class="st24" width="1.4" height="3.3"/>
					<rect x="27.3" y="89.7" class="st26" width="1.4" height="0.8"/>
				</g>
			</g>
			<g>
				<g>
					<rect x="27.4" y="73.2" class="st24" width="1.4" height="3.2"/>
					<rect x="27.4" y="74.3" class="st26" width="1.4" height="0.8"/>
				</g>
				<g>
					<rect x="22.9" y="73.2" class="st24" width="1.4" height="3.2"/>
					<rect x="22.9" y="74.3" class="st26" width="1.4" height="0.8"/>
				</g>
			</g>
			<g>
				<g transform="matrix(0.24 0 0 0.24 18.2183 77.3267)">
				</g>
				<g>
					<rect x="21.8" y="76.3" class="st18" width="7.9" height="12.1"/>
				</g>
			</g>
			<g>
				<rect x="21.8" y="76.3" class="st27" width="7.9" height="12.1"/>
				<circle class="st21" cx="23.5" cy="86.2" r="0.7"/>
				<polygon class="st23" points="29.5,88 22,88 21.8,88.4 29.7,88.4 				"/>
				<polygon class="st22" points="29.5,88 29.7,88.4 29.7,76.3 29.5,76.8 				"/>
				<polygon class="st21" points="21.8,88.4 22,88 22,76.8 21.8,76.3 				"/>
				<polygon class="st23" points="29.5,76.8 22,76.8 21.8,76.3 29.7,76.3 				"/>
			</g>
		</g>
	</g>
	<g id="Relay3Comps">
		<g>
			<rect x="46" y="141.8" class="st9" width="2.6" height="0.4"/>
			<rect x="46" y="135" class="st9" width="2.6" height="0.4"/>
			<rect x="46.2" y="135.5" class="st10" width="2.3" height="4"/>
			<rect x="46.2" y="140.7" class="st11" width="2.3" height="1.1"/>
			<rect x="46.2" y="139.5" class="st12" width="2.3" height="1.3"/>
		</g>
		<g>
			<rect x="8.8" y="88.3" class="st13" width="2.9" height="5.2"/>
			<polyline class="st14" points="11.4,89.9 10.7,89.9 10.3,89.7 			"/>
			<polyline class="st14" points="11.4,91.4 10.2,91.4 9.9,91.1 9.4,90.3 			"/>
			<line class="st14" x1="9.6" y1="92.1" x2="9.9" y2="91.1"/>
			<rect x="8.8" y="93.2" class="st15" width="2.9" height="0.5"/>
			<rect x="8.8" y="88.3" class="st15" width="2.9" height="0.5"/>
			<polyline class="st16" points="10.9,93.7 9.9,93.7 10.4,93.3 			"/>
			<polyline class="st16" points="9.9,88.3 10.9,88.3 10.4,88.8 			"/>
			<g>
				<rect x="11.4" y="92.1" class="st17" width="0.3" height="0.6"/>
				<rect x="8.8" y="92.1" class="st17" width="0.3" height="0.6"/>
			</g>
		</g>
		<g>
			<rect x="37.3" y="117.7" class="st18" width="2.1" height="4.6"/>
			<rect x="37.3" y="117.7" class="st19" width="2.1" height="0.7"/>
			<rect x="37.3" y="121.6" class="st19" width="2.1" height="0.7"/>
		</g>
		<g>
			<rect x="37.1" y="136.6" class="st18" width="2.1" height="4.6"/>
			<rect x="37.1" y="136.6" class="st19" width="2.1" height="0.7"/>
			<rect x="37.1" y="140.5" class="st19" width="2.1" height="0.7"/>
		</g>
		<g>
			<rect x="45.5" y="117.1" class="st20" width="2.4" height="5.5"/>
			<polyline class="st21" points="45.5,117.1 45.4,116.8 48.1,116.8 47.9,117.1 			"/>
			<polygon class="st22" points="45.4,123 48.1,123 47.9,122.6 45.5,122.6 			"/>
			<polygon class="st23" points="48.1,123 47.9,122.6 47.9,117.1 48.1,116.8 48.1,122.9 			"/>
			<polygon class="st23" points="45.4,123 45.5,122.6 45.5,117.1 45.4,116.8 45.4,122.9 			"/>
			<rect x="48.1" y="119.4" class="st24" width="1.2" height="1.1"/>
			<rect x="44.3" y="117.4" class="st24" width="1" height="1"/>
			<rect x="44.3" y="121.6" class="st24" width="1" height="0.9"/>
			<rect x="48.4" y="119.4" class="st25" width="0.4" height="1.1"/>
			<rect x="44.8" y="117.4" class="st25" width="0.3" height="1"/>
			<rect x="44.8" y="121.6" class="st25" width="0.3" height="0.9"/>
		</g>
		<g>
			<g>
				<g>
					<rect x="22.9" y="137.4" class="st24" width="1.4" height="3.3"/>
					<rect x="22.9" y="138.7" class="st26" width="1.4" height="0.8"/>
				</g>
				<g>
					<rect x="27.3" y="137.4" class="st24" width="1.4" height="3.3"/>
					<rect x="27.3" y="138.7" class="st26" width="1.4" height="0.8"/>
				</g>
			</g>
			<g>
				<g>
					<rect x="27.4" y="122.2" class="st24" width="1.4" height="3.2"/>
					<rect x="27.4" y="123.3" class="st26" width="1.4" height="0.8"/>
				</g>
				<g>
					<rect x="22.9" y="122.2" class="st24" width="1.4" height="3.2"/>
					<rect x="22.9" y="123.3" class="st26" width="1.4" height="0.8"/>
				</g>
			</g>
			<g>
				<g transform="matrix(0.24 0 0 0.24 17.9741 120.9795)">
				</g>
				<g>
					<rect x="21.8" y="125.4" class="st18" width="7.9" height="12.1"/>
				</g>
			</g>
			<g>
				<rect x="21.8" y="125.4" class="st27" width="7.9" height="12.1"/>
				<circle class="st21" cx="23.5" cy="135.2" r="0.7"/>
				<polygon class="st23" points="29.5,137 22,137 21.8,137.4 29.7,137.4 				"/>
				<polygon class="st22" points="29.5,137 29.7,137.4 29.7,125.4 29.5,125.8 				"/>
				<polygon class="st21" points="21.8,137.4 22,137 22,125.8 21.8,125.4 				"/>
				<polygon class="st23" points="29.5,125.8 22,125.8 21.8,125.4 29.7,125.4 				"/>
			</g>
		</g>
	</g>
	<g id="Relay4Comps">
		<g>
			<rect x="46" y="189" class="st9" width="2.6" height="0.4"/>
			<rect x="46" y="182.2" class="st9" width="2.6" height="0.4"/>
			<rect x="46.2" y="182.6" class="st10" width="2.3" height="4"/>
			<rect x="46.2" y="187.9" class="st11" width="2.3" height="1.1"/>
			<rect x="46.2" y="186.6" class="st12" width="2.3" height="1.3"/>
		</g>
		<g>
			<rect x="8.8" y="107.3" class="st13" width="2.9" height="5"/>
			<polyline class="st28" points="11.3,108.9 10.6,108.9 10.2,108.5 			"/>
			<polyline class="st28" points="11.3,110.3 10.2,110.3 9.9,109.9 9.4,109.1 			"/>
			<line class="st28" x1="9.6" y1="110.9" x2="9.9" y2="109.9"/>
			<rect x="8.8" y="111.9" class="st15" width="2.9" height="0.4"/>
			<rect x="8.8" y="107.3" class="st15" width="2.9" height="0.4"/>
			<polyline class="st16" points="10.8,112.4 9.9,112.4 10.3,112 			"/>
			<polyline class="st16" points="9.9,107.3 10.8,107.3 10.3,107.7 			"/>
			<g>
				<rect x="11.3" y="110.9" class="st17" width="0.3" height="0.5"/>
				<rect x="8.8" y="110.9" class="st17" width="0.3" height="0.5"/>
			</g>
		</g>
		<g>
			<rect x="37.3" y="166.5" class="st18" width="2.1" height="4.6"/>
			<rect x="37.3" y="166.5" class="st19" width="2.1" height="0.7"/>
			<rect x="37.3" y="170.4" class="st19" width="2.1" height="0.7"/>
		</g>
		<g>
			<rect x="37.1" y="182.9" class="st18" width="2.1" height="4.6"/>
			<rect x="37.1" y="182.9" class="st19" width="2.1" height="0.7"/>
			<rect x="37.1" y="186.8" class="st19" width="2.1" height="0.7"/>
		</g>
		<g>
			<rect x="45.5" y="166.6" class="st20" width="2.4" height="5.5"/>
			<polyline class="st21" points="45.5,166.6 45.4,166.3 48.1,166.3 47.9,166.6 			"/>
			<polygon class="st22" points="45.4,172.4 48.1,172.4 47.9,172.1 45.5,172.1 			"/>
			<polygon class="st23" points="48.1,172.4 47.9,172.1 47.9,166.6 48.1,166.3 48.1,172.3 			"/>
			<polygon class="st23" points="45.4,172.4 45.5,172.1 45.5,166.6 45.4,166.3 45.4,172.3 			"/>
			<rect x="48.1" y="168.8" class="st24" width="1.2" height="1.1"/>
			<rect x="44.3" y="166.8" class="st24" width="1" height="1"/>
			<rect x="44.3" y="171" class="st24" width="1" height="0.9"/>
			<rect x="48.4" y="168.8" class="st25" width="0.4" height="1.1"/>
			<rect x="44.8" y="166.8" class="st25" width="0.3" height="1"/>
			<rect x="44.8" y="171" class="st25" width="0.3" height="0.9"/>
		</g>
		<g>
			<g>
				<g>
					<rect x="22.9" y="186.5" class="st24" width="1.4" height="3.3"/>
					<rect x="22.9" y="187.8" class="st26" width="1.4" height="0.8"/>
				</g>
				<g>
					<rect x="27.3" y="186.5" class="st24" width="1.4" height="3.3"/>
					<rect x="27.3" y="187.8" class="st26" width="1.4" height="0.8"/>
				</g>
			</g>
			<g>
				<g>
					<rect x="27.4" y="171.2" class="st24" width="1.4" height="3.2"/>
					<rect x="27.4" y="172.3" class="st26" width="1.4" height="0.8"/>
				</g>
				<g>
					<rect x="22.9" y="171.2" class="st24" width="1.4" height="3.2"/>
					<rect x="22.9" y="172.3" class="st26" width="1.4" height="0.8"/>
				</g>
			</g>
			<g>
				<g transform="matrix(0.24 0 0 0.24 18.0352 164.4473)">
				</g>
				<g>
					<rect x="21.8" y="174.4" class="st18" width="7.9" height="12.1"/>
				</g>
			</g>
			<g>
				<rect x="21.8" y="174.4" class="st27" width="7.9" height="12.1"/>
				<circle class="st21" cx="23.5" cy="184.3" r="0.7"/>
				<polygon class="st23" points="29.5,186 22,186 21.8,186.5 29.7,186.5 				"/>
				<polygon class="st22" points="29.5,186 29.7,186.5 29.7,174.4 29.5,174.9 				"/>
				<polygon class="st21" points="21.8,186.5 22,186 22,174.9 21.8,174.4 				"/>
				<polygon class="st23" points="29.5,174.9 22,174.9 21.8,174.4 29.7,174.4 				"/>
			</g>
		</g>
	</g>
</g>
<g>
	<path id="connector8pin" class="st29" d="M11,127.1c-1.1,0-1.9,0.9-1.9,1.9s0.9,1.9,1.9,1.9c1.1,0,1.9-0.9,1.9-1.9
		S12,127.1,11,127.1z M11,130.1c-0.6,0-1.1-0.5-1.1-1.1s0.5-1.1,1.1-1.1s1.1,0.5,1.1,1.1S11.6,130.1,11,130.1z"/>
	<path id="connector9pin" class="st29" d="M11,134.2c-1.1,0-1.9,0.9-1.9,1.9S10,138,11,138c1.1,0,1.9-0.9,1.9-1.9S12,134.2,11,134.2
		z M11,137.3c-0.6,0-1.1-0.5-1.1-1.1s0.5-1.1,1.1-1.1s1.1,0.5,1.1,1.1S11.6,137.3,11,137.3z"/>
	<path id="connector10pin" class="st29" d="M11,141.5c-1.1,0-1.9,0.9-1.9,1.9s0.9,1.9,1.9,1.9c1.1,0,1.9-0.9,1.9-1.9
		S12,141.5,11,141.5z M11,144.6c-0.6,0-1.1-0.5-1.1-1.1s0.5-1.1,1.1-1.1s1.1,0.5,1.1,1.1C12.1,144,11.6,144.6,11,144.6z"/>
	<path id="connector11pin" class="st29" d="M11,148.7c-1.1,0-1.9,0.9-1.9,1.9s0.9,1.9,1.9,1.9c1.1,0,1.9-0.9,1.9-1.9
		S12,148.7,11,148.7z M11,151.8c-0.6,0-1.1-0.5-1.1-1.1s0.5-1.1,1.1-1.1s1.1,0.5,1.1,1.1S11.6,151.8,11,151.8z"/>
	<path id="connector12pin" class="st29" d="M11,155.9c-1.1,0-1.9,0.9-1.9,1.9s0.9,1.9,1.9,1.9c1.1,0,1.9-0.9,1.9-1.9
		S12,155.9,11,155.9z M11,159c-0.6,0-1.1-0.5-1.1-1.1s0.5-1.1,1.1-1.1s1.1,0.5,1.1,1.1S11.6,159,11,159z"/>
	<path id="connector13pin" class="st29" d="M11,163.1c-1.1,0-1.9,0.9-1.9,1.9s0.9,1.9,1.9,1.9c1.1,0,1.9-0.9,1.9-1.9
		S12,163.1,11,163.1z M11,166.1c-0.6,0-1.1-0.5-1.1-1.1s0.5-1.1,1.1-1.1s1.1,0.5,1.1,1.1S11.6,166.1,11,166.1z"/>
</g>
<g>
	<path id="connector15pin" class="st29" d="M37.6,196.7c-1.1,0-1.9,0.9-1.9,1.9s0.9,1.9,1.9,1.9s1.9-0.9,1.9-1.9
		S38.6,196.7,37.6,196.7z M37.6,199.8c-0.6,0-1.1-0.5-1.1-1.1s0.5-1.1,1.1-1.1s1.1,0.5,1.1,1.1S38.2,199.8,37.6,199.8z"/>
	<path id="connector14pin" class="st29" d="M30.4,196.7c-1.1,0-1.9,0.9-1.9,1.9s0.9,1.9,1.9,1.9s1.9-0.9,1.9-1.9
		S31.5,196.7,30.4,196.7z M30.4,199.8c-0.6,0-1.1-0.5-1.1-1.1s0.5-1.1,1.1-1.1s1.1,0.5,1.1,1.1S31,199.8,30.4,199.8z"/>
</g>
<g id="silkscreen">
	<g id="Led_1_Mark">
		<polyline class="st30" points="12.5,53.4 12.5,49.6 8.1,49.6 8.1,53.4 		"/>
		<polyline class="st30" points="12.5,55.3 12.5,58.6 11.7,59.4 9,59.4 8.1,58.5 8.1,55.3 		"/>
	</g>
	<g id="Led_2_Mark">
		<polyline class="st30" points="12.5,71.8 12.5,68 8.1,68 8.1,71.8 		"/>
		<polyline class="st30" points="12.5,73.7 12.5,77 11.6,77.8 9,77.8 8.1,76.9 8.1,73.7 		"/>
	</g>
	<g id="Led_3_Mark">
		<polyline class="st30" points="12.5,90.2 12.5,86.5 8.1,86.5 8.1,90.2 		"/>
		<polyline class="st30" points="12.5,92.2 12.5,95.5 11.6,96.3 9,96.3 8.1,95.4 8.1,92.2 		"/>
	</g>
	<g id="Led_4_Mark">
		<polyline class="st31" points="12.5,108.6 12.5,104.9 8.1,104.9 8.1,108.6 		"/>
		<polyline class="st31" points="12.5,110.6 12.5,113.8 11.6,114.7 9,114.7 8.1,113.8 8.1,110.6 		"/>
	</g>
	<g>
		<polyline class="st30" points="50.8,36 50.8,32 45,32 45,36 		"/>
		<polyline class="st30" points="50.8,40.8 50.8,44.2 49.9,45.1 46,45.1 45,44.1 45,40.8 		"/>
	</g>
	<g>
		<polyline class="st30" points="50.4,88 50.4,84 44.6,84 44.6,88 		"/>
		<polyline class="st30" points="50.4,92.8 50.4,96.2 49.6,97.1 45.7,97.1 44.6,96 44.6,92.8 		"/>
	</g>
	<g>
		<polyline class="st30" points="50.4,136.1 50.4,132.1 44.6,132.1 44.6,136.1 		"/>
		<polyline class="st30" points="50.4,140.9 50.4,144.3 49.6,145.2 45.7,145.2 44.6,144.2 44.6,140.9 		"/>
	</g>
	<g>
		<polyline class="st30" points="50.3,183.2 50.3,179.2 44.5,179.2 44.5,183.2 		"/>
		<polyline class="st30" points="50.3,188 50.3,191.4 49.4,192.3 45.5,192.3 44.5,191.3 44.5,188 		"/>
	</g>
	<g>
		<polyline class="st30" points="40.5,37.6 40.5,33.8 36.2,33.8 36.2,37.6 		"/>
		<polyline class="st30" points="40.5,39.5 40.5,43.5 36.2,43.5 36.2,39.5 		"/>
	</g>
	<g>
		<polyline class="st30" points="40.5,20.9 40.5,17.1 36.2,17.1 36.2,20.9 		"/>
		<polyline class="st30" points="40.5,22.9 40.5,26.9 36.2,26.9 36.2,22.9 		"/>
	</g>
	<g>
		<polyline class="st32" points="48.8,23.8 48.8,25.5 46.9,25.5 		"/>
		<polyline class="st32" points="47.9,18 48.8,18 48.8,19.6 		"/>
	</g>
	<g>
		<polyline class="st30" points="40.5,71.8 40.5,68 36.2,68 36.2,71.8 		"/>
		<polyline class="st30" points="40.5,73.7 40.5,77.7 36.2,77.7 36.2,73.7 		"/>
	</g>
	<g>
		<polyline class="st30" points="40.5,90 40.5,86.2 36.2,86.2 36.2,90 		"/>
		<polyline class="st30" points="40.5,92 40.5,96 36.2,96 36.2,92 		"/>
	</g>
	<g>
		<polyline class="st33" points="48.8,70.7 48.8,69.1 46.3,69.1 		"/>
		<polyline class="st33" points="47.5,76.3 48.8,76.3 48.8,74.8 		"/>
	</g>
	<g>
		<path class="st30" d="M40.5,118.8V115h-4.3v3.8"/>
		<polyline class="st30" points="40.5,120.7 40.5,124.7 36.2,124.7 36.2,120.7 		"/>
	</g>
	<g>
		<polyline class="st30" points="40.5,137.6 40.5,133.8 36.2,133.8 36.2,137.6 		"/>
		<polyline class="st30" points="40.5,139.6 40.5,143.6 36.2,143.6 36.2,139.6 		"/>
	</g>
	<g>
		<polyline class="st34" points="48.2,118.1 48.2,116.5 45.8,116.5 		"/>
		<polyline class="st34" points="47,123.8 48.2,123.8 48.2,122.2 		"/>
	</g>
	<g>
		<polyline class="st30" points="40.5,167.9 40.5,164.1 36.2,164.1 36.2,167.9 		"/>
		<polyline class="st30" points="40.5,169.8 40.5,173.8 36.2,173.8 36.2,169.8 		"/>
	</g>
	<g>
		<polyline class="st30" points="40.4,184.3 40.4,180.5 36.1,180.5 36.1,184.3 		"/>
		<polyline class="st30" points="40.4,186.2 40.4,190.2 36.1,190.2 36.1,186.2 		"/>
	</g>
	<g>
		<polyline class="st35" points="48.6,167.3 48.6,165.8 46.1,165.8 		"/>
		<polyline class="st35" points="47.4,172.9 48.6,172.9 48.6,171.3 		"/>
	</g>
	<rect x="8.3" y="126" class="st36" width="5.4" height="41.9"/>
	<rect x="28" y="196" class="st37" width="12" height="5.3"/>
	<g>
		<path class="st38" d="M41.1,196.7L41.1,196.7L41.1,196.7c0.1,0.1,0.1,0.1,0.1,0.1s0,0,0,0.1v0.1v0.1c0,0,0,0,0,0.1h2.1
			c0,0,0,0,0-0.1V197v-0.1c0,0,0,0,0-0.1l0,0l0,0l0,0l0,0l0,0l0,0l0,0l0,0v0.9l0,0l0,0l0,0l0,0l0,0l0,0c0,0,0,0,0-0.1v-0.1v-0.1
			c0,0,0,0,0-0.1h-2.1c0,0,0,0,0,0.1v0.1v0.1c0,0,0,0,0,0.1l0,0l0,0l0,0l0,0l0,0l0,0L41.1,196.7C41,196.7,41,196.7,41.1,196.7
			C41,196.7,41,196.7,41.1,196.7L41.1,196.7L41.1,196.7z"/>
	</g>
	<g id="_x34__Relay_Module">
		<path class="st39" d="M110.7,5.1L110.7,5.1c0.1,0.1,0.1,0.1,0.1,0.2l0,0v0.1c0,0,0,0,0,0.1c0,0,0,0,0,0.1c-0.7,0.7-1.4,1.4-2.1,2
			l0,0l0,0c0,0,0,0-0.1,0c0,0-0.1,0-0.1-0.1c0,0-0.1,0-0.1-0.1V5.6h-0.1c0,0-0.1,0-0.2,0s-0.1,0-0.2,0h-0.1c0,0,0,0-0.1,0
			c0,0,0,0-0.1-0.1V5.3V5.2c0,0,0,0,0.1-0.1c0,0,0,0,0.1,0c0,0,0,0,0.1,0c0,0,0.1,0,0.2,0s0.1,0,0.2,0h0.1V3.3c0,0,0,0,0.1-0.1
			c0,0,0.1,0,0.1-0.1l0,0l0,0c0,0,0,0,0.1,0c0,0,0.1,0,0.1,0.1c0,0,0.1,0,0.1,0.1V5C108.8,5.1,110.7,5.1,110.7,5.1z M109.5,6.1
			c0.2-0.2,0.4-0.3,0.5-0.5h-1.1v1C109.1,6.4,109.3,6.3,109.5,6.1z"/>
		<path class="st39" d="M100.3,7.6l-0.8-0.8V5.2l0,0l0.1-0.1L99.7,5l0.1-0.1l0.1-0.1c0.1,0,0.1-0.1,0.2-0.1s0.1-0.1,0.2-0.1
			s0.1-0.1,0.1-0.1c-0.6-0.7-0.9-1-0.9-1l0,0c0,0,0,0,0-0.1c0,0,0,0,0.1-0.1c0,0,0,0,0.1-0.1l0,0l0,0c0,0,0,0,0.1,0l1.3,1.2h1.1V3.3
			c0,0,0,0,0.1-0.1c0,0,0.1,0,0.1-0.1l0,0l0,0c0,0,0,0,0.1,0c0,0,0,0,0.1,0.1c0,0,0,0,0,0.1v4.3C102.6,7.6,100.3,7.6,100.3,7.6z
			 M102.1,5c-1,0-1.6,0-1.6,0l-0.1,0.1l-0.1,0.1l-0.1,0.1c0,0,0,0-0.1,0.1l0,0v1.2l0.4,0.4h1.7V5H102.1z"/>
		<path class="st39" d="M98.1,5.5l-0.8,0.8h-1.5L95,5.5v-1h2.5c0,0,0,0,0-0.1V4.3V4.2V4.1c0,0,0-0.1-0.1-0.1c0-0.1-0.1-0.1-0.1-0.2
			c0-0.1-0.1-0.1-0.1-0.1l-0.1-0.1h-1.3c0,0,0,0-0.1-0.1c0,0,0-0.1-0.1-0.1l0,0V3.3c0,0,0,0,0.1-0.1c0,0,0,0,0.1,0h1.5L98.1,4V5.5
			L98.1,5.5z M95.5,5.1L95.5,5.1v0.2v0.1l0.1,0.1c0,0.1,0.1,0.1,0.1,0.1c0.1,0,0.1,0.1,0.1,0.1l0.1,0.1h1.2c0,0,0,0,0.1-0.1l0.1-0.1
			l0.1-0.1c0-0.1,0.1-0.1,0.1-0.1s0,0,0-0.1V5.2V5.1V5L95.5,5.1C95.5,5,95.5,5,95.5,5.1z"/>
		<path class="st39" d="M93.8,3.4L93.8,3.4C93.8,3.5,93.8,3.5,93.8,3.4c-0.1,0.1-0.1,0.1-0.2,0.2c0,0,0,0-0.1,0s-0.1,0-0.1,0h-0.1
			h-0.1V7c0,0,0,0,0.1,0h0.1h0.1h0.1c0,0,0,0,0.1,0c0,0,0,0,0,0.1l0,0l0,0l0,0l0,0c0,0,0,0-0.1,0.1c0,0,0,0-0.1,0h-0.9V3.7h-0.1
			c0,0-0.1,0-0.2,0s-0.1,0-0.2,0H92c0,0,0,0-0.1-0.1s0,0-0.1-0.1V3.4V3.3c0,0,0,0,0.1-0.1c0,0,0,0,0.1,0h1.5c0,0,0,0,0.1,0
			C93.7,3.3,93.7,3.3,93.8,3.4C93.7,3.3,93.8,3.3,93.8,3.4L93.8,3.4z"/>
		<path class="st39" d="M90.7,4.1C90.7,4.1,90.7,4.2,90.7,4.1C90.7,4.2,90.7,4.2,90.7,4.1L90.7,4.1l-0.1,0.2l-0.1,0.1l-0.1,0.1
			l-0.1,0.1l-0.1,0.1l-0.1,0.1H90h-1.6c0,0,0,0,0,0.1V5v0.1v0.1c0,0,0,0.1,0.1,0.1c0,0.1,0.1,0.1,0.1,0.2s0.1,0.1,0.1,0.1l0.1,0.1
			H90c0,0,0,0,0.1,0.1S90,6,90,6l0,0l0,0c0,0,0,0,0,0.1c0,0,0,0-0.1,0.1s0,0-0.1,0h-1.3l-0.8-0.8V3.2h2.1L90.7,4.1
			C90.7,4,90.7,4,90.7,4.1L90.7,4.1z M90.2,4.1C90.2,4.1,90.2,4,90.2,4.1C90.1,4,90.1,4,90.2,4.1c0-0.1-0.1-0.1-0.1-0.2L90,3.8
			l-0.1-0.1c0,0,0,0-0.1,0h-1.6v0.8h1.5L90.2,4.1C90.1,4.1,90.1,4.1,90.2,4.1L90.2,4.1z"/>
		<path class="st39" d="M85.2,2L85.2,2C85.2,2.1,85.2,2.1,85.2,2C85.2,2.1,85.2,2.1,85.2,2c-0.1,0.1-0.1,0.1-0.2,0.2c0,0,0,0-0.1,0
			s-0.1,0-0.2,0s-0.1,0-0.2,0s-0.1,0-0.1,0s0,0-0.1,0l-0.1,0.1l-0.1,0.1L84,2.5c0,0,0,0-0.1,0.1l0,0c0,0,0,0,0,0.1v0.1v0.1V3h1.6
			c0,0,0,0,0.1,0l0.1,0.1l0.1,0.1l0.1,0.1L86,3.4l0.1,0.1l0.1,0.1V6c0,0,0,0,0,0.1c0,0,0,0-0.1,0.1s0,0,0,0l0,0c0,0,0,0-0.1,0
			c0,0-0.1,0-0.1-0.1c0,0-0.1,0-0.1-0.1V4.1c0,0,0,0-0.1-0.1s0.2,0,0.2,0s0,0-0.1-0.1l-0.1-0.1l-0.1-0.1l-0.1-0.1H84V6
			c0,0,0,0-0.1,0.1l-0.1,0.1l0,0l0,0c0,0,0,0-0.1,0c0,0,0,0-0.1-0.1c0,0,0,0,0-0.1V2.5l0,0l0.1-0.1l0.1-0.1l0.1-0.1L84,2.1L84.1,2
			l0.1-0.1h0.1c0,0,0,0,0.1,0h0.1h0.1h0.1c0,0,0,0,0.1,0h0.1H85h0.1C85.1,1.9,85.1,1.9,85.2,2C85.3,2.1,85.2,2,85.2,2L85.2,2L85.2,2
			z"/>
		<path class="st39" d="M78.1,7.5L78.1,7.5L78.1,7.5c-0.1,0-0.1-0.1-0.2-0.1s-0.1-0.1-0.2-0.2S77.6,7.1,77.5,7s-0.1-0.1-0.1-0.1
			l-0.1-0.1c-0.1,0-0.1-0.1-0.2-0.1S77,6.6,76.9,6.6l-0.1-0.1l0,0l0,0l0,0l0,0c0,0,0,0-0.1,0.1c0,0-0.1,0.1-0.2,0.1
			s-0.1,0.1-0.2,0.1s-0.1,0.1-0.2,0.1L76,7c-0.1,0.1-0.1,0.1-0.2,0.2s-0.1,0.1-0.2,0.2s-0.1,0.1-0.1,0.1l0,0l0,0c0,0,0,0-0.1,0
			c0,0,0,0-0.1-0.1s0,0,0-0.1v-4c0,0,0,0,0-0.1c0,0,0,0,0.1-0.1l0,0l0,0c0,0,0,0,0.1,0c0,0,0.1,0,0.1,0.1c0,0,0.1,0,0.1,0.1v3.2
			c0,0,0,0,0.1,0c0,0,0.1,0,0.1-0.1c0,0,0.1,0,0.1-0.1h0.1l0.1-0.1c0.1-0.1,0.1-0.1,0.2-0.2c0.1,0,0.1,0,0.2-0.1s0.1-0.1,0.1-0.1
			h0.1l0.1,0.1C77,6,77.1,6,77.2,6.1s0.1,0.1,0.2,0.2s0.1,0.1,0.1,0.1s0,0,0.1,0c0,0,0.1,0,0.1,0.1c0,0,0.1,0,0.1,0.1s0.1,0,0.1,0
			V3.3c0,0,0,0,0.1-0.1c0,0,0.1,0,0.1-0.1l0,0l0,0c0,0,0,0,0.1,0c0,0,0,0,0.1,0.1c0,0,0,0,0,0.1v4c0,0,0,0,0,0.1
			C78.2,7.5,78.2,7.5,78.1,7.5C78.2,7.5,78.2,7.5,78.1,7.5L78.1,7.5z"/>
		<path class="st39" d="M73.9,5.5L73.9,5.5C73.8,5.6,73.8,5.6,73.9,5.5l-0.2,0.2l-0.1,0.1l-0.1,0.1L73.4,6l-0.1,0.1h-0.1h-1.5
			c0,0,0,0-0.1,0L71.5,6l-0.1-0.1l-0.1-0.1l-0.1-0.1l-0.1-0.1L71,5.5l0,0V4l0.8-0.8h1.5L73.9,4V5.5L73.9,5.5z M73,3.7h-1.2l-0.4,0.4
			v1.1l0,0l0.1,0.1l0.1,0.1l0.1,0.1l0.1,0.1h0.1c0,0,0,0,0.1,0h0.1c0.1,0,0.1,0,0.2,0s0.1,0,0.1,0h0.1c0.1,0,0.1,0,0.2,0
			s0.1,0,0.1,0h0.1c0,0,0,0,0.1,0s0.1-0.1,0.1-0.1l0.1-0.1l0.1-0.1c0,0,0,0,0.1-0.1l0,0V4.1L73,3.7z"/>
		<path class="st39" d="M67,6.3v1.1c0,0,0,0-0.1,0.1l-0.1,0.1l0,0l0,0c0,0,0,0-0.1,0c0,0,0,0-0.1-0.1c0,0,0,0,0-0.1V3.2H69
			c0,0,0,0,0.1,0s0.1,0.1,0.1,0.1s0,0.1,0.1,0.1l0.1,0.1l0.1,0.1c0,0,0,0.1,0.1,0.1c0,0,0,0,0,0.1c0,0,0,0,0,0.1c0,0,0,0,0,0.1l0,0
			v1.5l0,0c0,0,0,0,0,0.1c0,0,0,0,0,0.1c0,0,0,0,0,0.1c0,0,0,0-0.1,0.1L69.4,6l-0.1,0.1l-0.1,0.1c0,0,0,0-0.1,0.1c0,0,0,0.1-0.1,0.1
			L67,6.3L67,6.3z M69.1,4.7L69.1,4.7c0-0.2,0-0.2,0-0.3s0-0.1,0-0.1V4.2V4.1C69,4.1,69,4,69,4s0-0.1-0.1-0.1l-0.1-0.1l-0.1-0.1l0,0
			h-1.6v2.1h1.6l0,0l0.1-0.1l0.1-0.1L69,5.5c0,0,0-0.1,0.1-0.1c0-0.1,0-0.1,0-0.1s0,0,0-0.1V5.1c0-0.1,0-0.1,0-0.2
			S69.1,4.8,69.1,4.7z"/>
		<path class="st39" d="M65.3,6L65.3,6C65.2,6.1,65.2,6.1,65.3,6L65.3,6L65.3,6L65.3,6L65.3,6c-0.1,0.1-0.2,0.1-0.2,0
			c0,0-0.1,0-0.1-0.1V4.1l-0.5-0.4h-1.7V6c0,0,0,0-0.1,0.1h-0.1l0,0l0,0c0,0,0,0-0.1,0c0,0,0,0-0.1-0.1c0,0,0,0,0-0.1V3.2h2.2
			L65.3,4V6z"/>
		<path class="st39" d="M60.9,3.4L60.9,3.4C60.9,3.5,60.9,3.5,60.9,3.4c-0.1,0.1-0.1,0.1-0.2,0.2c0,0,0,0-0.1,0h-0.1h-0.1h-0.1V7
			c0,0,0,0,0.1,0h0.1h0.1h0.1c0,0,0,0,0.1,0c0,0,0,0,0,0.1l0,0l0,0l0,0l0,0c0,0,0,0-0.1,0.1c0,0,0,0-0.1,0h-0.9V3.7h-0.1
			c0,0-0.1,0-0.2,0c-0.1,0-0.1,0-0.2,0s-0.1,0-0.1,0s0,0-0.1-0.1c0,0,0,0-0.1-0.1V3.4V3.3c0,0,0,0,0.1-0.1c0,0,0,0,0.1,0h1.5
			c0,0,0,0,0.1,0C60.9,3.3,60.9,3.3,60.9,3.4C60.9,3.3,60.9,3.3,60.9,3.4L60.9,3.4z"/>
		<path class="st39" d="M57.9,5.5l-0.8,0.8h-1.5l-0.8-0.8v-1h2.5c0,0,0,0,0-0.1V4.3V4.2V4.1c0,0,0-0.1-0.1-0.1s-0.1-0.1-0.1-0.2
			c0-0.1-0.1-0.1-0.1-0.1V3.6h-1.3c0,0,0,0-0.1-0.1c0,0,0-0.1-0.1-0.1l0,0V3.3c0,0,0,0,0.1-0.1c0,0,0,0,0.1,0h1.5L57.9,4V5.5
			L57.9,5.5z M55.2,5.1L55.2,5.1v0.2v0.1l0.1,0.1c0,0.1,0.1,0.1,0.1,0.1l0.1,0.1l0.1,0.1H57c0,0,0,0,0.1-0.1l0.1-0.1l0.1-0.1
			c0-0.1,0.1-0.1,0.1-0.1s0,0,0-0.1s0-0.1,0-0.1V5.1V5L55.2,5.1C55.2,5,55.2,5,55.2,5.1z"/>
	</g>
	<g id="K1_silkscreen">
		<g>
			<polyline class="st40" points="132.4,39.6 138.3,33.6 138.3,24.8 132.3,24.8 			"/>
			<polyline class="st40" points="138.3,44.4 138.3,55.5 132.4,55.5 			"/>
		</g>
		<text transform="matrix(-1.346898e-10 1 -1 -1.346898e-10 136.8008 36.3234)" class="st39 st41 st42">K1</text>
	</g>
	<g id="K2_silkscreen">
		<g>
			<polyline class="st40" points="132.1,81.4 138.1,75.5 138.1,66.7 132.1,66.7 			"/>
			<polyline class="st40" points="138.1,86.3 138.1,97.4 132.1,97.4 			"/>
		</g>
		<text transform="matrix(-1.346898e-10 1 -1 -1.346898e-10 136.8008 77.708)" class="st39 st41 st42">K2</text>
	</g>
	<g id="K3_silkscreen">
		<g>
			<polyline class="st40" points="132.1,133.4 138.1,127.4 138.1,118.7 132.1,118.7 			"/>
			<polyline class="st40" points="138.1,138.2 138.1,149.4 132.1,149.4 			"/>
		</g>
		<text transform="matrix(-1.346898e-10 1 -1 -1.346898e-10 136.8008 129.5448)" class="st39 st41 st42">K3</text>
	</g>
	<g id="K4_silkscreen">
		<g>
			<polyline class="st40" points="131.9,175.9 137.8,169.9 137.8,161.2 131.8,161.2 			"/>
			<polyline class="st40" points="137.8,180.7 137.8,191.9 131.9,191.9 			"/>
		</g>
		<text transform="matrix(-1.346898e-10 1 -1 -1.346898e-10 136.5684 172.5026)" class="st39 st41 st42">K4</text>
	</g>
	<rect x="56.1" y="11.2" class="st43" width="53" height="42.8"/>
	<rect x="56.1" y="60.1" class="st44" width="53.3" height="42.7"/>
	<rect x="56.1" y="109" class="st44" width="53.3" height="42.7"/>
	<rect x="56.1" y="158.6" class="st44" width="53.3" height="42.7"/>
	<g id="Corners">
		<circle class="st45" cx="8.6" cy="7.8" r="6.8"/>
		<circle class="st45" cx="132.4" cy="7.8" r="6.8"/>
		<circle class="st45" cx="132.4" cy="205.7" r="6.8"/>
		<circle class="st45" cx="8" cy="204.8" r="6.8"/>
	</g>
	<g id="StaticLabels">
		<text transform="matrix(-1.346898e-10 1 -1 -1.346898e-10 46.3594 7.8399)" class="st39 st41 st46">Q1</text>
		<text transform="matrix(-1.346898e-10 1 -1 -1.346898e-10 46.3594 60.0661)" class="st39 st41 st46">Q2</text>
		<text transform="matrix(-1.346898e-10 1 -1 -1.346898e-10 46 107.6861)" class="st39 st41 st46">Q3</text>
		<text transform="matrix(-1.346898e-10 1 -1 -1.346898e-10 46.3594 157.6357)" class="st39 st41 st46">Q4</text>
		<text transform="matrix(-1.346898e-10 1 -1 -1.346898e-10 46.3594 48.5471)" class="st39 st41 st46">D1</text>
		<text transform="matrix(-1.346898e-10 1 -1 -1.346898e-10 46.3594 99.9315)" class="st39 st41 st46">D2</text>
		<text transform="matrix(-1.346898e-10 1 -1 -1.346898e-10 45.793 147.9383)" class="st39 st41 st46">D3</text>
		<text transform="matrix(-1.346898e-10 1 -1 -1.346898e-10 46.3594 194.7996)" class="st39 st41 st46">D4</text>
		<text transform="matrix(-1.346898e-10 1 -1 -1.346898e-10 37.1387 7.8398)" class="st39 st41 st46">R2</text>
		<text transform="matrix(-1.346898e-10 1 -1 -1.346898e-10 37.4551 46.8293)" class="st39 st41 st46">R1</text>
		<text transform="matrix(-1.346898e-10 1 -1 -1.346898e-10 37.1387 60.0659)" class="st39 st41 st46">R3</text>
		<text transform="matrix(-1.346898e-10 1 -1 -1.346898e-10 37.1387 97.9167)" class="st39 st41 st46">R4</text>
		<text transform="matrix(-1.346898e-10 1 -1 -1.346898e-10 37.3359 106.5828)" class="st39 st41 st46">R6</text>
		<text transform="matrix(-1.346898e-10 1 -1 -1.346898e-10 37.4551 146.7188)" class="st39 st41 st46">R5</text>
		<text transform="matrix(-1.346898e-10 1 -1 -1.346898e-10 37.1387 156.0515)" class="st39 st41 st46">R7</text>
		<text transform="matrix(-1.346898e-10 1 -1 -1.346898e-10 37.1387 190.7925)" class="st39 st41 st46">R8</text>
		<text transform="matrix(-1.346898e-10 1 -1 -1.346898e-10 23.6016 195.2)" class="st39 st41 st47">VCC</text>
		<text transform="matrix(-1.346898e-10 1 -1 -1.346898e-10 41.3691 195.1996)" class="st39 st41 st47">JD-VCC</text>
		<text transform="matrix(-1.346898e-10 1 -1 -1.346898e-10 5.001 161.5385)" class="st39 st41 st47">VCC</text>
		<text transform="matrix(-1.346898e-10 1 -1 -1.346898e-10 5.001 154.2982)" class="st39 st41 st47">IN4</text>
		<text transform="matrix(-1.346898e-10 1 -1 -1.346898e-10 5.001 146.9711)" class="st39 st41 st47">IN3</text>
		<text transform="matrix(-1.346898e-10 1 -1 -1.346898e-10 5.001 139.9388)" class="st39 st41 st47">IN2</text>
		<text transform="matrix(-1.346898e-10 1 -1 -1.346898e-10 5.001 132.5427)" class="st39 st41 st47">IN1</text>
		<text transform="matrix(-1.346898e-10 1 -1 -1.346898e-10 5.001 125.3996)" class="st39 st41 st47">GND</text>
		<text transform="matrix(-1.346898e-10 1 -1 -1.346898e-10 3.8975 106.5502)" class="st39 st41 st47">IN4</text>
		<text transform="matrix(-1.346898e-10 1 -1 -1.346898e-10 3.8994 88.7001)" class="st39 st41 st47">IN3</text>
		<text transform="matrix(-1.346898e-10 1 -1 -1.346898e-10 3.8994 69.9315)" class="st39 st41 st47">IN2</text>
		<text transform="matrix(-1.346898e-10 1 -1 -1.346898e-10 3.8994 51.5998)" class="st39 st41 st47">IN1</text>
	</g>
	<g id="sunfounder">
		<g>
			<line class="st48" x1="10.1" y1="32.7" x2="15.6" y2="27.3"/>
			<line class="st48" x1="19.7" y1="32.7" x2="14.8" y2="27.8"/>
			<line class="st48" x1="14.4" y1="36.9" x2="19.8" y2="31.5"/>
		</g>
		<g>
			<line class="st48" x1="15.8" y1="31.3" x2="10.4" y2="36.7"/>
			<line class="st48" x1="6.2" y1="31.4" x2="11.2" y2="36.3"/>
			<line class="st48" x1="11.6" y1="27.1" x2="6.2" y2="32.5"/>
		</g>
		<text transform="matrix(-1.346898e-10 1 -1 -1.346898e-10 0.6562 15.0981)" class="st39 st49 st42">SUNFOUNDER</text>
	</g>
</g>
<g>
	<g>
		<g>
			<g transform="matrix(0.24 0 0 0.24 54.751 6.7148)">
			</g>
			<g>
				<rect x="57" y="12.4" class="st25" width="51.5" height="39.6"/>
			</g>
		</g>
		<rect x="57" y="12.4" class="st5" width="51.5" height="39.6"/>
		<circle class="st50" cx="63" cy="46.2" r="3"/>
		<circle class="st50" cx="82.7" cy="32.2" r="3"/>
	</g>
	<g>
		<g>
			<g transform="matrix(0.24 0 0 0.24 54.751 51.8999)">
			</g>
			<g>
				<rect x="57" y="61.9" class="st25" width="51.5" height="39.6"/>
			</g>
		</g>
		<rect x="57" y="61.9" class="st5" width="51.5" height="39.6"/>
		<circle class="st50" cx="63" cy="95.7" r="3"/>
		<circle class="st50" cx="82.7" cy="81.7" r="3"/>
	</g>
	<g>
		<g>
			<g transform="matrix(0.24 0 0 0.24 54.751 96.9648)">
			</g>
			<g>
				<rect x="56.9" y="110.5" class="st25" width="51.5" height="39.6"/>
			</g>
		</g>
		<rect x="56.9" y="110.5" class="st5" width="51.5" height="39.6"/>
		<circle class="st50" cx="63" cy="144.3" r="3"/>
		<circle class="st50" cx="82.7" cy="130.3" r="3"/>
	</g>
	<g>
		<g>
			<g transform="matrix(0.24 0 0 0.24 54.751 142.1445)">
			</g>
			<g>
				<rect x="56.9" y="160" class="st25" width="51.5" height="39.6"/>
			</g>
		</g>
		<rect x="56.9" y="160" class="st5" width="51.5" height="39.6"/>
		<circle class="st50" cx="62.9" cy="193.8" r="3"/>
		<circle class="st50" cx="82.7" cy="179.8" r="3"/>
	</g>
	<text transform="matrix(-1 0 0 -1 106.7539 13.4163)" class="st39 st41 st51">SRD-05VDC-SL-C</text>
	<text transform="matrix(-1 0 0 -1 106.7539 63.2131)" class="st39 st41 st51">SRD-05VDC-SL-C</text>
	<text transform="matrix(-1 0 0 -1 106.7539 112.0374)" class="st39 st41 st51">SRD-05VDC-SL-C</text>
	<text transform="matrix(-1 0 0 -1 106.7539 161.1721)" class="st39 st41 st51">SRD-05VDC-SL-C</text>
	<text transform="matrix(-1 0 0 -1 105.1406 23.6799)" class="st39 st41 st52">10A 250VAC  10A 125VAC</text>
	<text transform="matrix(-1 0 0 -1 105.1406 20.2795)" class="st39 st41 st52">10A  30VDC  10A  28VDC</text>
	<text transform="matrix(-1 0 0 -1 105.1406 72.7815)" class="st39 st41 st52">10A 250VAC  10A 125VAC</text>
	<text transform="matrix(-1 0 0 -1 105.1406 69.3811)" class="st39 st41 st52">10A  30VDC  10A  28VDC</text>
	<text transform="matrix(-1 0 0 -1 105.1406 121.6057)" class="st39 st41 st52">10A 250VAC  10A 125VAC</text>
	<text transform="matrix(-1 0 0 -1 105.1406 118.2034)" class="st39 st41 st52">10A  30VDC  10A  28VDC</text>
	<text transform="matrix(-1 0 0 -1 105.1406 170.7815)" class="st39 st41 st52">10A 250VAC  10A 125VAC</text>
	<text transform="matrix(-1 0 0 -1 105.1406 167.3792)" class="st39 st41 st52">10A  30VDC  10A  28VDC</text>
</g>
</svg>
