<?xml version="1.0" encoding="utf-8"?>
<!-- Generator: Adobe Illustrator 23.0.1, SVG Export Plug-In . SVG Version: 6.00 Build 0)  -->
<svg version="1.2" baseProfile="tiny" id="Layer_1" xmlns:xml="http://www.w3.org/XML/1998/namespace"
	 xmlns="http://www.w3.org/2000/svg" xmlns:xlink="http://www.w3.org/1999/xlink" x="0px" y="0px" viewBox="0 0 177.5 266.5" width="177.5" height="266.5"
	 xml:space="preserve">
<desc>
	<referenceFile>4-CHANNEL-RELAY_PCB_v2b.svg</referenceFile>
</desc>
<g id="silkscreen">
	<rect fill="none" stroke="#000000" stroke-width="0.35475" stroke-miterlimit="10" width="177.5" height="266.5"/>

		<rect x="32.625" y="243.75" fill="none" stroke="#000000" stroke-width="0.35475" stroke-miterlimit="10" width="19.875" height="8.8750076"/>

		<rect x="8.75" y="155.625" fill="none" stroke="#000000" stroke-width="0.35475" stroke-miterlimit="10" width="9.875" height="57.0000076"/>

		<rect x="151.625" y="28.5" fill="none" stroke="#000000" stroke-width="0.35475" stroke-miterlimit="10" width="10.1250076" height="44.5"/>

		<rect x="151.625" y="81" fill="none" stroke="#000000" stroke-width="0.35475" stroke-miterlimit="10" width="10.1250076" height="45.8749962"/>

		<rect x="151.625" y="143" fill="none" stroke="#000000" stroke-width="0.35475" stroke-miterlimit="10" width="10.1250076" height="44.5"/>

		<rect x="151.625" y="193.875" fill="none" stroke="#000000" stroke-width="0.35475" stroke-miterlimit="10" width="10.1250076" height="48.8750076"/>
	<g>

			<text transform="matrix(-1.346898e-10 0.9978 -1 -1.343903e-10 3.7597644 157.0584412)" font-family="'OCRA'" font-size="4.2614999px">GND</text>

			<text transform="matrix(-1.346898e-10 0.9978 -1 -1.343903e-10 3.7597644 157.0584412)" fill="none" stroke="#000000" stroke-width="0.354375" font-family="'OCRA'" font-size="4.2614999px">GND</text>

			<text transform="matrix(-1.346898e-10 0.9978 -1 -1.343903e-10 3.7597644 166.1932068)" font-family="'OCRA'" font-size="4.2614999px">IN1</text>

			<text transform="matrix(-1.346898e-10 0.9978 -1 -1.343903e-10 3.7597644 166.1932068)" fill="none" stroke="#000000" stroke-width="0.354375" font-family="'OCRA'" font-size="4.2614999px">IN1</text>

			<text transform="matrix(-1.346898e-10 0.9978 -1 -1.343903e-10 3.7597644 175.712738)" font-family="'OCRA'" font-size="4.2614999px">IN2</text>

			<text transform="matrix(-1.346898e-10 0.9978 -1 -1.343903e-10 3.7597644 175.712738)" fill="none" stroke="#000000" stroke-width="0.354375" font-family="'OCRA'" font-size="4.2614999px">IN2</text>

			<text transform="matrix(-1.346898e-10 0.9978 -1 -1.343903e-10 3.7597644 185.5818787)" font-family="'OCRA'" font-size="4.2614999px">IN3</text>

			<text transform="matrix(-1.346898e-10 0.9978 -1 -1.343903e-10 3.7597644 185.5818787)" fill="none" stroke="#000000" stroke-width="0.354375" font-family="'OCRA'" font-size="4.2614999px">IN3</text>

			<text transform="matrix(-1.346898e-10 0.9978 -1 -1.343903e-10 3.7597644 195.2615662)" font-family="'OCRA'" font-size="4.2614999px">IN4</text>

			<text transform="matrix(-1.346898e-10 0.9978 -1 -1.343903e-10 3.7597644 195.2615662)" fill="none" stroke="#000000" stroke-width="0.354375" font-family="'OCRA'" font-size="4.2614999px">IN4</text>

			<text transform="matrix(-1.346898e-10 0.9978 -1 -1.343903e-10 3.7597644 204.7185974)" font-family="'OCRA'" font-size="4.2614999px">VCC</text>

			<text transform="matrix(-1.346898e-10 0.9978 -1 -1.343903e-10 3.7597644 204.7185974)" fill="none" stroke="#000000" stroke-width="0.354375" font-family="'OCRA'" font-size="4.2614999px">VCC</text>
		<text transform="matrix(1.0022 0 0 1 32.53125 258.7889099)" font-family="'OCRA'" font-size="4.2519999px">VCC</text>

			<text transform="matrix(1.0022 0 0 1 32.53125 258.7889099)" fill="none" stroke="#000000" stroke-width="0.354375" font-family="'OCRA'" font-size="4.2519999px">VCC</text>
		<text transform="matrix(1.0022 0 0 1 44.6376953 258.7889099)" font-family="'OCRA'" font-size="4.2519999px">JD-VCC</text>

			<text transform="matrix(1.0022 0 0 1 44.6376953 258.7889099)" fill="none" stroke="#000000" stroke-width="0.354375" font-family="'OCRA'" font-size="4.2519999px">JD-VCC</text>

			<text transform="matrix(-1.346898e-10 0.9978 -1 -1.343903e-10 145.4199219 50.8577652)" font-family="'OCRA'" font-size="4.2614999px">K1</text>

			<text transform="matrix(-1.346898e-10 0.9978 -1 -1.343903e-10 145.4199219 50.8577652)" fill="none" stroke="#000000" stroke-width="0.354375" font-family="'OCRA'" font-size="4.2614999px">K1</text>

			<text transform="matrix(-1.346898e-10 0.9978 -1 -1.343903e-10 145.4199219 104.0062027)" font-family="'OCRA'" font-size="4.2614999px">K2</text>

			<text transform="matrix(-1.346898e-10 0.9978 -1 -1.343903e-10 145.4199219 104.0062027)" fill="none" stroke="#000000" stroke-width="0.354375" font-family="'OCRA'" font-size="4.2614999px">K2</text>

			<text transform="matrix(-1.346898e-10 0.9978 -1 -1.343903e-10 145.4199219 162.9920349)" font-family="'OCRA'" font-size="4.2614999px">K3</text>

			<text transform="matrix(-1.346898e-10 0.9978 -1 -1.343903e-10 145.4199219 162.9920349)" fill="none" stroke="#000000" stroke-width="0.354375" font-family="'OCRA'" font-size="4.2614999px">K3</text>

			<text transform="matrix(-1.346898e-10 0.9978 -1 -1.343903e-10 145.4199219 215.4334412)" font-family="'OCRA'" font-size="4.2614999px">K4</text>

			<text transform="matrix(-1.346898e-10 0.9978 -1 -1.343903e-10 145.4199219 215.4334412)" fill="none" stroke="#000000" stroke-width="0.354375" font-family="'OCRA'" font-size="4.2614999px">K4</text>

			<text transform="matrix(-1.346898e-10 0.9978 -1 -1.343903e-10 166.8144531 67.3235855)" font-family="'OCRA'" font-size="4.2614999px">NO</text>

			<text transform="matrix(-1.346898e-10 0.9978 -1 -1.343903e-10 166.8144531 67.3235855)" fill="none" stroke="#000000" stroke-width="0.354375" font-family="'OCRA'" font-size="4.2614999px">NO</text>

			<text transform="matrix(-1.346898e-10 0.9978 -1 -1.343903e-10 166.8144531 31.8899918)" font-family="'OCRA'" font-size="4.2614999px">NC</text>

			<text transform="matrix(-1.346898e-10 0.9978 -1 -1.343903e-10 166.8144531 31.8899918)" fill="none" stroke="#000000" stroke-width="0.354375" font-family="'OCRA'" font-size="4.2614999px">NC</text>

			<text transform="matrix(-1.346898e-10 0.9978 -1 -1.343903e-10 166.8144531 51.9983902)" font-family="'OCRA'" font-size="4.2614999px">C</text>

			<text transform="matrix(-1.346898e-10 0.9978 -1 -1.343903e-10 166.8144531 51.9983902)" fill="none" stroke="#000000" stroke-width="0.354375" font-family="'OCRA'" font-size="4.2614999px">C</text>

			<text transform="matrix(-1.346898e-10 0.9978 -1 -1.343903e-10 166.8115234 120.4729996)" font-family="'OCRA'" font-size="4.2614999px">NO</text>

			<text transform="matrix(-1.346898e-10 0.9978 -1 -1.343903e-10 166.8115234 120.4729996)" fill="none" stroke="#000000" stroke-width="0.354375" font-family="'OCRA'" font-size="4.2614999px">NO</text>

			<text transform="matrix(-1.346898e-10 0.9978 -1 -1.343903e-10 166.8144531 85.0394058)" font-family="'OCRA'" font-size="4.2614999px">NC</text>

			<text transform="matrix(-1.346898e-10 0.9978 -1 -1.343903e-10 166.8144531 85.0394058)" fill="none" stroke="#000000" stroke-width="0.354375" font-family="'OCRA'" font-size="4.2614999px">NC</text>

			<text transform="matrix(-1.346898e-10 0.9978 -1 -1.343903e-10 166.8144531 105.1487808)" font-family="'OCRA'" font-size="4.2614999px">C</text>

			<text transform="matrix(-1.346898e-10 0.9978 -1 -1.343903e-10 166.8144531 105.1487808)" fill="none" stroke="#000000" stroke-width="0.354375" font-family="'OCRA'" font-size="4.2614999px">C</text>

			<text transform="matrix(-1.346898e-10 0.9978 -1 -1.343903e-10 166.8144531 180.728363)" font-family="'OCRA'" font-size="4.2614999px">NO</text>

			<text transform="matrix(-1.346898e-10 0.9978 -1 -1.343903e-10 166.8144531 180.728363)" fill="none" stroke="#000000" stroke-width="0.354375" font-family="'OCRA'" font-size="4.2614999px">NO</text>

			<text transform="matrix(-1.346898e-10 0.9978 -1 -1.343903e-10 166.8144531 145.2947693)" font-family="'OCRA'" font-size="4.2614999px">NC</text>

			<text transform="matrix(-1.346898e-10 0.9978 -1 -1.343903e-10 166.8144531 145.2947693)" fill="none" stroke="#000000" stroke-width="0.354375" font-family="'OCRA'" font-size="4.2614999px">NC</text>

			<text transform="matrix(-1.346898e-10 0.9978 -1 -1.343903e-10 166.8144531 165.4021912)" font-family="'OCRA'" font-size="4.2614999px">C</text>

			<text transform="matrix(-1.346898e-10 0.9978 -1 -1.343903e-10 166.8144531 165.4021912)" fill="none" stroke="#000000" stroke-width="0.354375" font-family="'OCRA'" font-size="4.2614999px">C</text>

			<text transform="matrix(-1.346898e-10 0.9978 -1 -1.343903e-10 166.8115234 233.150238)" font-family="'OCRA'" font-size="4.2614999px">NO</text>

			<text transform="matrix(-1.346898e-10 0.9978 -1 -1.343903e-10 166.8115234 233.150238)" fill="none" stroke="#000000" stroke-width="0.354375" font-family="'OCRA'" font-size="4.2614999px">NO</text>

			<text transform="matrix(-1.346898e-10 0.9978 -1 -1.343903e-10 166.8115234 197.7166443)" font-family="'OCRA'" font-size="4.2614999px">NC</text>

			<text transform="matrix(-1.346898e-10 0.9978 -1 -1.343903e-10 166.8115234 197.7166443)" fill="none" stroke="#000000" stroke-width="0.354375" font-family="'OCRA'" font-size="4.2614999px">NC</text>

			<text transform="matrix(-1.346898e-10 0.9978 -1 -1.343903e-10 166.8115234 217.8240662)" font-family="'OCRA'" font-size="4.2614999px">C</text>

			<text transform="matrix(-1.346898e-10 0.9978 -1 -1.343903e-10 166.8115234 217.8240662)" fill="none" stroke="#000000" stroke-width="0.354375" font-family="'OCRA'" font-size="4.2614999px">C</text>
	</g>

		<ellipse fill="none" stroke="#000000" stroke-width="1.350875" stroke-miterlimit="10" cx="11.125" cy="11.875" rx="5.7500005" ry="5.7500005"/>

		<ellipse fill="none" stroke="#000000" stroke-width="1.350875" stroke-miterlimit="10" cx="166.375" cy="11.875" rx="5.7500076" ry="5.7500005"/>

		<ellipse fill="none" stroke="#000000" stroke-width="1.350875" stroke-miterlimit="10" cx="166.375" cy="255.375" rx="5.7500076" ry="5.7500076"/>

		<ellipse fill="none" stroke="#000000" stroke-width="1.350875" stroke-miterlimit="10" cx="11.125" cy="255.375" rx="5.7500005" ry="5.7500076"/>
</g>
<g id="copper1">
	<g id="copper0">

			<ellipse id="connector8pad" fill="none" stroke="#F5BD18" stroke-width="2.1259999" stroke-miterlimit="10" cx="13.75" cy="161.25" rx="2.8750002" ry="2.8750038"/>

			<ellipse id="connector9pad" fill="none" stroke="#F5BD18" stroke-width="2.1259999" stroke-miterlimit="10" cx="13.75" cy="170.125" rx="2.8750002" ry="2.8750038"/>

			<ellipse id="connector10pin" fill="none" stroke="#F5BD18" stroke-width="2.1259999" stroke-miterlimit="10" cx="13.75" cy="179.25" rx="2.8750002" ry="2.8750038"/>

			<ellipse id="connector11pin" fill="none" stroke="#F5BD18" stroke-width="2.1259999" stroke-miterlimit="10" cx="13.75" cy="188.25" rx="2.8750002" ry="2.8750038"/>

			<ellipse id="connector12pin" fill="none" stroke="#F5BD18" stroke-width="2.1259999" stroke-miterlimit="10" cx="13.75" cy="197.25" rx="2.8750002" ry="2.8750038"/>

			<ellipse id="connector13pin" fill="none" stroke="#F5BD18" stroke-width="2.1259999" stroke-miterlimit="10" cx="13.75" cy="206.25" rx="2.8750002" ry="2.8750038"/>

			<ellipse id="connector15pin" fill="none" stroke="#F5BD18" stroke-width="2.1259999" stroke-miterlimit="10" cx="47" cy="248.25" rx="2.874999" ry="2.8750038"/>

			<ellipse id="connector14pin" fill="none" stroke="#F5BD18" stroke-width="2.1259999" stroke-miterlimit="10" cx="38" cy="248.25" rx="2.8750007" ry="2.8750038"/>

			<ellipse id="connector16pin" fill="none" stroke="#F5BD18" stroke-width="2.1259999" stroke-miterlimit="10" cx="156.25" cy="33.125" rx="2.8750038" ry="2.874999"/>

			<ellipse id="connector17pin" fill="none" stroke="#F5BD18" stroke-width="2.1259999" stroke-miterlimit="10" cx="156.25" cy="52.125" rx="2.8750038" ry="2.874999"/>

			<ellipse id="connector18pin" fill="none" stroke="#F5BD18" stroke-width="2.1259999" stroke-miterlimit="10" cx="156.25" cy="68.5" rx="2.8750038" ry="2.874999"/>

			<ellipse id="connector19pin" fill="none" stroke="#F5BD18" stroke-width="2.1259999" stroke-miterlimit="10" cx="156.25" cy="86.25" rx="2.8750038" ry="2.8750038"/>

			<ellipse id="connector20pin" fill="none" stroke="#F5BD18" stroke-width="2.1259999" stroke-miterlimit="10" cx="156.25" cy="105.25" rx="2.8750038" ry="2.8750038"/>

			<ellipse id="connector21pin" fill="none" stroke="#F5BD18" stroke-width="2.1259999" stroke-miterlimit="10" cx="156.25" cy="121.75" rx="2.8750038" ry="2.8750038"/>

			<ellipse id="connector22pin" fill="none" stroke="#F5BD18" stroke-width="2.1259999" stroke-miterlimit="10" cx="156.25" cy="148.5" rx="2.8750038" ry="2.8750038"/>

			<ellipse id="connector23pin" fill="none" stroke="#F5BD18" stroke-width="2.1259999" stroke-miterlimit="10" cx="156.25" cy="165.5" rx="2.8750038" ry="2.8750038"/>

			<ellipse id="connector24pin" fill="none" stroke="#F5BD18" stroke-width="2.1259999" stroke-miterlimit="10" cx="156.25" cy="182.5" rx="2.8750038" ry="2.8750038"/>

			<ellipse id="connector25pin" fill="none" stroke="#F5BD18" stroke-width="2.1259999" stroke-miterlimit="10" cx="156.25" cy="199.5" rx="2.8750038" ry="2.8750038"/>

			<ellipse id="connector26pin" fill="none" stroke="#F5BD18" stroke-width="2.1259999" stroke-miterlimit="10" cx="156.25" cy="217.875" rx="2.8750038" ry="2.8750038"/>

			<ellipse id="connector27pin" fill="none" stroke="#F5BD18" stroke-width="2.1259999" stroke-miterlimit="10" cx="156.25" cy="237" rx="2.8750038" ry="2.8750038"/>
	</g>
</g>
</svg>
