<?xml version="1.0" encoding="utf-8"?>
<!-- Generator: Adobe Illustrator 23.0.1, SVG Export Plug-In . SVG Version: 6.00 Build 0)  -->
<svg version="1.2" baseProfile="tiny" id="Layer_1" xmlns:xml="http://www.w3.org/XML/1998/namespace"
	 xmlns="http://www.w3.org/2000/svg" xmlns:xlink="http://www.w3.org/1999/xlink" x="0px" y="0px"
	 viewBox="0 0 178.4038391 267.0776672" width="178.4038391" height="267.0776672" xml:space="preserve">
<desc>
	<referenceFile>Sunfounder_4_Channel_Relay_breadboard.svg</referenceFile>
</desc>
<g>
	<path fill="none" stroke="#CBCBAE" stroke-width="0.9505" stroke-miterlimit="10" d="M177.6057587,256.625
		c0,5.375-3.9999847,9.875-8.875,9.875H9.3557692c-4.875,0-8.875-4.375-8.875-9.875v-245.5c0-5.375,4-9.875,8.875-9.875h159.4999847
		c4.875,0,8.8750153,4.375,8.8750153,9.875v245.5H177.6057587L177.6057587,256.625z"/>
</g>
<path id="Breadboard" fill="#0B5686" d="M9.1057692,0c-4.875,0-8.875,4.5-8.875,9.875V256.5c0,5.5,4,9.875,8.875,9.875h159.5
	c4.8749847,0,8.875-4.5000305,8.875-9.875V9.875c0-5.5-4-9.875-8.875-9.875C168.4807587,0,9.1057692,0,9.1057692,0z
	 M10.4807692,261.5c-3,0-5.5-2.5-5.5-5.5c0-2.9999847,2.5-5.4999847,5.5-5.4999847s5.5,2.5,5.5,5.4999847
	C15.9807692,259,13.4807692,261.5,10.4807692,261.5z M11.2307701,15.25c-3.000001,0-5.5000005-2.5-5.5000005-5.5
	s2.4999995-5.5000005,5.5000005-5.5000005s5.5,2.5,5.5,5.5000005S14.2307692,15.25,11.2307701,15.25z M14.2307692,208.125
	c-1.124999,0-1.875-0.875-1.875-1.875s0.750001-1.875,1.875-1.875s1.875001,0.875,1.875001,1.875
	C15.9807692,207.25,15.2307692,208.125,14.2307692,208.125z M14.2307692,199.25c-1.124999,0-1.875-0.875-1.875-1.875
	c0-1.0000153,0.750001-1.875,1.875-1.875s1.875001,0.8749847,1.875001,1.875
	C16.1057701,198.375,15.3557692,199.25,14.2307692,199.25z M14.2307692,190.25c-1.124999,0-1.875-0.875-1.875-1.875
	s0.750001-1.875,1.875-1.875s1.875001,0.875,1.875001,1.875C15.9807692,189.375,15.2307692,190.25,14.2307692,190.25z
	 M14.2307692,181.25c-1.124999,0-1.875-0.875-1.875-1.875s0.750001-1.875,1.875-1.875s1.875001,0.875,1.875001,1.875
	S15.3557692,181.25,14.2307692,181.25z M14.2307692,172.125c-1.124999,0-1.875-0.875-1.875-1.875s0.750001-1.875,1.875-1.875
	s1.875001,0.875,1.875001,1.875S15.3557692,172.125,14.2307692,172.125z M14.2307692,163.125c-1.124999,0-1.875-0.875-1.875-1.875
	s0.750001-1.875,1.875-1.875s1.875001,0.875,1.875001,1.875S15.3557692,163.125,14.2307692,163.125z M38.3557701,250.125
	c-1.125,0-1.875-0.8749847-1.875-1.875c0-1,0.75-1.875,1.875-1.875c1.1249962,0,1.875,0.875,1.875,1.875
	S39.4807701,250.125,38.3557701,250.125z M47.4807663,250.25c-1.125,0-1.875-0.875-1.875-1.875s0.75-1.875,1.875-1.875
	c1.1250038,0,1.875,0.875,1.875,1.875C49.2307701,249.375,48.3557701,250.25,47.4807663,250.25z M165.9807587,262.625
	c-2.9999847,0-5.5-2.5-5.5-5.5c0-2.9999695,2.5000153-5.4999695,5.5-5.4999695c3,0,5.5,2.5,5.5,5.4999695
	C171.4807587,260.125,168.9807739,262.625,165.9807587,262.625z M165.9807587,15.25c-2.9999847,0-5.5-2.5-5.5-5.5
	s2.5000153-5.5000005,5.5-5.5000005c3,0,5.5,2.5,5.5,5.5000005S168.9807739,15.25,165.9807587,15.25z"/>
<g>
	<g>
		<g>
			<g transform="matrix(0.24 0 0 0.24 112.6685 6.7148)">
			</g>
			<g>
				<rect x="140.3557739" y="22.875" fill="#0B1019" width="28.3750057" height="53.125"/>
			</g>
		</g>
		<g display="none">
			<g transform="matrix(0.24 0 0 0.24 89.0024 -7.6636)" display="inline">
			</g>
		</g>
		<g display="none">
			<g transform="matrix(0.24 0 0 0.24 89.0327 5.8647)" display="inline">
			</g>
		</g>
		<g display="none">
			<g transform="matrix(0.24 0 0 0.24 88.9751 -20.8003)" display="inline">
			</g>
		</g>
		<path fill="#005899" d="M146.1057739,22.875V76h22.7499847V22.875H146.1057739z M157.1057739,25.8750019
			c3,0,5.375,2.3749981,5.375,5.3749981c0,2.875-2.375,5.375-5.375,5.375s-5.375-2.375-5.375-5.375
			S154.1057739,25.8750019,157.1057739,25.8750019z M157.1057739,72.375c-3,0-5.375-2.375-5.375-5.375
			c0-2.8749924,2.375-5.3749962,5.375-5.3749962s5.375,2.3750038,5.375,5.3749962
			C162.4807739,70,160.1057587,72.375,157.1057739,72.375z M164.2307739,58.5h-13.625c-0.5000153,0-0.875-0.25-0.875-0.625
			s0.375-0.625,0.875-0.625h13.625c0.4999847,0,0.8749847,0.25,0.8749847,0.625S164.7307587,58.5,164.2307739,58.5z
			 M151.8557739,48.75c0-2.875,2.375-5.375,5.375-5.375s5.3749847,2.3750038,5.3749847,5.375c0,2.875-2.375,5.375-5.375,5.375
			C154.2307739,54.125,151.8557739,51.7500038,151.8557739,48.75z M164.2307739,40.375h-13.625c-0.5000153,0-0.875-0.25-0.875-0.625
			s0.375-0.625,0.875-0.625h13.625c0.4999847,0,0.8749847,0.25,0.8749847,0.625S164.7307587,40.375,164.2307739,40.375z"/>
		<g>
			<g transform="matrix(0.9705 0.241 -0.241 0.9705 8.4417 -30.5286)">
				<g>

						<ellipse transform="matrix(-0.9705231 0.2410083 -0.2410083 -0.9705231 319.5718384 8.7604523)" fill="#C9A75B" cx="159.2501984" cy="23.9231281" rx="4.8748755" ry="4.8748808"/>
				</g>
			</g>
			<g display="none">
				<g transform="matrix(0.24 0 0 0.24 89.063 -20.7358)" display="inline">
				</g>
			</g>
			<g display="none">
				<g transform="matrix(0.24 0 0 0.24 92.52 -20.48)" display="inline">
				</g>
			</g>
			<g transform="matrix(0.9706 0.2406 -0.2406 0.9706 8.4212 -30.4788)">
				<g>
					<polygon fill="#A87B65" points="158.8017731,19.2317314 160.1767731,19.1067333 159.5517731,28.8567333
						158.1767731,28.9817333 					"/>
				</g>
			</g>

				<ellipse id="connector16pin" fill="none" stroke="#020202" stroke-width="1.004625" stroke-miterlimit="10" cx="157.1057739" cy="31.125" rx="4.8749943" ry="4.875"/>
		</g>
		<g>
			<g transform="matrix(0.9939 0.1099 -0.1099 0.9939 4.3429 -13.9956)">
				<g>

						<ellipse transform="matrix(-0.9939418 0.1099072 -0.1099072 -0.9939418 321.9177246 73.6662064)" fill="#C9A75B" cx="158.9285889" cy="45.705246" rx="4.8747878" ry="4.8747954"/>
				</g>
			</g>
			<g display="none">
				<g transform="matrix(0.24 0 0 0.24 89.1216 -7.6001)" display="inline">
				</g>
			</g>
			<g display="none">
				<g transform="matrix(0.24 0 0 0.24 93.1069 -7.4976)" display="inline">
				</g>
			</g>
			<g transform="matrix(0.9939 0.1101 -0.1101 0.9939 4.3505 -14.016)">
				<g>
					<polygon fill="#A87B65" points="158.2980804,40.8445435 159.6730957,40.7195473 159.4230804,50.4695435
						158.0480804,50.4695435 					"/>
				</g>
			</g>

				<ellipse id="connector17pin" fill="none" stroke="#020202" stroke-width="1.004625" stroke-miterlimit="10" cx="157.2307739" cy="48.75" rx="4.8750019" ry="4.8750019"/>
		</g>
		<g>
			<g transform="matrix(0.3601 0.9329 -0.9329 0.3601 125.3815 -90.9834)">
				<g>

						<ellipse transform="matrix(-0.3601022 0.9329128 -0.9329128 -0.3601022 241.4759369 -111.0498428)" fill="#C9A75B" cx="158.8232727" cy="27.2909107" rx="4.7499433" ry="4.7499385"/>
				</g>
			</g>
			<g display="none">
				<g transform="matrix(0.24 0 0 0.24 89.0386 5.9517)" display="inline">
				</g>
			</g>
			<g display="none">
				<g transform="matrix(0.24 0 0 0.24 89.4966 8.9214)" display="inline">
				</g>
			</g>
			<g transform="matrix(0.3611 0.9325 -0.9325 0.3611 125.2378 -90.9798)">
				<g>
					<polygon fill="#A87B65" points="158.3942871,22.2655067 159.3942871,22.2655067 159.3942871,32.2655067
						158.2692871,32.2655067 					"/>
				</g>
			</g>

				<ellipse id="connector18pin" fill="none" stroke="#020202" stroke-width="1.004625" stroke-miterlimit="10" cx="157.2307739" cy="67" rx="4.8750019" ry="4.8750019"/>
		</g>
	</g>
	<g>
		<g>
			<g transform="matrix(0.24 0 0 0.24 112.6685 51.9297)">
			</g>
			<g>
				<rect x="140.3557739" y="76" fill="#0B1019" width="28.3750057" height="53.1250038"/>
			</g>
		</g>
		<g display="none">
			<g transform="matrix(0.24 0 0 0.24 89.0024 37.5508)" display="inline">
			</g>
		</g>
		<g display="none">
			<g transform="matrix(0.24 0 0 0.24 89.0327 51.0801)" display="inline">
			</g>
		</g>
		<g display="none">
			<g transform="matrix(0.24 0 0 0.24 88.9751 24.4146)" display="inline">
			</g>
		</g>
		<path fill="#005899" d="M146.1057739,76v53.125h22.7499847V76H146.1057739z M157.1057739,79c3,0,5.375,2.375,5.375,5.375
			s-2.375,5.3750076-5.375,5.3750076s-5.375-2.3750076-5.375-5.3750076S154.1057739,79,157.1057739,79z M157.1057739,125.5
			c-3,0-5.375-2.375-5.375-5.375s2.375-5.3750076,5.375-5.3750076s5.375,2.3750076,5.375,5.3750076
			S160.1057587,125.5,157.1057739,125.5z M164.2307739,111.6250076h-13.625c-0.5000153,0-0.875-0.25-0.875-0.625
			c0-0.3750076,0.375-0.625,0.875-0.625h13.625c0.4999847,0,0.8749847,0.2499924,0.8749847,0.625
			C165.1057587,111.375,164.7307587,111.6250076,164.2307739,111.6250076z M151.8557739,102
			c0-2.8750076,2.375-5.3750076,5.375-5.3750076S162.6057587,99,162.6057587,102c0,2.875-2.375,5.375-5.375,5.375
			C154.2307739,107.2500076,151.8557739,104.875,151.8557739,102z M164.2307739,93.5000076h-13.625
			c-0.5000153,0-0.875-0.25-0.875-0.625c0-0.3750076,0.375-0.625,0.875-0.625h13.625
			c0.4999847,0,0.8749847,0.2499924,0.8749847,0.625C165.1057587,93.25,164.7307587,93.5000076,164.2307739,93.5000076z"/>
		<g>
			<g transform="matrix(0.9705 0.241 -0.241 0.9705 19.333 -29.1884)">
				<g>

						<ellipse transform="matrix(-0.9705231 0.2410083 -0.2410083 -0.9705231 335.9772339 112.7701187)" fill="#C9A75B" cx="161.0923462" cy="76.9312057" rx="4.8748755" ry="4.8748832"/>
				</g>
			</g>
			<g display="none">
				<g transform="matrix(0.24 0 0 0.24 89.063 24.479)" display="inline">
				</g>
			</g>
			<g display="none">
				<g transform="matrix(0.24 0 0 0.24 92.52 24.7349)" display="inline">
				</g>
			</g>
			<g transform="matrix(0.9705 0.2412 -0.2412 0.9705 19.3536 -29.2124)">
				<g>
					<polygon fill="#A87B65" points="160.650589,72.1297607 162.025589,72.0047607 161.525589,81.7547531 160.150589,81.8797531
											"/>
				</g>
			</g>

				<ellipse id="connector19pin" fill="none" stroke="#020202" stroke-width="1.004625" stroke-miterlimit="10" cx="157.1057739" cy="84.25" rx="4.8749948" ry="4.8750019"/>
		</g>
		<g>
			<g transform="matrix(0.9939 0.1101 -0.1101 0.9939 9.3267 -13.7378)">
				<g>

						<ellipse transform="matrix(-0.99392 0.1101048 -0.1101048 -0.99392 329.3843384 179.3209076)" fill="#C9A75B" cx="159.7410889" cy="98.7547989" rx="4.8748951" ry="4.8749027"/>
				</g>
			</g>
			<g display="none">
				<g transform="matrix(0.24 0 0 0.24 89.1216 37.6152)" display="inline">
				</g>
			</g>
			<g display="none">
				<g transform="matrix(0.24 0 0 0.24 93.1069 37.7168)" display="inline">
				</g>
			</g>
			<g transform="matrix(0.9939 0.1107 -0.1107 0.9939 9.3821 -13.8104)">
				<g>
					<polygon fill="#A87B65" points="159.1766357,93.880928 160.5516357,93.880928 160.3016357,103.5059357
						158.9266205,103.5059357 					"/>
				</g>
			</g>

				<ellipse id="connector20pin" fill="none" stroke="#020202" stroke-width="1.004625" stroke-miterlimit="10" cx="157.2307739" cy="102" rx="4.8750019" ry="4.8750019"/>
		</g>
		<g>
			<g transform="matrix(0.3601 0.9329 -0.9329 0.3601 167.5658 -62.0516)">
				<g>

						<ellipse transform="matrix(-0.3601022 0.9329128 -0.9329128 -0.3601022 296.3032532 -52.5004616)" fill="#C9A75B" cx="166.1570129" cy="75.3690033" rx="4.7499433" ry="4.7499433"/>
				</g>
			</g>
			<g display="none">
				<g transform="matrix(0.24 0 0 0.24 89.0386 51.167)" display="inline">
				</g>
			</g>
			<g display="none">
				<g transform="matrix(0.24 0 0 0.24 89.4966 54.1367)" display="inline">
				</g>
			</g>
			<g transform="matrix(0.3609 0.9326 -0.9326 0.3609 167.4337 -62.0851)">
				<g>
					<polygon fill="#A87B65" points="165.6800842,70.4124603 166.8050842,70.4124603 166.8050842,80.287468 165.5550842,80.287468
											"/>
				</g>
			</g>

				<ellipse id="connector21pin" fill="none" stroke="#020202" stroke-width="1.004625" stroke-miterlimit="10" cx="157.2307739" cy="120.125" rx="4.8750019" ry="4.8750019"/>
		</g>
	</g>
	<g>
		<g>
			<g transform="matrix(0.24 0 0 0.24 112.6685 96.9951)">
			</g>
			<g>
				<rect x="140.4807739" y="140.875" fill="#0B1019" width="28.3749962" height="53.125"/>
			</g>
		</g>
		<g display="none">
			<g transform="matrix(0.24 0 0 0.24 89.0024 82.6162)" display="inline">
			</g>
		</g>
		<g display="none">
			<g transform="matrix(0.24 0 0 0.24 89.0327 96.1455)" display="inline">
			</g>
		</g>
		<g display="none">
			<g transform="matrix(0.24 0 0 0.24 88.9751 69.48)" display="inline">
			</g>
		</g>
		<path fill="#005899" d="M146.1057739,140.875V194h22.7499847v-53.125
			C168.7307739,140.875,146.1057739,140.875,146.1057739,140.875z M157.2307739,143.75c3,0,5.3749847,2.375,5.3749847,5.375
			s-2.375,5.3750153-5.375,5.3750153s-5.375-2.3750153-5.375-5.3750153S154.2307739,143.75,157.2307739,143.75z M157.2307739,190.25
			c-3,0-5.375-2.375-5.375-5.375s2.375-5.3750153,5.375-5.3750153s5.3749847,2.375,5.3749847,5.3750153
			C162.6057587,187.875,160.2307739,190.25,157.2307739,190.25z M164.2307739,176.5h-13.625c-0.5000153,0-0.875-0.25-0.875-0.625
			s0.375-0.625,0.875-0.625h13.625c0.4999847,0,0.8749847,0.25,0.8749847,0.625
			C165.2307739,176.125,164.7307587,176.5,164.2307739,176.5z M151.8557739,166.75c0-2.8750153,2.375-5.3750153,5.375-5.3750153
			s5.3749847,2.375,5.3749847,5.3750153c0,2.875-2.375,5.375-5.375,5.375
			C154.2307739,172.0000153,151.8557739,169.625,151.8557739,166.75z M164.2307739,158.375h-13.625
			c-0.5000153,0-0.875-0.25-0.875-0.625s0.375-0.625,0.875-0.625h13.625c0.4999847,0,0.8749847,0.25,0.8749847,0.625
			C165.2307739,158,164.7307587,158.375,164.2307739,158.375z"/>
		<g>
			<g transform="matrix(0.9705 0.241 -0.241 0.9705 30.1916 -27.8606)">
				<g>

						<ellipse transform="matrix(-0.9705231 0.2410083 -0.2410083 -0.9705231 361.0670471 238.2051392)" fill="#C9A75B" cx="165.9664764" cy="141.1830444" rx="4.8748832" ry="4.8748832"/>
				</g>
			</g>
			<g display="none">
				<g transform="matrix(0.24 0 0 0.24 89.063 69.5444)" display="inline">
				</g>
			</g>
			<g display="none">
				<g transform="matrix(0.24 0 0 0.24 92.52 69.8003)" display="inline">
				</g>
			</g>
			<g transform="matrix(0.9705 0.2412 -0.2412 0.9705 30.2218 -27.8822)">
				<g>
					<polygon fill="#A87B65" points="165.4925537,136.2971649 166.867569,136.1721649 166.3675537,145.9221497
						164.8675537,146.0471649 					"/>
				</g>
			</g>

				<ellipse id="connector22pin" fill="none" stroke="#020202" stroke-width="1.004625" stroke-miterlimit="10" cx="157.2307739" cy="149.125" rx="4.8750019" ry="4.8750019"/>
		</g>
		<g>
			<g transform="matrix(0.9939 0.1101 -0.1101 0.9939 14.2878 -13.4639)">
				<g>

						<ellipse transform="matrix(-0.99392 0.1101048 -0.1101048 -0.99392 340.9354858 308.0281982)" fill="#C9A75B" cx="161.9630432" cy="163.4273682" rx="4.8749027" ry="4.8748932"/>
				</g>
			</g>
			<g display="none">
				<g transform="matrix(0.24 0 0 0.24 89.1216 82.6807)" display="inline">
				</g>
			</g>
			<g display="none">
				<g transform="matrix(0.24 0 0 0.24 93.1069 82.7822)" display="inline">
				</g>
			</g>
			<g transform="matrix(0.9939 0.1107 -0.1107 0.9939 14.3703 -13.5335)">
				<g>
					<polygon fill="#A87B65" points="161.4236145,158.5616913 162.7986298,158.5616913 162.5486145,168.1867065
						161.1736145,168.1867065 					"/>
				</g>
			</g>

				<ellipse id="connector23pin" fill="none" stroke="#020202" stroke-width="1.004625" stroke-miterlimit="10" cx="157.2307739" cy="166.75" rx="4.8750019" ry="4.8749924"/>
		</g>
		<g>
			<g transform="matrix(0.3601 0.9329 -0.9329 0.3601 209.6076 -33.2151)">
				<g>

						<ellipse transform="matrix(-0.3601022 0.9329128 -0.9329128 -0.3601022 370.1538696 1.2721481)" fill="#C9A75B" cx="184.6406403" cy="127.5828934" rx="4.7499433" ry="4.7499433"/>
				</g>
			</g>
			<g display="none">
				<g transform="matrix(0.24 0 0 0.24 89.0386 96.2324)" display="inline">
				</g>
			</g>
			<g display="none">
				<g transform="matrix(0.24 0 0 0.24 89.4966 99.2021)" display="inline">
				</g>
			</g>
			<g transform="matrix(0.3609 0.9326 -0.9326 0.3609 209.4614 -33.2851)">
				<g>
					<polygon fill="#A87B65" points="184.0618439,122.5871201 185.1868591,122.4621277 185.1868591,132.4621277
						184.0618439,132.5871124 					"/>
				</g>
			</g>

				<ellipse id="connector24pin" fill="none" stroke="#020202" stroke-width="1.004625" stroke-miterlimit="10" cx="157.2307739" cy="184.875" rx="4.8750019" ry="4.8749924"/>
		</g>
	</g>
	<g>
		<g>
			<g transform="matrix(0.24 0 0 0.24 112.6685 142.2051)">
			</g>
			<g>
				<rect x="140.4807739" y="194" fill="#0B1019" width="28.3749962" height="53.125"/>
			</g>
		</g>
		<g display="none">
			<g transform="matrix(0.24 0 0 0.24 89.0024 127.8262)" display="inline">
			</g>
		</g>
		<g display="none">
			<g transform="matrix(0.24 0 0 0.24 89.0327 141.3555)" display="inline">
			</g>
		</g>
		<g display="none">
			<g transform="matrix(0.24 0 0 0.24 88.9751 114.6904)" display="inline">
			</g>
		</g>
		<path fill="#005899" d="M146.1057739,194v53.125h22.7499847V194H146.1057739L146.1057739,194z M157.2307739,197.0000153
			c3,0,5.3749847,2.3749847,5.3749847,5.375c0,2.875-2.375,5.375-5.375,5.375s-5.375-2.3749847-5.375-5.375
			C151.8557739,199.375,154.2307739,197.0000153,157.2307739,197.0000153z M157.2307739,243.5c-3,0-5.375-2.3749847-5.375-5.375
			c0-2.9999847,2.375-5.375,5.375-5.375s5.3749847,2.3749847,5.3749847,5.375
			C162.6057587,241.125,160.2307739,243.5,157.2307739,243.5z M164.2307739,229.75h-13.625
			c-0.5000153,0-0.875-0.2499847-0.875-0.625c0-0.375,0.375-0.625,0.875-0.625h13.625c0.4999847,0,0.8749847,0.25,0.8749847,0.625
			C165.2307739,229.375,164.7307587,229.75,164.2307739,229.75z M151.8557739,220c0-2.875,2.375-5.375,5.375-5.375
			s5.3749847,2.3749847,5.3749847,5.375c0,2.875-2.375,5.375-5.375,5.375C154.2307739,225.25,151.8557739,222.875,151.8557739,220z
			 M164.2307739,211.625h-13.625c-0.5000153,0-0.875-0.2499847-0.875-0.625c0-0.375,0.375-0.625,0.875-0.625h13.625
			c0.4999847,0,0.8749847,0.25,0.8749847,0.625C165.2307739,211.25,164.7307587,211.625,164.2307739,211.625z"/>
		<g>
			<g transform="matrix(0.9705 0.241 -0.241 0.9705 41.085 -26.5286)">
				<g>

						<ellipse transform="matrix(-0.9705231 0.2410083 -0.2410083 -0.9705231 377.2834167 342.20578)" fill="#C9A75B" cx="167.7146606" cy="194.1750488" rx="4.8748765" ry="4.8748732"/>
				</g>
			</g>
			<g display="none">
				<g transform="matrix(0.24 0 0 0.24 89.063 114.7549)" display="inline">
				</g>
			</g>
			<g display="none">
				<g transform="matrix(0.24 0 0 0.24 92.52 115.0107)" display="inline">
				</g>
			</g>
			<g transform="matrix(0.9705 0.2412 -0.2412 0.9705 41.1248 -26.5478)">
				<g>
					<polygon fill="#A87B65" points="167.4682312,189.2134857 168.8432312,189.2134857 168.2182312,198.9634705
						166.8432312,199.0884857 					"/>
				</g>
			</g>

				<ellipse id="connector25pin" fill="none" stroke="#020202" stroke-width="1.004625" stroke-miterlimit="10" cx="157.2307739" cy="202.375" rx="4.8750019" ry="4.8749924"/>
		</g>
		<g>
			<g transform="matrix(0.9939 0.1101 -0.1101 0.9939 19.2647 -13.1892)">
				<g>

						<ellipse transform="matrix(-0.99392 0.1101048 -0.1101048 -0.99392 348.2393799 413.9194946)" fill="#C9A75B" cx="162.6913147" cy="216.5746765" rx="4.874896" ry="4.8748927"/>
				</g>
			</g>
			<g display="none">
				<g transform="matrix(0.24 0 0 0.24 89.1216 127.8906)" display="inline">
				</g>
			</g>
			<g display="none">
				<g transform="matrix(0.24 0 0 0.24 93.1069 127.9922)" display="inline">
				</g>
			</g>
			<g transform="matrix(0.9939 0.1107 -0.1107 0.9939 19.3744 -13.2557)">
				<g>
					<polygon fill="#A87B65" points="162.2995911,211.7422333 163.6745911,211.7422333 163.4245911,221.3672333
						162.0495911,221.3672333 					"/>
				</g>
			</g>

				<ellipse id="connector26pin" fill="none" stroke="#020202" stroke-width="1.004625" stroke-miterlimit="10" cx="157.2307739" cy="220" rx="4.8750019" ry="4.8749924"/>
		</g>
		<g>
			<g transform="matrix(0.3601 0.9329 -0.9329 0.3601 251.7843 -4.2861)">
				<g>

						<ellipse transform="matrix(-0.3601022 0.9329128 -0.9329128 -0.3601022 424.879303 59.6558075)" fill="#C9A75B" cx="191.9802856" cy="175.5431824" rx="4.7499433" ry="4.7499433"/>
				</g>
			</g>
			<g display="none">
				<g transform="matrix(0.24 0 0 0.24 89.0386 141.4424)" display="inline">
				</g>
			</g>
			<g display="none">
				<g transform="matrix(0.24 0 0 0.24 89.4966 144.4121)" display="inline">
				</g>
			</g>
			<g transform="matrix(0.3609 0.9326 -0.9326 0.3609 251.6239 -4.3927)">
				<g>
					<polygon fill="#A87B65" points="191.6023102,170.7386932 192.7273102,170.6137085 192.7273102,180.6137085
						191.4773102,180.6137085 					"/>
				</g>
			</g>

				<ellipse id="connector27pin" fill="none" stroke="#020202" stroke-width="1.004625" stroke-miterlimit="10" cx="157.2307739" cy="238.125" rx="4.8750019" ry="4.8749924"/>
		</g>
	</g>
</g>
<g id="Comps">
	<g id="Relay1Comps">
		<g>
			<rect x="58.7307663" y="51.625" fill="#788984" width="3.2499981" height="0.5000019"/>
			<rect x="58.7307663" y="43.125" fill="#788984" width="3.2499981" height="0.5000019"/>
			<rect x="58.8557701" y="43.6250038" fill="#CD5F28" width="2.874999" height="5"/>
			<rect x="58.8557701" y="50.25" fill="#39291B" width="2.874999" height="1.3749981"/>
			<rect x="58.8557701" y="48.6250038" fill="#131B1F" width="2.874999" height="1.624999"/>
		</g>
		<g>
			<rect x="11.6057692" y="64.25" fill="#F6EAAE" width="3.6249995" height="6.500001"/>
			<polyline fill="none" stroke="#EAE8BE" stroke-width="0.5" stroke-miterlimit="10" points="14.8557692,66.25 13.8557692,66.25
				13.4807692,65.75 			"/>
			<polyline fill="none" stroke="#EAE8BE" stroke-width="0.5" stroke-miterlimit="10" points="14.8557692,68.125 13.3557692,68.125
				12.9807692,67.625 12.3557692,66.625 			"/>

				<line fill="none" stroke="#EAE8BE" stroke-width="0.5" stroke-miterlimit="10" x1="12.6057692" y1="68.875" x2="12.9807692" y2="67.625"/>
			<rect x="11.6057692" y="70.25" fill="#F9EFC4" width="3.6249995" height="0.625"/>
			<rect x="11.6057692" y="64.25" fill="#F9EFC4" width="3.6249995" height="0.625"/>
			<polyline fill="#685F52" points="14.1057692,70.875 12.9807692,70.875 13.6057692,70.375 			"/>
			<polyline fill="#685F52" points="12.9807692,64.25 14.1057692,64.25 13.6057692,64.75 			"/>
			<g>
				<rect x="14.8557692" y="68.875" fill="#82AB71" width="0.3750002" height="0.7499981"/>
				<rect x="11.6057692" y="68.875" fill="#82AB71" width="0.3750002" height="0.7499981"/>
			</g>
		</g>
		<g>
			<rect x="47.1057701" y="45.5000038" fill="#020202" width="2.6249981" height="5.7499981"/>
			<rect x="47.1057701" y="45.5000038" fill="#C1C0BF" width="2.6249981" height="0.875001"/>
			<rect x="47.1057701" y="50.375" fill="#C1C0BF" width="2.6249981" height="0.875001"/>
		</g>
		<g>
			<rect x="57.3557701" y="23.75" fill="#303030" width="3.0000019" height="6.875"/>
			<polyline fill="#232323" points="57.3557701,23.75 57.2307701,23.3750019 60.6057663,23.3750019 60.3557701,23.75 			"/>
			<polygon fill="#3D3D3D" points="57.2307701,31 60.6057663,31 60.3557701,30.625 57.3557701,30.625 			"/>
			<polygon fill="#191919" points="60.6057663,31 60.3557701,30.625 60.3557701,23.75 60.6057663,23.3750019 60.6057663,30.8750019
							"/>
			<polygon fill="#191919" points="57.2307701,31 57.3557701,30.625 57.3557701,23.75 57.2307701,23.3750019 57.2307701,30.8750019
							"/>
			<rect x="60.6057663" y="26.625" fill="#999999" width="1.500001" height="1.3750005"/>
			<rect x="55.8557701" y="24.0000019" fill="#999999" width="1.25" height="1.25"/>
			<rect x="55.8557701" y="29.25" fill="#999999" width="1.25" height="1.1249995"/>
			<rect x="60.9807701" y="26.625" fill="#6D6D6D" width="0.5000019" height="1.3750005"/>
			<rect x="56.4807701" y="24.0000019" fill="#6D6D6D" width="0.374999" height="1.25"/>
			<rect x="56.4807701" y="29.25" fill="#6D6D6D" width="0.374999" height="1.1249995"/>
		</g>
		<g>
			<rect x="46.9807701" y="24.75" fill="#020202" width="2.6249981" height="5.7500005"/>
			<rect x="46.9807701" y="24.75" fill="#C1C0BF" width="2.6249981" height="0.875001"/>
			<rect x="46.9807701" y="29.6250019" fill="#C1C0BF" width="2.6249981" height="0.875001"/>
		</g>
		<g>
			<g>
				<g>
					<rect x="29.1057682" y="48.375" fill="#999999" width="1.7499995" height="4.124999"/>
					<rect x="29.1057682" y="50" fill="#666766" width="1.7499995" height="0.999999"/>
				</g>
				<g>
					<rect x="34.6057701" y="48.375" fill="#999999" width="1.7499995" height="4.124999"/>
					<rect x="34.6057701" y="50" fill="#666766" width="1.7499995" height="0.999999"/>
				</g>
			</g>
			<g>
				<g>
					<rect x="34.7307701" y="29.25" fill="#999999" width="1.7499995" height="4.000001"/>
					<rect x="34.7307701" y="30.625" fill="#666766" width="1.7499995" height="0.999999"/>
				</g>
				<g>
					<rect x="29.1057682" y="29.25" fill="#999999" width="1.7499995" height="4.000001"/>
					<rect x="29.1057682" y="30.625" fill="#666766" width="1.7499995" height="0.999999"/>
				</g>
			</g>
			<g>
				<g transform="matrix(0.24 0 0 0.24 17.3657 34.353)">
				</g>
				<g>
					<rect x="27.7307682" y="33.25" fill="#020202" width="9.875" height="15.125"/>
				</g>
			</g>
			<g>
				<rect x="27.7307682" y="33.25" fill="#2D2D2D" width="9.875" height="15.125"/>
				<circle fill="#232323" cx="29.8557701" cy="45.625" r="0.875001"/>
				<polygon fill="#191919" points="37.3557701,47.75 27.9807701,47.75 27.7307682,48.375 37.6057701,48.375 				"/>
				<polygon fill="#3D3D3D" points="37.3557701,47.75 37.6057701,48.375 37.6057701,33.25 37.3557701,33.75 				"/>
				<polygon fill="#232323" points="27.7307682,48.375 27.9807701,47.75 27.9807701,33.75 27.7307682,33.25 				"/>
				<polygon fill="#191919" points="37.3557701,33.75 27.9807701,33.75 27.7307682,33.25 37.6057701,33.25 				"/>
			</g>
		</g>
	</g>
	<g id="Relay2Comps">
		<g>
			<rect x="58.2307701" y="116.875" fill="#788984" width="3.2499981" height="0.5000019"/>
			<rect x="58.2307701" y="108.375" fill="#788984" width="3.2499981" height="0.5000019"/>
			<rect x="58.4807701" y="108.875" fill="#CD5F28" width="2.874999" height="5"/>
			<rect x="58.4807701" y="115.5" fill="#39291B" width="2.874999" height="1.3749981"/>
			<rect x="58.4807701" y="113.875" fill="#131B1F" width="2.874999" height="1.6250038"/>
		</g>
		<g>
			<rect x="11.6057692" y="87.8750076" fill="#F6EAAE" width="3.6249995" height="6.4999962"/>
			<polyline fill="none" stroke="#EAE8BE" stroke-width="0.5" stroke-miterlimit="10" points="14.8557692,89.875 13.8557692,89.875
				13.4807692,89.375 			"/>
			<polyline fill="none" stroke="#EAE8BE" stroke-width="0.5" stroke-miterlimit="10" points="14.8557692,91.75 13.3557692,91.75
				12.9807692,91.125 12.3557692,90.25 			"/>

				<line fill="none" stroke="#EAE8BE" stroke-width="0.5" stroke-miterlimit="10" x1="12.6057692" y1="92.5" x2="12.9807692" y2="91.125"/>
			<rect x="11.6057692" y="93.875" fill="#F9EFC4" width="3.6249995" height="0.625"/>
			<rect x="11.6057692" y="87.8750076" fill="#F9EFC4" width="3.6249995" height="0.625"/>
			<polyline fill="#685F52" points="14.1057692,94.5 12.9807692,94.5 13.6057692,94 			"/>
			<polyline fill="#685F52" points="12.9807692,87.8750076 14.1057692,87.8750076 13.6057692,88.375 			"/>
			<g>
				<rect x="14.8557692" y="92.5" fill="#82AB71" width="0.3750002" height="0.7499981"/>
				<rect x="11.6057692" y="92.5" fill="#82AB71" width="0.3750002" height="0.7499981"/>
			</g>
		</g>
		<g>
			<rect x="46.9807701" y="88" fill="#020202" width="2.6249981" height="5.7499981"/>
			<rect x="46.9807701" y="88" fill="#C1C0BF" width="2.6249981" height="0.8749962"/>
			<rect x="46.9807701" y="92.8750076" fill="#C1C0BF" width="2.6249981" height="0.8749962"/>
		</g>
		<g>
			<rect x="46.9807701" y="110.875" fill="#020202" width="2.6249981" height="5.7499981"/>
			<rect x="46.9807701" y="110.875" fill="#C1C0BF" width="2.6249981" height="0.8749962"/>
			<rect x="46.9807701" y="115.75" fill="#C1C0BF" width="2.6249981" height="0.8749962"/>
		</g>
		<g>
			<rect x="57.3557701" y="87.625" fill="#303030" width="3.0000019" height="6.875"/>
			<polyline fill="#232323" points="57.3557701,87.625 57.2307701,87.2500076 60.6057663,87.2500076 60.3557701,87.625 			"/>
			<polygon fill="#3D3D3D" points="57.2307701,95 60.6057663,95 60.3557701,94.5 57.3557701,94.5 			"/>
			<polygon fill="#191919" points="60.6057663,95 60.3557701,94.5 60.3557701,87.625 60.6057663,87.2500076 60.6057663,94.875
				"/>
			<polygon fill="#191919" points="57.2307701,95 57.3557701,94.5 57.3557701,87.625 57.2307701,87.2500076 57.2307701,94.875
				"/>
			<rect x="60.6057663" y="90.5" fill="#999999" width="1.500001" height="1.3749981"/>
			<rect x="55.8557701" y="88" fill="#999999" width="1.25" height="1.25"/>
			<rect x="55.8557701" y="93.25" fill="#999999" width="1.25" height="1.1250019"/>
			<rect x="60.9807701" y="90.5" fill="#6D6D6D" width="0.5000019" height="1.3749981"/>
			<rect x="56.4807701" y="88" fill="#6D6D6D" width="0.374999" height="1.25"/>
			<rect x="56.4807701" y="93.25" fill="#6D6D6D" width="0.374999" height="1.1250019"/>
		</g>
		<g>
			<g>
				<g>
					<rect x="29.1057682" y="110.5" fill="#999999" width="1.7499995" height="4.1250038"/>
					<rect x="29.1057682" y="112.125" fill="#666766" width="1.7499995" height="1.0000038"/>
				</g>
				<g>
					<rect x="34.6057701" y="110.5" fill="#999999" width="1.7499995" height="4.1250038"/>
					<rect x="34.6057701" y="112.125" fill="#666766" width="1.7499995" height="1.0000038"/>
				</g>
			</g>
			<g>
				<g>
					<rect x="34.7307701" y="91.5" fill="#999999" width="1.7499995" height="3.9999962"/>
					<rect x="34.7307701" y="92.8750076" fill="#666766" width="1.7499995" height="1.0000038"/>
				</g>
				<g>
					<rect x="29.1057682" y="91.5" fill="#999999" width="1.7499995" height="3.9999962"/>
					<rect x="29.1057682" y="92.8750076" fill="#666766" width="1.7499995" height="1.0000038"/>
				</g>
			</g>
			<g>
				<g transform="matrix(0.24 0 0 0.24 18.2183 77.3267)">
				</g>
				<g>
					<rect x="27.7307682" y="95.3750076" fill="#020202" width="9.875" height="15.1249981"/>
				</g>
			</g>
			<g>
				<rect x="27.7307682" y="95.3750076" fill="#2D2D2D" width="9.875" height="15.1249981"/>
				<circle fill="#232323" cx="29.8557701" cy="107.75" r="0.8749986"/>
				<polygon fill="#191919" points="37.3557701,110 27.9807701,110 27.7307682,110.5 37.6057701,110.5 				"/>
				<polygon fill="#3D3D3D" points="37.3557701,110 37.6057701,110.5 37.6057701,95.3750076 37.3557701,96.0000076 				"/>
				<polygon fill="#232323" points="27.7307682,110.5 27.9807701,110 27.9807701,96.0000076 27.7307682,95.3750076 				"/>
				<polygon fill="#191919" points="37.3557701,96.0000076 27.9807701,96.0000076 27.7307682,95.3750076 37.6057701,95.3750076
					"/>
			</g>
		</g>
	</g>
	<g id="Relay3Comps">
		<g>
			<rect x="57.9807701" y="177.25" fill="#788984" width="3.2499981" height="0.4999924"/>
			<rect x="57.9807701" y="168.75" fill="#788984" width="3.2499981" height="0.4999924"/>
			<rect x="58.2307701" y="169.375" fill="#CD5F28" width="2.874999" height="5"/>
			<rect x="58.2307701" y="175.875" fill="#39291B" width="2.874999" height="1.3750076"/>
			<rect x="58.2307701" y="174.375" fill="#131B1F" width="2.874999" height="1.6250038"/>
		</g>
		<g>
			<rect x="11.4807692" y="110.3750076" fill="#F6EAAE" width="3.6250007" height="6.4999962"/>
			<polyline fill="none" stroke="#EAE8BE" stroke-width="0.5" stroke-miterlimit="10" points="14.7307692,112.375
				13.8557692,112.375 13.3557692,112.125 			"/>
			<polyline fill="none" stroke="#EAE8BE" stroke-width="0.5" stroke-miterlimit="10" points="14.7307692,114.25 13.2307692,114.25
				12.8557692,113.875 12.2307692,112.8750076 			"/>

				<line fill="none" stroke="#EAE8BE" stroke-width="0.5" stroke-miterlimit="10" x1="12.4807701" y1="115.125" x2="12.8557692" y2="113.875"/>
			<rect x="11.4807692" y="116.5" fill="#F9EFC4" width="3.6250007" height="0.625"/>
			<rect x="11.4807692" y="110.3750076" fill="#F9EFC4" width="3.6250007" height="0.625"/>
			<polyline fill="#685F52" points="14.1057692,117.125 12.8557692,117.125 13.4807692,116.6250076 			"/>
			<polyline fill="#685F52" points="12.8557692,110.3750076 14.1057692,110.3750076 13.4807692,111.0000076 			"/>
			<g>
				<rect x="14.7307692" y="115.125" fill="#82AB71" width="0.3750002" height="0.7499981"/>
				<rect x="11.4807692" y="115.125" fill="#82AB71" width="0.3750002" height="0.7499981"/>
			</g>
		</g>
		<g>
			<rect x="47.1057701" y="147.125" fill="#020202" width="2.6249981" height="5.7499981"/>
			<rect x="47.1057701" y="147.125" fill="#C1C0BF" width="2.6249981" height="0.8749962"/>
			<rect x="47.1057701" y="152" fill="#C1C0BF" width="2.6249981" height="0.8749962"/>
		</g>
		<g>
			<rect x="46.8557663" y="170.7500153" fill="#020202" width="2.6249981" height="5.7500076"/>
			<rect x="46.8557663" y="170.7500153" fill="#C1C0BF" width="2.6249981" height="0.8749962"/>
			<rect x="46.8557663" y="175.625" fill="#C1C0BF" width="2.6249981" height="0.8749962"/>
		</g>
		<g>
			<rect x="57.3557701" y="146.375" fill="#303030" width="3.0000019" height="6.875"/>
			<polyline fill="#232323" points="57.3557701,146.375 57.2307701,146 60.6057663,146 60.3557701,146.375 			"/>
			<polygon fill="#3D3D3D" points="57.2307701,153.75 60.6057663,153.75 60.3557701,153.25 57.3557701,153.25 			"/>
			<polygon fill="#191919" points="60.6057663,153.75 60.3557701,153.25 60.3557701,146.375 60.6057663,146 60.6057663,153.625
				"/>
			<polygon fill="#191919" points="57.2307701,153.75 57.3557701,153.25 57.3557701,146.375 57.2307701,146 57.2307701,153.625
				"/>
			<rect x="60.6057663" y="149.25" fill="#999999" width="1.500001" height="1.3749981"/>
			<rect x="55.8557701" y="146.75" fill="#999999" width="1.25" height="1.25"/>
			<rect x="55.8557701" y="152" fill="#999999" width="1.25" height="1.1250019"/>
			<rect x="60.9807701" y="149.25" fill="#6D6D6D" width="0.5000019" height="1.3749981"/>
			<rect x="56.4807701" y="146.75" fill="#6D6D6D" width="0.374999" height="1.25"/>
			<rect x="56.4807701" y="152" fill="#6D6D6D" width="0.374999" height="1.1250019"/>
		</g>
		<g>
			<g>
				<g>
					<rect x="29.1057682" y="171.75" fill="#999999" width="1.7499995" height="4.1250038"/>
					<rect x="29.1057682" y="173.375" fill="#666766" width="1.7499995" height="1.0000038"/>
				</g>
				<g>
					<rect x="34.6057701" y="171.75" fill="#999999" width="1.7499995" height="4.1250038"/>
					<rect x="34.6057701" y="173.375" fill="#666766" width="1.7499995" height="1.0000038"/>
				</g>
			</g>
			<g>
				<g>
					<rect x="34.7307701" y="152.75" fill="#999999" width="1.7499995" height="3.9999962"/>
					<rect x="34.7307701" y="154.125" fill="#666766" width="1.7499995" height="1.0000038"/>
				</g>
				<g>
					<rect x="29.1057682" y="152.75" fill="#999999" width="1.7499995" height="3.9999962"/>
					<rect x="29.1057682" y="154.125" fill="#666766" width="1.7499995" height="1.0000038"/>
				</g>
			</g>
			<g>
				<g transform="matrix(0.24 0 0 0.24 17.9741 120.9795)">
				</g>
				<g>
					<rect x="27.7307682" y="156.75" fill="#020202" width="9.875" height="15.1249981"/>
				</g>
			</g>
			<g>
				<rect x="27.7307682" y="156.75" fill="#2D2D2D" width="9.875" height="15.1249981"/>
				<circle fill="#232323" cx="29.8557701" cy="169" r="0.8749986"/>
				<polygon fill="#191919" points="37.3557701,171.25 27.9807701,171.25 27.7307682,171.75 37.6057701,171.75 				"/>
				<polygon fill="#3D3D3D" points="37.3557701,171.25 37.6057701,171.75 37.6057701,156.75 37.3557701,157.25 				"/>
				<polygon fill="#232323" points="27.7307682,171.75 27.9807701,171.25 27.9807701,157.25 27.7307682,156.75 				"/>
				<polygon fill="#191919" points="37.3557701,157.25 27.9807701,157.25 27.7307682,156.75 37.6057701,156.75 				"/>
			</g>
		</g>
	</g>
	<g id="Relay4Comps">
		<g>
			<rect x="57.9807701" y="236.25" fill="#788984" width="3.2499981" height="0.4999924"/>
			<rect x="57.9807701" y="227.75" fill="#788984" width="3.2499981" height="0.4999924"/>
			<rect x="58.2307701" y="228.2500153" fill="#CD5F28" width="2.874999" height="5"/>
			<rect x="58.2307701" y="234.875" fill="#39291B" width="2.874999" height="1.3750076"/>
			<rect x="58.2307701" y="233.2500153" fill="#131B1F" width="2.874999" height="1.6250038"/>
		</g>
		<g>
			<rect x="11.4807692" y="134.125" fill="#F6EAAE" width="3.6250007" height="6.25"/>
			<polyline fill="none" stroke="#EAE8BE" stroke-width="0.48725" stroke-miterlimit="10" points="14.6057692,136.125
				13.7307701,136.125 13.2307692,135.625 			"/>
			<polyline fill="none" stroke="#EAE8BE" stroke-width="0.48725" stroke-miterlimit="10" points="14.6057692,137.875
				13.2307692,137.875 12.8557692,137.375 12.2307692,136.375 			"/>

				<line fill="none" stroke="#EAE8BE" stroke-width="0.48725" stroke-miterlimit="10" x1="12.4807701" y1="138.625" x2="12.8557692" y2="137.375"/>
			<rect x="11.4807692" y="139.875" fill="#F9EFC4" width="3.6250007" height="0.5000019"/>
			<rect x="11.4807692" y="134.125" fill="#F9EFC4" width="3.6250007" height="0.5000019"/>
			<polyline fill="#685F52" points="13.9807692,140.5 12.8557692,140.5 13.3557692,140 			"/>
			<polyline fill="#685F52" points="12.8557692,134.125 13.9807692,134.125 13.3557692,134.625 			"/>
			<g>
				<rect x="14.6057692" y="138.625" fill="#82AB71" width="0.3750002" height="0.625"/>
				<rect x="11.4807692" y="138.625" fill="#82AB71" width="0.3750002" height="0.625"/>
			</g>
		</g>
		<g>
			<rect x="47.1057701" y="208.125" fill="#020202" width="2.6249981" height="5.7500076"/>
			<rect x="47.1057701" y="208.125" fill="#C1C0BF" width="2.6249981" height="0.8749962"/>
			<rect x="47.1057701" y="213" fill="#C1C0BF" width="2.6249981" height="0.8749962"/>
		</g>
		<g>
			<rect x="46.8557663" y="228.625" fill="#020202" width="2.6249981" height="5.7500076"/>
			<rect x="46.8557663" y="228.625" fill="#C1C0BF" width="2.6249981" height="0.8749962"/>
			<rect x="46.8557663" y="233.5" fill="#C1C0BF" width="2.6249981" height="0.8749962"/>
		</g>
		<g>
			<rect x="57.3557701" y="208.2500153" fill="#303030" width="3.0000019" height="6.875"/>
			<polyline fill="#232323" points="57.3557701,208.2500153 57.2307701,207.875 60.6057663,207.875 60.3557701,208.2500153 			"/>
			<polygon fill="#3D3D3D" points="57.2307701,215.5 60.6057663,215.5 60.3557701,215.1250153 57.3557701,215.1250153 			"/>
			<polygon fill="#191919" points="60.6057663,215.5 60.3557701,215.1250153 60.3557701,208.2500153 60.6057663,207.875
				60.6057663,215.375 			"/>
			<polygon fill="#191919" points="57.2307701,215.5 57.3557701,215.1250153 57.3557701,208.2500153 57.2307701,207.875
				57.2307701,215.375 			"/>
			<rect x="60.6057663" y="211" fill="#999999" width="1.500001" height="1.3750076"/>
			<rect x="55.8557701" y="208.5" fill="#999999" width="1.25" height="1.25"/>
			<rect x="55.8557701" y="213.75" fill="#999999" width="1.25" height="1.1249924"/>
			<rect x="60.9807701" y="211" fill="#6D6D6D" width="0.5000019" height="1.3750076"/>
			<rect x="56.4807701" y="208.5" fill="#6D6D6D" width="0.374999" height="1.25"/>
			<rect x="56.4807701" y="213.75" fill="#6D6D6D" width="0.374999" height="1.1249924"/>
		</g>
		<g>
			<g>
				<g>
					<rect x="29.1057682" y="233.125" fill="#999999" width="1.7499995" height="4.1250038"/>
					<rect x="29.1057682" y="234.75" fill="#666766" width="1.7499995" height="1.0000038"/>
				</g>
				<g>
					<rect x="34.6057701" y="233.125" fill="#999999" width="1.7499995" height="4.1250038"/>
					<rect x="34.6057701" y="234.75" fill="#666766" width="1.7499995" height="1.0000038"/>
				</g>
			</g>
			<g>
				<g>
					<rect x="34.7307701" y="214" fill="#999999" width="1.7499995" height="3.9999962"/>
					<rect x="34.7307701" y="215.375" fill="#666766" width="1.7499995" height="1.0000038"/>
				</g>
				<g>
					<rect x="29.1057682" y="214" fill="#999999" width="1.7499995" height="3.9999962"/>
					<rect x="29.1057682" y="215.375" fill="#666766" width="1.7499995" height="1.0000038"/>
				</g>
			</g>
			<g>
				<g transform="matrix(0.24 0 0 0.24 18.0352 164.4473)">
				</g>
				<g>
					<rect x="27.7307682" y="218" fill="#020202" width="9.875" height="15.1250076"/>
				</g>
			</g>
			<g>
				<rect x="27.7307682" y="218" fill="#2D2D2D" width="9.875" height="15.1250076"/>
				<circle fill="#232323" cx="29.8557701" cy="230.375" r="0.8749986"/>
				<polygon fill="#191919" points="37.3557701,232.5 27.9807701,232.5 27.7307682,233.125 37.6057701,233.125 				"/>
				<polygon fill="#3D3D3D" points="37.3557701,232.5 37.6057701,233.125 37.6057701,218 37.3557701,218.625 				"/>
				<polygon fill="#232323" points="27.7307682,233.125 27.9807701,232.5 27.9807701,218.625 27.7307682,218 				"/>
				<polygon fill="#191919" points="37.3557701,218.625 27.9807701,218.625 27.7307682,218 37.6057701,218 				"/>
			</g>
		</g>
	</g>
</g>
<g>
	<path id="connector8pin" fill="#9A916C" d="M14.2307692,158.875c-1.375,0-2.374999,1.125-2.374999,2.375
		s1.124999,2.375,2.374999,2.375c1.375001,0,2.374999-1.125,2.374999-2.375S15.4807692,158.875,14.2307692,158.875z
		 M14.2307692,162.6250153c-0.75,0-1.375-0.625-1.375-1.3750153c0-0.75,0.625-1.375,1.375-1.375
		c0.750001,0,1.375001,0.625,1.375001,1.375C15.6057701,162.0000153,14.9807701,162.6250153,14.2307692,162.6250153z"/>
	<path id="connector9pin" fill="#9A916C" d="M14.2307692,167.8738098c-1.375,0-2.374999,1.125-2.374999,2.375
		s1.124999,2.3750153,2.374999,2.3750153c1.375001,0,2.374999-1.125,2.374999-2.375S15.4807692,167.8738098,14.2307692,167.8738098z
		 M14.2307692,171.7488251c-0.75,0-1.375-0.625-1.375-1.3750153c0-0.75,0.625-1.375,1.375-1.375
		c0.750001,0,1.375001,0.625,1.375001,1.375C15.6057701,171.1238251,14.9807701,171.7488251,14.2307692,171.7488251z"/>
	<path id="connector10pin" fill="#9A916C" d="M14.2307692,176.875c-1.375,0-2.374999,1.125-2.374999,2.375
		s1.124999,2.3749847,2.374999,2.3749847c1.375001,0,2.374999-1.1249847,2.374999-2.3749847S15.4807692,176.875,14.2307692,176.875z
		 M14.2307692,180.7500153c-0.75,0-1.375-0.625-1.375-1.3750153c0-0.75,0.625-1.375,1.375-1.375
		c0.750001,0,1.375001,0.625,1.375001,1.375C15.6057701,180,14.9807701,180.7500153,14.2307692,180.7500153z"/>
	<path id="connector11pin" fill="#9A916C" d="M14.2307692,185.875c-1.375,0-2.374999,1.1249847-2.374999,2.3749847
		s1.124999,2.375,2.374999,2.375c1.375001,0,2.374999-1.125,2.374999-2.375S15.4807692,185.875,14.2307692,185.875z
		 M14.2307692,189.75c-0.75,0-1.375-0.625-1.375-1.375c0-0.7500153,0.625-1.3750153,1.375-1.3750153
		c0.750001,0,1.375001,0.625,1.375001,1.3750153C15.6057701,189.125,14.9807701,189.75,14.2307692,189.75z"/>
	<path id="connector12pin" fill="#9A916C" d="M14.2307692,194.875c-1.375,0-2.374999,1.1249847-2.374999,2.3749847
		s1.124999,2.375,2.374999,2.375c1.375001,0,2.374999-1.125,2.374999-2.375S15.4807692,194.875,14.2307692,194.875z
		 M14.2307692,198.75c-0.75,0-1.375-0.625-1.375-1.375c0-0.7500153,0.625-1.3750153,1.375-1.3750153
		c0.750001,0,1.375001,0.625,1.375001,1.3750153C15.6057701,198.125,14.9807701,198.75,14.2307692,198.75z"/>
	<path id="connector13pin" fill="#9A916C" d="M14.2307692,203.8750153c-1.375,0-2.374999,1.1249847-2.374999,2.3749847
		s1.124999,2.375,2.374999,2.375c1.375001,0,2.374999-1.125,2.374999-2.375S15.4807692,203.8750153,14.2307692,203.8750153z
		 M14.2307692,207.6250153c-0.75,0-1.375-0.625-1.375-1.3750153c0-0.75,0.625-1.375,1.375-1.375
		c0.750001,0,1.375001,0.625,1.375001,1.375C15.6057701,207.0000153,14.9807701,207.6250153,14.2307692,207.6250153z"/>
</g>
<g>
	<path id="connector15pin" fill="#9A916C" d="M47.4807663,245.875c-1.3749962,0-2.375,1.1249847-2.375,2.3749847
		s1.125,2.375,2.375,2.375s2.3750038-1.125,2.3750038-2.375S48.7307663,245.875,47.4807663,245.875z M47.4807663,249.75
		c-0.7499962,0-1.3749962-0.625-1.3749962-1.375c0-0.7500153,0.625-1.3750153,1.3749962-1.3750153
		c0.75,0,1.375,0.625,1.375,1.3750153C48.8557663,249.125,48.2307701,249.75,47.4807663,249.75z"/>
	<path id="connector14pin" fill="#9A916C" d="M38.4807701,245.875c-1.375,0-2.375,1.1249847-2.375,2.3749847
		s1.125,2.375,2.375,2.375s2.375-1.125,2.375-2.375S39.8557701,245.875,38.4807701,245.875z M38.4807701,249.75
		c-0.75,0-1.375-0.625-1.375-1.375c0-0.7500153,0.625-1.3750153,1.375-1.3750153s1.375,0.625,1.375,1.3750153
		C39.8557701,249.125,39.2307701,249.75,38.4807701,249.75z"/>
</g>
<g id="silkscreen">
	<g id="Led_1_Mark">
		<polyline fill="none" stroke="#FFFFFF" stroke-width="0.75" stroke-miterlimit="10" points="16.1057701,66.75 16.1057701,62
			10.6057701,62 10.6057701,66.75 		"/>
		<polyline fill="none" stroke="#FFFFFF" stroke-width="0.75" stroke-miterlimit="10" points="16.1057701,69.125 16.1057701,73.25
			15.1057692,74.25 11.7307692,74.25 10.6057701,73.125 10.6057701,69.125 		"/>
	</g>
	<g id="Led_2_Mark">
		<polyline fill="none" stroke="#FFFFFF" stroke-width="0.75" stroke-miterlimit="10" points="16.1057701,89.7500076 16.1057701,85
			10.6057701,85 10.6057701,89.7500076 		"/>
		<polyline fill="none" stroke="#FFFFFF" stroke-width="0.75" stroke-miterlimit="10" points="16.1057701,92.125 16.1057701,96.25
			14.9807701,97.2500076 11.7307692,97.2500076 10.6057701,96.125 10.6057701,92.125 		"/>
	</g>
	<g id="Led_3_Mark">
		<polyline fill="none" stroke="#FFFFFF" stroke-width="0.75" stroke-miterlimit="10" points="16.1057701,112.75
			16.1057701,108.125 10.6057701,108.125 10.6057701,112.75 		"/>
		<polyline fill="none" stroke="#FFFFFF" stroke-width="0.75" stroke-miterlimit="10" points="16.1057701,115.25
			16.1057701,119.375 14.9807701,120.3750076 11.7307692,120.3750076 10.6057701,119.25 10.6057701,115.25 		"/>
	</g>
	<g id="Led_4_Mark">
		<polyline fill="none" stroke="#FFFFFF" stroke-width="0.7485" stroke-miterlimit="10" points="16.1057701,135.75
			16.1057701,131.125 10.6057701,131.125 10.6057701,135.75 		"/>
		<polyline fill="none" stroke="#FFFFFF" stroke-width="0.7485" stroke-miterlimit="10" points="16.1057701,138.25
			16.1057701,142.25 14.9807701,143.375 11.7307692,143.375 10.6057701,142.25 10.6057701,138.25 		"/>
	</g>
	<g>
		<polyline fill="none" stroke="#FFFFFF" stroke-width="0.75" stroke-miterlimit="10" points="63.9807701,45 63.9807701,40
			56.7307701,40 56.7307701,45 		"/>
		<polyline fill="none" stroke="#FFFFFF" stroke-width="0.75" stroke-miterlimit="10" points="63.9807701,51 63.9807701,55.25
			62.8557701,56.375 57.9807701,56.375 56.7307701,55.125 56.7307701,51 		"/>
	</g>
	<g>
		<polyline fill="none" stroke="#FFFFFF" stroke-width="0.75" stroke-miterlimit="10" points="63.4807701,110 63.4807701,105
			56.2307663,105 56.2307663,110 		"/>
		<polyline fill="none" stroke="#FFFFFF" stroke-width="0.75" stroke-miterlimit="10" points="63.4807701,116.0000076
			63.4807701,120.25 62.4807663,121.375 57.6057701,121.375 56.2307663,120 56.2307663,116.0000076 		"/>
	</g>
	<g>
		<polyline fill="none" stroke="#FFFFFF" stroke-width="0.75" stroke-miterlimit="10" points="63.4807701,170.1250153
			63.4807701,165.1250153 56.2307663,165.1250153 56.2307663,170.1250153 		"/>
		<polyline fill="none" stroke="#FFFFFF" stroke-width="0.75" stroke-miterlimit="10" points="63.4807701,176.125
			63.4807701,180.375 62.4807663,181.5 57.6057701,181.5 56.2307663,180.25 56.2307663,176.125 		"/>
	</g>
	<g>
		<polyline fill="none" stroke="#FFFFFF" stroke-width="0.75" stroke-miterlimit="10" points="63.3557701,229 63.3557701,224
			56.1057701,224 56.1057701,229 		"/>
		<polyline fill="none" stroke="#FFFFFF" stroke-width="0.75" stroke-miterlimit="10" points="63.3557701,235 63.3557701,239.25
			62.2307701,240.375 57.3557701,240.375 56.1057701,239.125 56.1057701,235 		"/>
	</g>
	<g>
		<polyline fill="none" stroke="#FFFFFF" stroke-width="0.75" stroke-miterlimit="10" points="51.1057701,47 51.1057701,42.25
			45.7307701,42.25 45.7307701,47 		"/>
		<polyline fill="none" stroke="#FFFFFF" stroke-width="0.75" stroke-miterlimit="10" points="51.1057701,49.375 51.1057701,54.375
			45.7307701,54.375 45.7307701,49.375 		"/>
	</g>
	<g>
		<polyline fill="none" stroke="#FFFFFF" stroke-width="0.75" stroke-miterlimit="10" points="51.1057701,26.125 51.1057701,21.375
			45.7307701,21.375 45.7307701,26.125 		"/>
		<polyline fill="none" stroke="#FFFFFF" stroke-width="0.75" stroke-miterlimit="10" points="51.1057701,28.625 51.1057701,33.625
			45.7307701,33.625 45.7307701,28.625 		"/>
	</g>
	<g>
		<polyline fill="none" stroke="#FFFFFF" stroke-width="0.55825" stroke-miterlimit="10" points="61.4807701,29.75
			61.4807701,31.875 59.1057701,31.875 		"/>
		<polyline fill="none" stroke="#FFFFFF" stroke-width="0.55825" stroke-miterlimit="10" points="60.3557701,22.5 61.4807701,22.5
			61.4807701,24.5 		"/>
	</g>
	<g>
		<polyline fill="none" stroke="#FFFFFF" stroke-width="0.75" stroke-miterlimit="10" points="51.1057701,89.7500076 51.1057701,85
			45.7307701,85 45.7307701,89.7500076 		"/>
		<polyline fill="none" stroke="#FFFFFF" stroke-width="0.75" stroke-miterlimit="10" points="51.1057701,92.125 51.1057701,97.125
			45.7307701,97.125 45.7307701,92.125 		"/>
	</g>
	<g>
		<polyline fill="none" stroke="#FFFFFF" stroke-width="0.75" stroke-miterlimit="10" points="51.1057701,112.5 51.1057701,107.75
			45.7307701,107.75 45.7307701,112.5 		"/>
		<polyline fill="none" stroke="#FFFFFF" stroke-width="0.75" stroke-miterlimit="10" points="51.1057701,115 51.1057701,120
			45.7307701,120 45.7307701,115 		"/>
	</g>
	<g>
		<polyline fill="none" stroke="#FFFFFF" stroke-width="0.6315" stroke-miterlimit="10" points="61.4807701,88.375
			61.4807701,86.375 58.3557701,86.375 		"/>
		<polyline fill="none" stroke="#FFFFFF" stroke-width="0.6315" stroke-miterlimit="10" points="59.8557701,95.3750076
			61.4807701,95.3750076 61.4807701,93.5000076 		"/>
	</g>
	<g>
		<path fill="none" stroke="#FFFFFF" stroke-width="0.75" stroke-miterlimit="10" d="M51.1057701,148.5v-4.75h-5.375v4.75"/>
		<polyline fill="none" stroke="#FFFFFF" stroke-width="0.75" stroke-miterlimit="10" points="51.1057701,150.875
			51.1057701,155.875 45.7307701,155.875 45.7307701,150.875 		"/>
	</g>
	<g>
		<polyline fill="none" stroke="#FFFFFF" stroke-width="0.75" stroke-miterlimit="10" points="51.1057701,172.0000153
			51.1057701,167.25 45.7307701,167.25 45.7307701,172.0000153 		"/>
		<polyline fill="none" stroke="#FFFFFF" stroke-width="0.75" stroke-miterlimit="10" points="51.1057701,174.5000153
			51.1057701,179.5000153 45.7307701,179.5000153 45.7307701,174.5000153 		"/>
	</g>
	<g>
		<polyline fill="none" stroke="#FFFFFF" stroke-width="0.634375" stroke-miterlimit="10" points="60.7307701,147.625
			60.7307701,145.625 57.7307701,145.625 		"/>
		<polyline fill="none" stroke="#FFFFFF" stroke-width="0.634375" stroke-miterlimit="10" points="59.2307701,154.75
			60.7307701,154.75 60.7307701,152.75 		"/>
	</g>
	<g>
		<polyline fill="none" stroke="#FFFFFF" stroke-width="0.75" stroke-miterlimit="10" points="51.1057701,209.875
			51.1057701,205.1250153 45.7307701,205.1250153 45.7307701,209.875 		"/>
		<polyline fill="none" stroke="#FFFFFF" stroke-width="0.75" stroke-miterlimit="10" points="51.1057701,212.25 51.1057701,217.25
			45.7307701,217.25 45.7307701,212.25 		"/>
	</g>
	<g>
		<polyline fill="none" stroke="#FFFFFF" stroke-width="0.75" stroke-miterlimit="10" points="50.9807701,230.375
			50.9807701,225.625 45.6057663,225.625 45.6057663,230.375 		"/>
		<polyline fill="none" stroke="#FFFFFF" stroke-width="0.75" stroke-miterlimit="10" points="50.9807701,232.75 50.9807701,237.75
			45.6057663,237.75 45.6057663,232.75 		"/>
	</g>
	<g>
		<polyline fill="none" stroke="#FFFFFF" stroke-width="0.625375" stroke-miterlimit="10" points="61.2307663,209.125
			61.2307663,207.25 58.1057663,207.25 		"/>
		<polyline fill="none" stroke="#FFFFFF" stroke-width="0.625375" stroke-miterlimit="10" points="59.7307701,216.125
			61.2307663,216.125 61.2307663,214.125 		"/>
	</g>

		<rect x="10.8557692" y="157.5" fill="none" stroke="#FFFFFF" stroke-width="0.659125" stroke-miterlimit="10" width="6.750001" height="52.3749924"/>

		<rect x="35.4807701" y="245" fill="none" stroke="#FFFFFF" stroke-width="0.623375" stroke-miterlimit="10" width="15" height="6.6250038"/>
	<g>
		<path display="none" fill="#FFFFFF" d="M51.8557663,245.875L51.8557663,245.875L51.8557663,245.875
			c0.125,0.125,0.125,0.125,0.125,0.125s0,0,0,0.1250153v0.125v0.1250153c0,0,0,0,0,0.125h2.6249962c0,0,0,0,0-0.125V246.25v-0.125
			c0,0,0,0,0-0.1250153l0,0l0,0l0,0l0,0l0,0l0,0l0,0l0,0v1.125l0,0l0,0l0,0l0,0l0,0l0,0c0,0,0,0,0-0.1250153v-0.125v-0.1250153
			c0,0,0,0,0-0.125h-2.6249962c0,0,0,0,0,0.125v0.1250153v0.125c0,0,0,0,0,0.1250153l0,0l0,0l0,0l0,0l0,0l0,0L51.8557663,245.875
			C51.7307701,245.875,51.7307701,245.875,51.8557663,245.875C51.7307701,245.875,51.7307701,245.875,51.8557663,245.875
			L51.8557663,245.875L51.8557663,245.875z"/>
	</g>
	<g id="_x34__Relay_Module">
		<path fill="#FFFFFF" d="M138.8557587,6.375L138.8557587,6.375c0.125,0.125,0.125,0.125,0.125,0.2499995l0,0v0.125c0,0,0,0,0,0.125
			c0,0,0,0,0,0.125c-0.8749847,0.8749995-1.75,1.7499995-2.625,2.4999995l0,0l0,0c0,0,0,0-0.1249847,0c0,0-0.125,0-0.125-0.125
			c0,0-0.125,0-0.125-0.124999V7h-0.125c0,0-0.125,0-0.25,0s-0.125,0-0.25,0h-0.1249847c0,0,0,0-0.125,0c0,0,0,0-0.125-0.125
			V6.6250005V6.5c0,0,0,0,0.125-0.125c0,0,0,0,0.125,0c0,0,0,0,0.1249847,0c0,0,0.125,0,0.25,0s0.125,0,0.25,0h0.125v-2.25
			c0,0,0,0,0.125-0.125c0,0,0.125,0,0.125-0.1249998l0,0l0,0c0,0,0,0,0.1249847,0c0,0,0.125,0,0.125,0.1249998
			c0,0,0.125,0,0.125,0.125V6.25C136.4807739,6.375,138.8557587,6.375,138.8557587,6.375z M137.3557739,7.625
			c0.2499847-0.25,0.5-0.3750005,0.625-0.625h-1.375v1.25C136.8557739,8,137.1057739,7.8750005,137.3557739,7.625z"/>
		<path fill="#FFFFFF" d="M125.8557739,9.5l-1.0000076-1v-2l0,0l0.125-0.125l0.125-0.125l0.125-0.125l0.1249924-0.1249995
			c0.125,0,0.125-0.125,0.25-0.125s0.125-0.125,0.2499924-0.125c0.125,0,0.125-0.125,0.125-0.125c-0.75-0.875-1.125-1.25-1.125-1.25
			l0,0c0,0,0,0,0-0.1249995c0,0,0,0,0.125-0.125c0,0,0,0,0.1249924-0.125l0,0l0,0c0,0,0,0,0.125,0l1.6250076,1.5h1.3749924V4.125
			c0,0,0,0,0.125-0.125c0,0,0.125,0,0.125-0.1249998l0,0l0,0c0,0,0,0,0.125,0c0,0,0,0,0.125,0.1249998c0,0,0,0,0,0.125v5.375001
			C128.7307739,9.5,125.8557739,9.5,125.8557739,9.5z M128.1057739,6.25c-1.2500076,0-2.0000076,0-2.0000076,0l-0.1249924,0.125
			l-0.125,0.125l-0.125,0.1249995c0,0,0,0-0.125,0.125l0,0V8.249999l0.5000076,0.5h2.1249924V6.25H128.1057739z"/>
		<path fill="#FFFFFF" d="M123.1057663,6.875l-1,1.0000005h-1.875l-1-1.0000005v-1.25h3.125c0,0,0,0,0-0.125V5.3750005V5.25V5.125
			c0,0,0-0.125-0.1249924-0.125c0-0.125-0.125-0.125-0.125-0.25s-0.125-0.125-0.125-0.125l-0.125-0.125h-1.625
			c0,0,0,0-0.125-0.1249995c0,0,0-0.125-0.125-0.125l0,0V4.125c0,0,0,0,0.125-0.125c0,0,0,0,0.125,0h1.875l0.9999924,1V6.875
			L123.1057663,6.875z M119.8557663,6.375L119.8557663,6.375v0.2499995v0.125l0.125,0.125c0,0.125,0.125,0.125,0.125,0.125
			c0.125,0,0.125,0.1249995,0.125,0.1249995l0.1249924,0.125h1.5c0,0,0,0,0.125-0.125l0.1249924-0.1249995l0.125-0.125
			c0-0.125,0.125-0.125,0.125-0.125s0,0,0-0.125V6.5V6.375V6.25L119.8557663,6.375
			C119.8557663,6.25,119.8557663,6.25,119.8557663,6.375z"/>
		<path fill="#FFFFFF" d="M117.7307739,4.25L117.7307739,4.25C117.7307739,4.375,117.7307739,4.375,117.7307739,4.25
			c-0.125,0.125-0.125,0.125-0.25,0.25c0,0,0,0-0.1249924,0c-0.125,0-0.125,0-0.125,0h-0.125h-0.125v4.25c0,0,0,0,0.125,0h0.125
			h0.125h0.1249924c0,0,0,0,0.125,0c0,0,0,0,0,0.125l0,0l0,0l0,0l0,0c0,0,0,0-0.125,0.125c0,0,0,0-0.1249924,0h-1.1250076V4.625
			h-0.1249924c0,0-0.125,0-0.25,0s-0.125,0-0.2499924,0h-0.1250229c0,0,0,0-0.1249924-0.125c-0.125-0.1249995,0,0-0.125-0.1249995
			V4.25V4.125c0,0,0,0,0.125-0.125c0,0,0,0,0.1249924,0h1.875c0,0,0,0,0.125,0
			C117.6057663,4.125,117.6057663,4.125,117.7307739,4.25C117.6057663,4.125,117.7307739,4.125,117.7307739,4.25L117.7307739,4.25z"
			/>
		<path fill="#FFFFFF" d="M113.8557663,5.125C113.8557663,5.125,113.8557663,5.25,113.8557663,5.125
			C113.8557663,5.25,113.8557663,5.25,113.8557663,5.125L113.8557663,5.125l-0.125,0.2499995l-0.125,0.125l-0.1249924,0.125
			l-0.125,0.125l-0.125,0.1249995l-0.125,0.125h-0.1250076h-1.9999924c0,0,0,0,0,0.125V6.25v0.125V6.5
			c0,0,0,0.1249995,0.1249924,0.1249995c0,0.125,0.125,0.125,0.125,0.25s0.125,0.125,0.125,0.125l0.125,0.1249995h1.5
			c0,0,0,0,0.125,0.125s-0.125,0.250001-0.125,0.250001l0,0l0,0c0,0,0,0,0,0.125c0,0,0,0-0.1249924,0.125
			c-0.125,0.1249995,0,0-0.125,0h-1.6250076l-1-1.0000005V4h2.625L113.8557663,5.125C113.8557663,5,113.8557663,5,113.8557663,5.125
			L113.8557663,5.125z M113.2307663,5.125C113.2307663,5.125,113.2307663,5,113.2307663,5.125
			C113.1057663,5,113.1057663,5,113.2307663,5.125c0-0.125-0.125-0.125-0.125-0.25l-0.125-0.125l-0.1249924-0.125c0,0,0,0-0.125,0
			h-2v1h1.875L113.2307663,5.125C113.1057663,5.125,113.1057663,5.125,113.2307663,5.125L113.2307663,5.125z"/>
		<path fill="#FFFFFF" d="M106.9807663,2.5L106.9807663,2.5C106.9807663,2.625,106.9807663,2.625,106.9807663,2.5
			C106.9807663,2.625,106.9807663,2.625,106.9807663,2.5c-0.125,0.125-0.125,0.125-0.25,0.25c0,0,0,0-0.1249924,0
			c-0.125,0-0.125,0-0.25,0s-0.125,0-0.2499924,0c-0.125,0-0.125,0-0.125,0s0,0-0.125,0l-0.125,0.125l-0.1249924,0.1249998
			L105.4807663,3.125c0,0,0,0-0.1249924,0.125l0,0c0,0,0,0,0,0.1249998v0.125v0.1249998V3.75h1.9999924c0,0,0,0,0.125,0l0.125,0.125
			l0.125,0.1249998l0.1249924,0.1249998L107.9807663,4.25l0.125,0.125l0.125,0.125v3c0,0,0,0,0,0.125c0,0,0,0-0.125,0.125
			c-0.125,0.1249995,0,0,0,0l0,0c0,0,0,0-0.125,0c0,0-0.1249924,0-0.1249924-0.125c0,0-0.125,0-0.125-0.125V5.125
			c0,0,0,0-0.125-0.125s0.25,0,0.25,0s0,0-0.125-0.125l-0.125-0.1249995l-0.125-0.125l-0.1249924-0.125h-1.8750153V7.5
			c0,0,0,0-0.1249924,0.125l-0.125,0.125l0,0l0,0c0,0,0,0-0.125,0c0,0,0,0-0.125-0.125c0,0,0,0,0-0.125V3.125l0,0l0.125-0.1249998
			l0.125-0.125l0.125-0.1249998L105.4807663,2.625l0.125-0.125l0.125-0.125h0.125c0,0,0,0,0.1249924,0h0.125h0.125h0.125
			c0,0,0,0,0.1249924,0h0.125h0.1250153h0.125C106.8557663,2.375,106.8557663,2.375,106.9807663,2.5
			C107.1057739,2.625,106.9807663,2.5,106.9807663,2.5L106.9807663,2.5L106.9807663,2.5z"/>
		<path fill="#FFFFFF" d="M98.1057663,9.375L98.1057663,9.375L98.1057663,9.375c-0.125,0-0.125-0.125-0.2499924-0.125
			c-0.125,0-0.125-0.125-0.25-0.25c-0.125-0.124999-0.1250076-0.125-0.2500076-0.25
			c-0.1249924-0.125-0.1249924-0.125-0.1249924-0.125l-0.125-0.125c-0.125,0-0.125-0.125-0.25-0.125
			c-0.1249924,0-0.1250076-0.125-0.25-0.125l-0.125-0.125l0,0l0,0l0,0l0,0c0,0,0,0-0.125,0.125c0,0-0.125,0.125-0.2499924,0.125
			c-0.125,0-0.125,0.125-0.25,0.125s-0.125,0.125-0.2499924,0.125L95.4807663,8.75C95.3557739,8.875,95.3557739,8.875,95.2307739,9
			s-0.125,0.125-0.25,0.25c-0.1249924,0.124999-0.1249924,0.124999-0.1249924,0.124999l0,0l0,0c0,0,0,0-0.125,0
			c0,0,0,0-0.125-0.124999c-0.125-0.125,0,0,0-0.125V4.1249995c0,0,0,0,0-0.1249998c0,0,0,0,0.125-0.1249998l0,0l0,0
			c0,0,0,0,0.125,0c0,0,0.1249924,0,0.1249924,0.1249998c0,0,0.125,0,0.125,0.1249998V8.125c0,0,0,0,0.125,0
			c0,0,0.125,0,0.125-0.125c0,0,0.1249924,0,0.1249924-0.1249995h0.125l0.125-0.125c0.125-0.125,0.125-0.125,0.2499924-0.25
			c0.125,0,0.125,0,0.25-0.1249995c0.125-0.125,0.125-0.125,0.125-0.125h0.1249924l0.125,0.125
			C96.7307663,7.5,96.8557663,7.5,96.9807663,7.625s0.125,0.125,0.2499924,0.2499995c0.125,0.125,0.125,0.125,0.125,0.125
			s0,0,0.125,0c0,0,0.125,0,0.125,0.1249995c0,0,0.1249924,0,0.1249924,0.125s0.125,0,0.125,0V4.125c0,0,0,0,0.125-0.125
			c0,0,0.125,0,0.125-0.1249998l0,0l0,0c0,0,0,0,0.1249924,0c0,0,0,0,0.125,0.1249998c0,0,0,0,0,0.125v5c0,0,0,0,0,0.125
			C98.2307663,9.375,98.2307663,9.375,98.1057663,9.375C98.2307663,9.375,98.2307663,9.375,98.1057663,9.375L98.1057663,9.375z"/>
		<path fill="#FFFFFF" d="M92.8557739,6.875L92.8557739,6.875C92.7307739,7,92.7307739,7,92.8557739,6.875l-0.25,0.25
			l-0.125,0.1249995l-0.1249924,0.125L92.2307739,7.5l-0.125,0.125h-0.125h-1.875c0,0,0,0-0.125,0L89.8557663,7.5l-0.1249924-0.125
			l-0.125-0.1249995l-0.125-0.125l-0.125-0.125L89.2307663,6.875l0,0V5l1.0000076-1h1.875l0.75,1V6.875L92.8557739,6.875z
			 M91.7307663,4.625h-1.4999924l-0.5,0.5V6.5l0,0l0.1249924,0.1249995l0.125,0.125l0.125,0.125l0.125,0.125h0.1249924
			c0,0,0,0,0.125,0h0.125c0.125,0,0.125,0,0.2499924,0c0.125,0,0.125,0,0.125,0h0.125c0.125,0,0.125,0,0.2499924,0
			c0.125,0,0.125,0,0.125,0h0.125c0,0,0,0,0.125,0c0.1249924,0,0.1249924-0.125,0.1249924-0.125l0.125-0.125l0.125-0.125
			c0,0,0,0,0.125-0.1249995l0,0V5.125L91.7307663,4.625z"/>
		<path fill="#FFFFFF" d="M84.2307663,7.8750005V9.25c0,0,0,0-0.1249924,0.125l-0.125,0.125l0,0l0,0c0,0,0,0-0.125,0
			c0,0,0,0-0.125-0.125c0,0,0,0,0-0.125V4h2.9999924c0,0,0,0,0.125,0s0.125,0.125,0.125,0.125s0,0.125,0.125,0.125
			l0.1249924,0.1249995l0.125,0.125c0,0,0,0.125,0.125,0.125c0,0,0,0,0,0.125c0,0,0,0,0,0.1249995c0,0,0,0,0,0.125l0,0v1.875l0,0
			c0,0,0,0,0,0.1249995c0,0,0,0,0,0.125c0,0,0,0,0,0.125c0,0,0,0-0.125,0.125L87.2307739,7.5l-0.125,0.125l-0.125,0.125
			c0,0,0,0-0.125,0.1249995c0,0,0,0.125-0.1249924,0.125L84.2307663,7.8750005L84.2307663,7.8750005z M86.8557663,5.875
			L86.8557663,5.875c0-0.25,0-0.25,0-0.3750005s0-0.125,0-0.125V5.25V5.125c-0.125,0-0.125-0.125-0.125-0.125
			s0-0.125-0.1249924-0.125l-0.125-0.1249995l-0.125-0.125l0,0h-2v2.625h2l0,0l0.125-0.125l0.125-0.125L86.7307663,6.875
			c0,0,0-0.125,0.125-0.125c0-0.1249995,0-0.1249995,0-0.1249995s0,0,0-0.125V6.375c0-0.125,0-0.125,0-0.25
			C86.8557663,6.0000005,86.8557663,6.0000005,86.8557663,5.875z"/>
		<path fill="#FFFFFF" d="M82.1057739,7.5L82.1057739,7.5C81.9807663,7.625,81.9807663,7.625,82.1057739,7.5L82.1057739,7.5
			L82.1057739,7.5L82.1057739,7.5L82.1057739,7.5c-0.125,0.125-0.25,0.125-0.25,0c0,0-0.1249924,0-0.1249924-0.125v-2.25l-0.625-0.5
			h-2.125V7.5c0,0,0,0-0.125,0.125h-0.125l0,0l0,0c0,0,0,0-0.125,0c0,0,0,0-0.1249924-0.125c0,0,0,0,0-0.125V4h2.75l0.8749847,1V7.5
			z"/>
		<path fill="#FFFFFF" d="M76.6057739,4.25L76.6057739,4.25C76.6057739,4.375,76.6057739,4.375,76.6057739,4.25
			c-0.125,0.125-0.125,0.125-0.25,0.25c0,0,0,0-0.125,0h-0.125h-0.125h-0.1249924v4.25c0,0,0,0,0.1249924,0h0.125h0.125h0.125
			c0,0,0,0,0.1249924,0c0,0,0,0,0,0.125l0,0l0,0l0,0l0,0c0,0,0,0-0.1249924,0.125c0,0,0,0-0.125,0h-1.125V4.625h-0.125
			c0,0-0.125,0-0.25,0s-0.125,0-0.25,0c-0.1250076,0-0.125,0-0.125,0s0,0-0.125-0.125c0,0,0,0-0.125-0.1249995V4.25V4.125
			c0,0,0,0,0.125-0.125c0,0,0,0,0.125,0h1.875c0,0,0,0,0.125,0C76.6057739,4.125,76.6057739,4.125,76.6057739,4.25
			C76.6057739,4.125,76.6057739,4.125,76.6057739,4.25L76.6057739,4.25z"/>
		<path fill="#FFFFFF" d="M72.8557739,6.875l-1,1.0000005h-1.875l-1-1.0000005v-1.25h3.125c0,0,0,0,0-0.125V5.3750005V5.25V5.125
			c0,0,0-0.125-0.125-0.125s-0.125-0.125-0.125-0.25s-0.1249924-0.125-0.1249924-0.125V4.5h-1.625c0,0,0,0-0.125-0.125
			c0,0,0-0.125-0.125-0.125l0,0V4.125c0,0,0,0,0.125-0.125c0,0,0,0,0.125,0h1.875l0.8749924,1V6.875L72.8557739,6.875z
			 M69.4807739,6.375L69.4807739,6.375v0.2499995v0.125l0.1249924,0.125c0,0.125,0.125,0.125,0.125,0.125l0.125,0.1249995
			l0.125,0.125h1.75c0,0,0,0,0.125-0.125l0.125-0.1249995l0.125-0.125c0-0.125,0.1249924-0.125,0.1249924-0.125s0,0,0-0.125
			c0-0.1249995,0-0.1249995,0-0.1249995V6.375V6.25L69.4807739,6.375C69.4807739,6.25,69.4807739,6.25,69.4807739,6.375z"/>
	</g>
	<g id="K1_silkscreen">
		<g>
			<polyline fill="none" stroke="#FFFFFF" stroke-width="1.05" stroke-miterlimit="10" points="165.9807587,49.5 173.3557739,42
				173.3557739,31 165.8557739,31 			"/>
			<polyline fill="none" stroke="#FFFFFF" stroke-width="1.05" stroke-miterlimit="10" points="173.3557739,55.5000038
				173.3557739,69.375 165.9807587,69.375 			"/>
		</g>

			<text transform="matrix(-1.346898e-10 1 -1 -1.346898e-10 171.4815521 45.4041519)" fill="#FFFFFF" font-family="'OCRA'" font-size="7.0866251px">K1</text>
	</g>
	<g id="K2_silkscreen">
		<g>
			<polyline fill="none" stroke="#FFFFFF" stroke-width="1.05" stroke-miterlimit="10" points="165.6057739,101.75
				173.1057739,94.375 173.1057739,83.375 165.6057739,83.375 			"/>
			<polyline fill="none" stroke="#FFFFFF" stroke-width="1.05" stroke-miterlimit="10" points="173.1057739,107.8750076
				173.1057739,121.75 165.6057739,121.75 			"/>
		</g>

			<text transform="matrix(-1.346898e-10 1 -1 -1.346898e-10 171.4815521 97.1351089)" fill="#FFFFFF" font-family="'OCRA'" font-size="7.0866251px">K2</text>
	</g>
	<g id="K3_silkscreen">
		<g>
			<polyline fill="none" stroke="#FFFFFF" stroke-width="1.05" stroke-miterlimit="10" points="165.6057739,166.75
				173.1057739,159.25 173.1057739,148.375 165.6057739,148.375 			"/>
			<polyline fill="none" stroke="#FFFFFF" stroke-width="1.05" stroke-miterlimit="10" points="173.1057739,172.75
				173.1057739,186.75 165.6057739,186.75 			"/>
		</g>

			<text transform="matrix(-1.346898e-10 1 -1 -1.346898e-10 171.4815521 161.931488)" fill="#FFFFFF" font-family="'OCRA'" font-size="7.0866251px">K3</text>
	</g>
	<g id="K4_silkscreen">
		<g>
			<polyline fill="none" stroke="#FFFFFF" stroke-width="1.05" stroke-miterlimit="10" points="165.3557587,219.875
				172.7307739,212.375 172.7307739,201.5 165.2307739,201.5 			"/>
			<polyline fill="none" stroke="#FFFFFF" stroke-width="1.05" stroke-miterlimit="10" points="172.7307739,225.875
				172.7307739,239.875 165.3557587,239.875 			"/>
		</g>

			<text transform="matrix(-1.346898e-10 1 -1 -1.346898e-10 171.1905365 215.6287537)" fill="#FFFFFF" font-family="'OCRA'" font-size="7.0866251px">K4</text>
	</g>

		<rect x="70.6057663" y="14" fill="none" stroke="#FFFFFF" stroke-width="1.3598751" stroke-miterlimit="10" width="66.25" height="53.5"/>

		<rect x="70.6057663" y="75.125" fill="none" stroke="#FFFFFF" stroke-width="1.362375" stroke-miterlimit="10" width="66.6249924" height="53.3750076"/>

		<rect x="70.6057663" y="136.25" fill="none" stroke="#FFFFFF" stroke-width="1.362375" stroke-miterlimit="10" width="66.6249924" height="53.3749962"/>

		<rect x="70.6057663" y="198.2500153" fill="none" stroke="#FFFFFF" stroke-width="1.362375" stroke-miterlimit="10" width="66.6249924" height="53.3749962"/>
	<g id="Corners">
		<circle fill="none" stroke="#FFFFFF" stroke-width="0.354375" stroke-miterlimit="10" cx="11.2307701" cy="9.75" r="8.5"/>
		<circle fill="none" stroke="#FFFFFF" stroke-width="0.354375" stroke-miterlimit="10" cx="165.9807587" cy="9.75" r="8.5000019"/>

			<circle fill="none" stroke="#FFFFFF" stroke-width="0.354375" stroke-miterlimit="10" cx="165.9807587" cy="257.125" r="8.5000038"/>
		<circle fill="none" stroke="#FFFFFF" stroke-width="0.354375" stroke-miterlimit="10" cx="10.4807692" cy="256" r="8.5000019"/>
	</g>
	<g id="StaticLabels">

			<text transform="matrix(-1.346898e-10 1 -1 -1.346898e-10 58.4307671 9.7996588)" fill="#FFFFFF" font-family="'OCRA'" font-size="4.6062498px">Q1</text>

			<text transform="matrix(-1.346898e-10 1 -1 -1.346898e-10 58.4307671 75.0828629)" fill="#FFFFFF" font-family="'OCRA'" font-size="4.6062498px">Q2</text>

			<text transform="matrix(-1.346898e-10 1 -1 -1.346898e-10 57.9815483 134.6072693)" fill="#FFFFFF" font-family="'OCRA'" font-size="4.6062498px">Q3</text>

			<text transform="matrix(-1.346898e-10 1 -1 -1.346898e-10 58.4307671 197.0447693)" fill="#FFFFFF" font-family="'OCRA'" font-size="4.6062498px">Q4</text>

			<text transform="matrix(-1.346898e-10 1 -1 -1.346898e-10 58.4307671 60.6839371)" fill="#FFFFFF" font-family="'OCRA'" font-size="4.6062498px">D1</text>

			<text transform="matrix(-1.346898e-10 1 -1 -1.346898e-10 58.4307671 124.9144058)" fill="#FFFFFF" font-family="'OCRA'" font-size="4.6062498px">D2</text>

			<text transform="matrix(-1.346898e-10 1 -1 -1.346898e-10 57.7217827 184.922699)" fill="#FFFFFF" font-family="'OCRA'" font-size="4.6062498px">D3</text>

			<text transform="matrix(-1.346898e-10 1 -1 -1.346898e-10 58.4307671 243.4998474)" fill="#FFFFFF" font-family="'OCRA'" font-size="4.6062498px">D4</text>

			<text transform="matrix(-1.346898e-10 1 -1 -1.346898e-10 46.9034233 9.7996588)" fill="#FFFFFF" font-family="'OCRA'" font-size="4.6062498px">R2</text>

			<text transform="matrix(-1.346898e-10 1 -1 -1.346898e-10 47.2999077 58.5369644)" fill="#FFFFFF" font-family="'OCRA'" font-size="4.6062498px">R1</text>

			<text transform="matrix(-1.346898e-10 1 -1 -1.346898e-10 46.9034233 75.0823746)" fill="#FFFFFF" font-family="'OCRA'" font-size="4.6062498px">R3</text>

			<text transform="matrix(-1.346898e-10 1 -1 -1.346898e-10 46.9034233 122.3958511)" fill="#FFFFFF" font-family="'OCRA'" font-size="4.6062498px">R4</text>

			<text transform="matrix(-1.346898e-10 1 -1 -1.346898e-10 47.1514702 133.228363)" fill="#FFFFFF" font-family="'OCRA'" font-size="4.6062498px">R6</text>

			<text transform="matrix(-1.346898e-10 1 -1 -1.346898e-10 47.2999077 183.3982849)" fill="#FFFFFF" font-family="'OCRA'" font-size="4.6062498px">R5</text>

			<text transform="matrix(-1.346898e-10 1 -1 -1.346898e-10 46.9034233 195.0643005)" fill="#FFFFFF" font-family="'OCRA'" font-size="4.6062498px">R7</text>

			<text transform="matrix(-1.346898e-10 1 -1 -1.346898e-10 46.9034233 238.4900818)" fill="#FFFFFF" font-family="'OCRA'" font-size="4.6062498px">R8</text>

			<text transform="matrix(-1.346898e-10 1 -1 -1.346898e-10 29.9835033 243.9998474)" fill="#FFFFFF" font-family="'OCRA'" font-size="3.897625px">VCC</text>

			<text transform="matrix(-1.346898e-10 1 -1 -1.346898e-10 52.1924858 243.9998474)" fill="#FFFFFF" font-family="'OCRA'" font-size="3.897625px">JD-VCC</text>

			<text transform="matrix(-1.346898e-10 1 -1 -1.346898e-10 6.7315502 201.922699)" fill="#FFFFFF" font-family="'OCRA'" font-size="3.897625px">VCC</text>

			<text transform="matrix(-1.346898e-10 1 -1 -1.346898e-10 6.7315502 192.8728943)" fill="#FFFFFF" font-family="'OCRA'" font-size="3.897625px">IN4</text>

			<text transform="matrix(-1.346898e-10 1 -1 -1.346898e-10 6.7315502 183.7137146)" fill="#FFFFFF" font-family="'OCRA'" font-size="3.897625px">IN3</text>

			<text transform="matrix(-1.346898e-10 1 -1 -1.346898e-10 6.7315502 174.9236755)" fill="#FFFFFF" font-family="'OCRA'" font-size="3.897625px">IN2</text>

			<text transform="matrix(-1.346898e-10 1 -1 -1.346898e-10 6.7315502 165.6785583)" fill="#FFFFFF" font-family="'OCRA'" font-size="3.897625px">IN1</text>

			<text transform="matrix(-1.346898e-10 1 -1 -1.346898e-10 6.7315502 156.7498474)" fill="#FFFFFF" font-family="'OCRA'" font-size="3.897625px">GND</text>

			<text transform="matrix(-1.346898e-10 1 -1 -1.346898e-10 5.352644 133.1878357)" fill="#FFFFFF" font-family="'OCRA'" font-size="3.897625px">IN4</text>

			<text transform="matrix(-1.346898e-10 1 -1 -1.346898e-10 5.3545971 110.874855)" fill="#FFFFFF" font-family="'OCRA'" font-size="3.897625px">IN3</text>

			<text transform="matrix(-1.346898e-10 1 -1 -1.346898e-10 5.3545971 87.4144058)" fill="#FFFFFF" font-family="'OCRA'" font-size="3.897625px">IN2</text>

			<text transform="matrix(-1.346898e-10 1 -1 -1.346898e-10 5.3545971 64.499855)" fill="#FFFFFF" font-family="'OCRA'" font-size="3.897625px">IN1</text>
	</g>
	<g id="sunfounder">
		<g>

				<line fill="none" stroke="#FFFFFF" stroke-width="2.1259999" stroke-miterlimit="10" x1="13.1057701" y1="40.875" x2="19.9807701" y2="34.125"/>

				<line fill="none" stroke="#FFFFFF" stroke-width="2.1259999" stroke-miterlimit="10" x1="25.1057701" y1="40.875" x2="18.9807701" y2="34.75"/>

				<line fill="none" stroke="#FFFFFF" stroke-width="2.1259999" stroke-miterlimit="10" x1="18.4807682" y1="46.1250038" x2="25.2307682" y2="39.375"/>
		</g>
		<g>

				<line fill="none" stroke="#FFFFFF" stroke-width="2.1259999" stroke-miterlimit="10" x1="20.2307701" y1="39.125" x2="13.4807692" y2="45.875"/>

				<line fill="none" stroke="#FFFFFF" stroke-width="2.1259999" stroke-miterlimit="10" x1="8.2307692" y1="39.25" x2="14.4807692" y2="45.375"/>

				<line fill="none" stroke="#FFFFFF" stroke-width="2.1259999" stroke-miterlimit="10" x1="14.9807701" y1="33.875" x2="8.2307692" y2="40.625"/>
		</g>

			<text transform="matrix(-1.346898e-10 1 -1 -1.346898e-10 1.3018626 18.8729019)" fill="#FFFFFF" font-family="'OCRAExtended'" font-size="7.0866251px">SUNFOUNDER</text>
	</g>
</g>
<g>
	<g>
		<g>
			<g transform="matrix(0.24 0 0 0.24 54.751 6.7148)">
			</g>
			<g>
				<rect x="71.7307663" y="15.5" fill="#6D6D6D" width="64.375" height="49.5"/>
			</g>
		</g>
		<rect x="71.7307663" y="15.5" fill="#005899" width="64.375" height="49.5"/>
		<circle fill="#063B59" stroke="#232323" stroke-width="0.3125" stroke-miterlimit="10" cx="79.2307663" cy="57.75" r="3.75"/>
		<circle fill="#063B59" stroke="#232323" stroke-width="0.3125" stroke-miterlimit="10" cx="103.8557663" cy="40.25" r="3.75"/>
	</g>
	<g>
		<g>
			<g transform="matrix(0.24 0 0 0.24 54.751 51.8999)">
			</g>
			<g>
				<rect x="71.7307663" y="77.375" fill="#6D6D6D" width="64.375" height="49.5"/>
			</g>
		</g>
		<rect x="71.7307663" y="77.375" fill="#005899" width="64.375" height="49.5"/>
		<circle fill="#063B59" stroke="#232323" stroke-width="0.3125" stroke-miterlimit="10" cx="79.2307663" cy="119.625" r="3.75"/>
		<circle fill="#063B59" stroke="#232323" stroke-width="0.3125" stroke-miterlimit="10" cx="103.8557663" cy="102.125" r="3.75"/>
	</g>
	<g>
		<g>
			<g transform="matrix(0.24 0 0 0.24 54.751 96.9648)">
			</g>
			<g>
				<rect x="71.6057739" y="138.125" fill="#6D6D6D" width="64.375" height="49.5000076"/>
			</g>
		</g>
		<rect x="71.6057739" y="138.125" fill="#005899" width="64.375" height="49.5000076"/>
		<circle fill="#063B59" stroke="#232323" stroke-width="0.3125" stroke-miterlimit="10" cx="79.2307663" cy="180.375" r="3.75"/>
		<circle fill="#063B59" stroke="#232323" stroke-width="0.3125" stroke-miterlimit="10" cx="103.8557663" cy="162.875" r="3.75"/>
	</g>
	<g>
		<g>
			<g transform="matrix(0.24 0 0 0.24 54.751 142.1445)">
			</g>
			<g>
				<rect x="71.6057739" y="200" fill="#6D6D6D" width="64.375" height="49.5000076"/>
			</g>
		</g>
		<rect x="71.6057739" y="200" fill="#005899" width="64.375" height="49.5000076"/>
		<circle fill="#063B59" stroke="#232323" stroke-width="0.3125" stroke-miterlimit="10" cx="79.1057739" cy="242.25" r="3.75"/>
		<circle fill="#063B59" stroke="#232323" stroke-width="0.3125" stroke-miterlimit="10" cx="103.8557663" cy="224.75" r="3.75"/>
	</g>
	<text transform="matrix(-1 0 0 -1 133.9229584 16.7693844)" fill="#FFFFFF" font-family="'OCRA'" font-size="6.0236254px">SRD-05VDC-SL-C</text>
	<text transform="matrix(-1 0 0 -1 133.9229584 79.01548)" fill="#FFFFFF" font-family="'OCRA'" font-size="6.0236254px">SRD-05VDC-SL-C</text>
	<text transform="matrix(-1 0 0 -1 133.9229584 140.0467224)" fill="#FFFFFF" font-family="'OCRA'" font-size="6.0236254px">SRD-05VDC-SL-C</text>
	<text transform="matrix(-1 0 0 -1 133.9229584 201.4646912)" fill="#FFFFFF" font-family="'OCRA'" font-size="6.0236254px">SRD-05VDC-SL-C</text>
	<text transform="matrix(-1 0 0 -1 131.9073334 29.5994625)" fill="#FFFFFF" font-family="'OCRA'" font-size="3.5432501px">10A 250VAC  10A 125VAC</text>
	<text transform="matrix(-1 0 0 -1 131.9073334 25.3494625)" fill="#FFFFFF" font-family="'OCRA'" font-size="3.5432501px">10A  30VDC  10A  28VDC</text>
	<text transform="matrix(-1 0 0 -1 131.9073334 90.9764175)" fill="#FFFFFF" font-family="'OCRA'" font-size="3.5432501px">10A 250VAC  10A 125VAC</text>
	<text transform="matrix(-1 0 0 -1 131.9073334 86.7264175)" fill="#FFFFFF" font-family="'OCRA'" font-size="3.5432501px">10A  30VDC  10A  28VDC</text>
	<text transform="matrix(-1 0 0 -1 131.9073334 152.0076599)" fill="#FFFFFF" font-family="'OCRA'" font-size="3.5432501px">10A 250VAC  10A 125VAC</text>
	<text transform="matrix(-1 0 0 -1 131.9073334 147.7537537)" fill="#FFFFFF" font-family="'OCRA'" font-size="3.5432501px">10A  30VDC  10A  28VDC</text>
	<text transform="matrix(-1 0 0 -1 131.9073334 213.4764099)" fill="#FFFFFF" font-family="'OCRA'" font-size="3.5432501px">10A 250VAC  10A 125VAC</text>
	<text transform="matrix(-1 0 0 -1 131.9073334 209.2244568)" fill="#FFFFFF" font-family="'OCRA'" font-size="3.5432501px">10A  30VDC  10A  28VDC</text>
</g>
</svg>
